<svg xmlns="http://www.w3.org/2000/svg" width="56" height="56" fill="none"><rect width="56" height="56" fill="url(#a)" opacity=".1" rx="1"/><path fill="url(#b)" d="M36.95 35.56v4.22H20.02v-3.36l8.64-8.16a9.36 9.36 0 0 0 1.86-2.24 4.2 4.2 0 0 0 .48-1.88c0-.9-.3-1.58-.93-2.05-.6-.5-1.48-.74-2.65-.74a6 6 0 0 0-2.66.58c-.79.36-1.45.92-1.98 1.66L19 21.16a8.74 8.74 0 0 1 3.62-3.04c1.53-.75 3.3-1.12 5.28-1.12 1.66 0 3.11.28 4.35.83a6.46 6.46 0 0 1 2.91 2.3c.7.99 1.06 2.15 1.06 3.5 0 1.21-.26 2.35-.77 3.42a13.18 13.18 0 0 1-2.98 3.65l-5.15 4.86h9.63Z"/><defs><linearGradient id="a" x1="-10.5" x2="7.14" y1="65.92" y2="-38.81" gradientUnits="userSpaceOnUse"><stop offset=".13" stop-color="#001861"/><stop offset=".66" stop-color="#B91484"/><stop offset="1" stop-color="#FF0063"/></linearGradient><linearGradient id="b" x1="15.63" x2="24.59" y1="43.82" y2="1.92" gradientUnits="userSpaceOnUse"><stop offset=".13" stop-color="#001861"/><stop offset=".66" stop-color="#B91484"/><stop offset="1" stop-color="#FF0063"/></linearGradient></defs></svg>