<svg xmlns="http://www.w3.org/2000/svg" width="56" height="56" fill="none"><rect width="56" height="56" fill="url(#a)" opacity=".1" rx="1"/><path fill="url(#b)" d="M30.74 26.12a7.5 7.5 0 0 1 4.52 2.2 5.99 5.99 0 0 1 1.56 4.23c0 1.3-.34 2.5-1.02 3.62a7.16 7.16 0 0 1-3.14 2.62c-1.38.66-3.09 1-5.12 1-1.57 0-3.13-.2-4.67-.61a12.25 12.25 0 0 1-3.87-1.8l2.02-3.96c.85.64 1.83 1.14 2.94 1.5 1.13.34 2.28.51 3.46.51 1.3 0 2.32-.24 3.07-.73a2.46 2.46 0 0 0 1.12-2.15c0-1.83-1.4-2.75-4.2-2.75h-2.36v-3.42l4.6-5.22h-9.53V17H35.8v3.36l-5.06 5.76Z"/><defs><linearGradient id="a" x1="-10.5" x2="7.14" y1="65.92" y2="-38.81" gradientUnits="userSpaceOnUse"><stop offset=".13" stop-color="#001861"/><stop offset=".66" stop-color="#B91484"/><stop offset="1" stop-color="#FF0063"/></linearGradient><linearGradient id="b" x1="15.66" x2="24.68" y1="43.82" y2="1.94" gradientUnits="userSpaceOnUse"><stop offset=".13" stop-color="#001861"/><stop offset=".66" stop-color="#B91484"/><stop offset="1" stop-color="#FF0063"/></linearGradient></defs></svg>