<svg xmlns="http://www.w3.org/2000/svg" width="68" height="68" fill="none"><mask id="a" width="68" height="68" x="0" y="0" maskUnits="userSpaceOnUse" style="mask-type:alpha"><path fill="#D9D9D9" d="M0 0h68v68H0z"/></mask><g stroke-width="2" mask="url(#a)"><path stroke="#E80061" d="M22 13.5c3 2.5 3.5 2 5 4s2 1.5 4 1.5 4 2 1 4-10.5 3.5-10 6 2.5 3 0 4.5-6.5-1.5-7-3 .5-2.5-.5-3c-.8-.4-2.3-.5-3-.5M50.5 17c-2.5 0-5 1-6.5 2s-4 3-2.5 4.5 3.5-.5 6-.5 2 1.5 4.5 1.5c2 0 3.2-.3 3.5-.5"/><path stroke="#E80061" stroke-linecap="round" d="M57 28.5c-3.5 0-5.5.5-7.5 0s-3-1-4.5-.5m-5 2.5c-.5 1-1 3.5 0 5.5s3 2 4.5 1 2.5.5 2.5 2 1 3.5 2 5 0 2 .5 3.5A7 7 0 0 0 51 50"/><path stroke="#E80061" d="M28.5 34.5c-1-.5-2.5-1-3.5 0 0 .3-.2 1.1-1 1.5-1 .5-2 .5-2 2s1 3.5 2 4.5 2 1 2.5 2-1 4.5.5 6.5 2.5 2.5 4 2 1.5-3.5 1.5-5 1.5-2 2-2.5 1-1.5 1.5-4-.5-2-2.5-3.5-1-2.5-2-2.5-2-.5-3-1Z"/><path stroke="#142269" stroke-linecap="round" d="M15.7 49.5a24 24 0 0 1-1.9-2.5m7.7 7.5a24 24 0 1 0-10.3-13"/></g></svg>