<svg xmlns="http://www.w3.org/2000/svg" width="68" height="68" fill="none"><mask id="a" width="68" height="68" x="0" y="0" maskUnits="userSpaceOnUse" style="mask-type:alpha"><path fill="#D9D9D9" d="M0 0h68v68H0z"/></mask><g stroke-linecap="round" stroke-width="2" mask="url(#a)"><path stroke="#142269" d="M13.6 44.8a22.9 22.9 0 0 1 34-28.8m6.8 8a22.9 22.9 0 0 1-32.9 29.6M53.3 21.9l-1.6 4.8M58.2 23.5l-4.9-1.6M14.7 47l-4.9-1.6M16.3 42.1 14.7 47"/><rect width="4.8" height="6" x="23.2" y="38" stroke="#E80061" rx="1"/><rect width="4.8" height="10.8" x="31.6" y="33.2" stroke="#E80061" rx="1"/><path stroke="#E80061" d="M44.8 29v-3.2c0-.6-.4-1-1-1H41a1 1 0 0 0-1 1V43c0 .5.5 1 1 1h2.8c.6 0 1-.5 1-1V33"/></g></svg>