<svg xmlns="http://www.w3.org/2000/svg" width="68" height="68" fill="none"><mask id="a" width="68" height="68" x="0" y="0" maskUnits="userSpaceOnUse" style="mask-type:alpha"><path fill="#D9D9D9" d="M0 0h68v68H0z"/></mask><g stroke-linecap="round" stroke-width="2" mask="url(#a)"><circle cx="25.1" cy="40.8" r="5.6" stroke="#142269"/><path stroke="#142269" d="M19 61h-3.9l-.1-.1v0a10 10 0 0 1 10-10h.2a10 10 0 0 1 10 10v.1H24m4.5-49V9c0-1.1.9-2 2-2h23a2 2 0 0 1 2 2v20.8a2 2 0 0 1-2 2H42.6a2 2 0 0 0-1.1.3l-3.8 2.5c-1 .7-2.5 0-2.5-1.3v0c0-.8-.7-1.5-1.5-1.5h-3.2a2 2 0 0 1-2-2V24m0-7v2"/><path stroke="#E80061" d="M42 26.1h-.3c-3-2-5-3.7-6-5v-.2l-.1-.1a7 7 0 0 1-1.5-3.6c0-2.5 2-4.6 4.5-4.6 1.3 0 2.6.6 3.4 1.6v0s0 0 0 0c.8-1 2-1.6 3.4-1.6 2.5 0 4.5 2 4.5 4.6 0 1.3-.8 2.7-1.5 3.7h0l-.1.1a21.5 21.5 0 0 1-6.3 5.1Z"/></g></svg>