<svg xmlns="http://www.w3.org/2000/svg" width="36" height="36" fill="none"><mask id="a" width="36" height="36" x="0" y="0" maskUnits="userSpaceOnUse" style="mask-type:alpha"><path fill="#D9D9D9" d="M0 0h36v36H0z"/></mask><g mask="url(#a)"><path stroke="#142269" stroke-linecap="round" stroke-width="2" d="M7.5 28.7A15 15 0 0 1 21.17 3.34m7.33 3.96a15 15 0 0 1-13.7 25.36"/><path stroke="#142269" stroke-linecap="round" stroke-width="2" d="m30.62 6.57-2.83.02.03 2.83M5.38 29.43l2.83-.03-.03-2.82"/><circle cx="18.26" cy="13.48" r="3.48" stroke="#E80061" stroke-linecap="round" stroke-width="2"/><path fill="#E80061" d="M14.47 27a1 1 0 1 0 0-2v2Zm3.1-2a1 1 0 1 0 0 2v-2Zm.61-4.26h.16v-2h-.16v2ZM14.48 25h-2.4v2h2.4v-2Zm9.97 0h-6.88v2h6.88v-2ZM11 25.92c0 .6.48 1.08 1.08 1.08v-2c.5 0 .92.41.92.92h-2Zm12.52 0c0-.5.42-.92.93-.92v2c.59 0 1.07-.48 1.07-1.08h-2Zm-5.18-5.18a5.18 5.18 0 0 1 5.18 5.18h2a7.18 7.18 0 0 0-7.18-7.18v2Zm-.16-2A7.18 7.18 0 0 0 11 25.92h2a5.18 5.18 0 0 1 5.18-5.18v-2Z"/></g></svg>