<svg xmlns="http://www.w3.org/2000/svg" width="68" height="68" fill="none"><mask id="a" width="68" height="68" x="0" y="0" maskUnits="userSpaceOnUse" style="mask-type:alpha"><path fill="#D9D9D9" d="M0 0h68v68H0z"/></mask><g stroke-linecap="round" stroke-width="2" mask="url(#a)"><path stroke="#142269" d="M13.3 29.5v9m41.4 0v-9M49 18.7l-4.7-2.6-4.3-2.6m-21 5.2 4.7-2.6 4.3-2.6"/><circle cx="34" cy="10" r="3" stroke="#142269"/><circle cx="34" cy="34" r="6" stroke="#E80061"/><circle cx="55" cy="22" r="3" stroke="#142269"/><circle cx="55" cy="46" r="3" stroke="#142269"/><circle cx="13" cy="22" r="3" stroke="#142269"/><circle cx="13" cy="46" r="3" stroke="#142269"/><path stroke="#142269" d="M34 13v9M16 45.3l8.3-4.9M52 24.3l-7.5 4.3M52 45.3l-8.2-4.8M16 24.2l7.5 4.4"/><path stroke="#E80061" d="M26.8 55h-3.2l-.1-.1v0c0-5.7 4.7-10.4 10.4-10.4h.2c5.7 0 10.4 4.7 10.4 10.4v0l-.1.1H32.8"/></g></svg>