<svg xmlns="http://www.w3.org/2000/svg" width="68" height="68" fill="none"><mask id="a" width="68" height="68" x="0" y="0" maskUnits="userSpaceOnUse" style="mask-type:alpha"><path fill="#D9D9D9" d="M0 0h68v68H0z"/></mask><g stroke-linecap="round" stroke-width="2" mask="url(#a)"><path stroke="#E80061" d="m32.4 29 3.2 3.2"/><path stroke="#142269" d="M13.3 39.3v3.3c0 .6.4 1 1 1h39.4c.6 0 1-.4 1-1V17.4c0-.6-.4-1-1-1H14.3a1 1 0 0 0-1 1v11m0 6.5v-2.2M46 12H11a1 1 0 0 0-1 1v2.4c0 .5.4 1 1 1h46c.6 0 1-.5 1-1V13c0-.6-.4-1-1-1h-5.5M34 43.6v6.6"/><circle cx="34" cy="53.5" r="2.2" stroke="#142269"/><circle cx="22" cy="36" r="2.2" stroke="#E80061"/><circle cx="37.3" cy="33.8" r="2.2" stroke="#E80061"/><circle cx="30.7" cy="27.3" r="2.2" stroke="#E80061"/><circle cx="46" cy="25.1" r="2.2" stroke="#E80061"/><path stroke="#E80061" d="M24.2 33.8 29 29M39.5 31.6l4.9-4.9"/><path stroke="#142269" d="M17.6 20.7h6.6M17.6 24H22"/></g></svg>