<svg width="434" height="404" fill="none" xmlns="http://www.w3.org/2000/svg"><g filter="url(#a)"><circle cx="404.7" cy="185.7" r="3.5" transform="rotate(25 404.7 185.7)" fill="#fff"/></g><circle cx="404.7" cy="185.7" r="1.8" transform="rotate(25 404.7 185.7)" fill="#fff"/><path opacity=".2" d="M341.9 297.2c0 2.2-1.6 4.5-4.8 6.3L292 346.7c-5.7 3.3-14.4 3.7-19.4.8l-82.4-47.8c-2.4-1.3-3.5-3.2-3.3-5.2V301.1c0 1.8 1.1 3.5 3.3 4.8l82.4 47.7c5 3 13.7 2.5 19.4-.8l45.3-43.2c3.1-1.8 4.8-4.2 4.7-6.4v-6Z" fill="url(#b)"/><g opacity=".2" fill="#000"><path opacity=".1" d="m286.3 251 54.8 32 .6.4a11.4 11.4 0 0 1 6 10.9c-.2 4.3-3.5 9.2-8.2 12L295 348.6A27.7 27.7 0 0 1 280 352c-4 0-8-1.1-11.6-3.1L187 301.6c-4.2-2.4-6.6-6.1-6.5-10.3 0-4.5 2.8-8.8 7.8-11.7l71.9-27.7a29.5 29.5 0 0 1 14.3-3.7c4.1-.2 8.2.8 11.8 2.8Z"/><path opacity=".2" d="m286 251.5 54.8 32.1.7.4a10.4 10.4 0 0 1 5.2 10.8c-.5 4-4.1 9.2-8.4 11.7L294.7 348c-4.7 2.6-10 3.7-15.3 3.2a27 27 0 0 1-11.4-3.4l-80.7-46.8c-4-2.3-6.2-5.9-6.2-9.9 0-4.3 2.8-8.3 7.6-11l71.4-27.5a33 33 0 0 1 14.2-3.9c4-.1 8.1.8 11.7 2.7Z"/><path opacity=".3" d="m285.7 252 54.9 32.2.6.4c4.3 2.6 6 6.8 4.4 10.8 0 3.5-4.6 9.1-8.4 11.3l-42.8 40.9a25.4 25.4 0 0 1-15.8 2.9c-3.2 0-8.8-2.2-11.1-3.6l-79.9-46.3c-3.8-2.2-6-5.6-5.9-9.4.1-4 2.7-7.8 7.3-10.5l71-27.3a39.7 39.7 0 0 1 14-3.9c4-.2 8 .7 11.7 2.6Z"/><path opacity=".4" d="m285.3 252.6 55 32.2.7.4c4.3 2.6 5.5 6.8 3.6 10.8 0 3-5.2 9-8.5 11l-42 40c-5 2.8-10.7 3.7-16.3 2.7-2.8 0-8.9-2.6-11-3.8L188 300c-3.6-2.1-5.6-5.3-5.5-8.8 0-3.9 2.5-7.5 7-10l70.5-27.1c1.6-.8 3.3-1.5 5.1-2.2a30 30 0 0 1 8.8-1.8c4-.2 8 .6 11.5 2.5Z"/><path opacity=".5" d="m285 253.1 55 32.3.7.4c4.3 2.7 5.3 7 2.8 10.8 0 2.6-5.7 9-8.6 10.6l-41.2 39.3c-5 2.8-11 3.6-16.6 2.4-2.5 0-9-3-10.8-4l-78-45.4c-3.5-2-5.4-5-5.3-8.4.1-3.5 2.5-7 6.6-9.4l70-26.9 5.2-2.1c2.8-1 5.7-1.7 8.7-2 4-.2 8 .6 11.6 2.4Z"/><path opacity=".5" d="m284.7 253.7 55.1 32.2.7.5c4.2 2.7 5 7 2 10.7 0 2.2-6.3 9-8.7 10.3l-40.4 38.5a23.2 23.2 0 0 1-17 2.1c-2.1 0-9.1-3.4-10.6-4.3L188.6 299c-3.3-1.9-5-4.8-5-7.8.2-3.3 2.4-6.5 6.4-8.8l69.6-26.8c.7-.4 4.2-1.7 5-2 2.8-1.2 5.7-1.8 8.7-2 4-.4 8 .4 11.4 2.2Z"/><path opacity=".6" d="m284.4 254.2 55.1 32.3.7.4c4.3 2.8 4.7 7.2 1.2 10.8 0 1.8-6.9 8.9-8.7 10L293 345.4c-5.1 3-12.5 3.7-17.6 1.9-1.6 0-9-3.9-10.3-4.6l-76.4-44.4c-3.1-1.8-4.7-4.4-4.5-7.3.1-3 2.3-6 6-8.2l69-26.6 5.2-2c2.7-1.2 5.6-1.9 8.5-2.2 4-.4 8 .4 11.4 2.2Z"/><path opacity=".7" d="m284.1 254.8 55.2 32.3.7.4c4.2 2.8 4.3 7.3.3 10.8a41 41 0 0 1-8.8 9.6l-38.7 37c-5.3 3-13 3.6-18 1.6-1.2 0-9.2-4.3-10-4.8l-75.6-43.9c-3-1.7-4.5-4.2-4.3-6.8.2-2.6 2.1-5.6 5.7-7.6l68.6-26.4 5.1-2c2.7-1.2 5.5-2 8.5-2.3 3.9-.5 7.8.3 11.3 2Z"/><path opacity=".8" d="m283.8 255.3 55.2 32.4.7.4c4.3 2.8 4 7.4-.4 10.8 0 .8-8 8.7-8.9 9.2l-38 36.2a22 22 0 0 1-18.4 1.4c-.8 0-9.2-4.7-9.8-5l-74.7-43.4c-2.8-1.6-4.2-4-4-6.4.2-2.4 2-5 5.4-7l68.2-26.2 5-2c2.7-1.2 5.5-2 8.4-2.4 3.9-.4 7.8.3 11.3 2Z"/><path opacity=".9" d="m283.5 255.9 55.3 32.4c.2 0 .5.3.6.4 4.3 2.9 3.7 7.5-1.2 10.7 0 .5-8.5 8.7-9 9l-37 35.4c-5.7 3.3-14 3.7-19 1.1-.4 0-9.3-5-9.6-5.2l-73.8-42.9c-2.7-1.5-3.9-3.6-3.7-5.9.2-2.2 2-4.6 5-6.4l67.8-26 5-2c2.6-1.2 5.4-2 8.3-2.5 3.9-.5 7.8.1 11.3 1.9Z"/><path d="m272.5 344-82.4-47.8c-5-2.9-4.3-7.9 1.4-11.2l72.3-27.8c5.7-3.3 14.4-3.7 19.4-.8l55.3 32.4c5 2.9 4.4 8-1.4 11.2l-45.3 43.3c-5.7 3.2-14.3 3.6-19.3.7Z"/></g><path d="m272.5 344-82.4-48c-2.2-1.2-3.3-3-3.3-4.7V285c0-2.2 1.6 1.5 4.7-.2l72.3-27.8c5.7-3.4 14.4-3.7 19.3-.9l55.4 32.5c1.7 1 2.9-3.1 3.3-1.8v6.6c0 2.2-1.5 4.5-4.7 6.4L291.8 343c-5.7 3.3-14.3 3.7-19.3.8Z" fill="url(#c)"/><path d="M272.5 337.8 190.1 290c-5-2.8-4.3-7.8 1.4-11.1l72.3-27.9c5.7-3.3 14.4-3.6 19.4-.8l55.3 32.4c5 2.9 4.4 7.9-1.4 11.2L292 337c-5.8 3.3-14.4 3.7-19.4.8Z" fill="url(#d)"/><path style="mix-blend-mode:multiply" opacity=".8" d="m338.5 282.6-55.3-32.4c-5-2.9-13.7-2.5-19.4.8l-36.4 14 1.1.8 82.4 47.8c1.2.7 2.6 1.2 4 1.5l22.2-21.3c5.8-3.3 6.4-8.3 1.4-11.2Z" fill="url(#e)"/><path style="mix-blend-mode:screen" opacity=".6" d="M337.1 292.8 292 336c-5.7 3.3-14.4 3.7-19.4.8L190.1 289a6 6 0 0 1-3.3-4.4c-.2 2 .8 4 3.3 5.4l82.4 47.8c5 2.9 13.7 2.5 19.4-.8l45.2-43.2c3.4-2 5-4.5 4.7-6.9-.2 2.1-1.8 4.2-4.7 5.9Z" fill="url(#f)"/><g opacity=".5" filter="url(#g)"><path d="M263.2 351.4c-5.7-13.9-.7-29 11.2-34 11.8-4.8 26 2.5 31.8 16.3 5.7 13.9.7 29-11.2 34-11.9 4.8-26.1-2.4-31.8-16.3Z" fill="url(#h)" style="mix-blend-mode:color-dodge"/></g><g opacity=".5" filter="url(#i)"><path d="M251 371.4c-52.6-17.6-89.4-49.1-82.3-70.5 7.2-21.3 55.6-24.3 108.2-6.6 52.6 17.6 89.4 49.1 82.3 70.4C352 386 303.6 389 251 371.4Z" fill="url(#j)" style="mix-blend-mode:color-dodge"/></g><path d="M380.1 338 177.8 221.3c-10.3-6-18.7-22-18.7-35.8V30.7c0-13.8 8.4-20.2 18.7-14.2l202.3 116.8c10.4 6 18.8 22 18.8 35.8V324c0 13.8-8.4 20.2-18.8 14.2Z" fill="url(#k)"/><path d="M382.5 327.3 183.1 212.1a31.9 31.9 0 0 1-13.5-26.7V29.6a3.3 3.3 0 0 1 5-2.8l.6.3 199.7 115.3c9.9 5.7 13.5 16 13.5 26.7v155.4a3.6 3.6 0 0 1-5.4 3.1l-.5-.3Z" fill="url(#l)"/><path d="M388.4 169.2v155.3a3.6 3.6 0 0 1-5.4 3.1l-.5-.2L183.1 212a31.9 31.9 0 0 1-13.5-26.7V29.6a3.3 3.3 0 0 1 5-2.8l.6.3 199.7 115.3c9.9 5.8 13.5 16 13.5 26.8Zm-2.2 0c0-8-2.1-19-12.4-24.9L173.6 28.6l-.6-.2a1.2 1.2 0 0 0-1.3 1.2v155.8c0 10.3 5 20 12.5 24.8L384 325.7c.2.2.5.2.8.2a1.5 1.5 0 0 0 1.4-1.4V169.2Z" fill="#BCBEC0" style="mix-blend-mode:multiply"/><path d="m385.4 130.6-202.3-117c-4-2.3-7.9-2.7-11-1.6l-6 3.2c3.3-1.6 7.3-1.3 11.7 1.3l202.3 116.8c10.4 6 18.8 22 18.8 35.8V324c0 8.6-3.3 14.3-8.3 15.9.6 0 1.2-.2 1.7-.5l6-3.5c3.6-2.5 5.9-7.6 5.9-14.7V166.3c0-13.7-8.4-29.8-18.8-35.7Z" fill="url(#m)"/><path fill-rule="evenodd" clip-rule="evenodd" d="m190.1 296 82.4 48c4.7 2.7 12.8 2.5 18.5-.4.6-.3 1-.7 1.5-1.1l44-42 1.4-1.1c2.4-1.6 3.7-3.5 4-5.3V291a132.5 132.5 0 0 0-.1-4.1c-.2-.6-.5-.1-1 .5-.5.8-1.3 1.8-2.3 1.3l-55.4-32.5c-4.7-2.7-13-2.5-18.7.5l-1.2.6-71.1 27.3-1.2.5c-1.4.6-2.5 0-3.2-.5-.5-.2-.8-.4-.9 0v6.7c0 1.8 1.1 3.5 3.3 4.7Z" fill="url(#n)" style="mix-blend-mode:color"/><path fill-rule="evenodd" clip-rule="evenodd" d="m183.1 13.7 202.3 116.9c10.4 6 18.8 22 18.8 35.7v154.8c0 7-2.3 12.2-5.8 14.7a351.7 351.7 0 0 1-6.6 3.7c-.6.3-1.3.4-2 .6-2.8.6-6.1 0-9.7-2L177.8 221c-10.3-5.9-18.7-22-18.7-35.7V30.7c0-13.8 8.4-20.2 18.7-14.2l202.3 116.8c10.4 6 18.8 22 18.8 35.8V324 169c0-13.8-8.4-29.8-18.8-35.8L177.8 16.5c-4.4-2.6-8.4-2.9-11.6-1.3l6-3.2c3-1.1 6.8-.7 11 1.7Z" fill="url(#o)" style="mix-blend-mode:color"/><path d="M381 133 178.7 16c-4.2-2.4-8.1-2.8-11.3-1.4 3.2-.4 6.4.4 9 2.1l202.4 117c10.3 5.9 18.7 22 18.7 35.7v154.7c0 8.2-3 13.7-7.4 15.6 5.7-.9 9.7-6.8 9.7-16.2V168.7c0-13.7-8.4-29.8-18.8-35.8Z" fill="url(#p)" style="mix-blend-mode:screen" opacity=".6"/><path d="M424.5 308.3h-1.1V153.6c0-13.6-8.3-29.5-18.5-35.3L202.6 1.3l.6-.9 202.3 116.9c10.5 6 19 22.3 19 36.3v154.7Z" fill="url(#q)" style="mix-blend-mode:color-dodge"/><g opacity=".1" filter="url(#r)"><path d="M85.5 240.6v-87l14.3-.3 23.3 7.4 24.8-11.1 24.2 27 24 42.7 24 21 36.7 54.6v47c0 1.5-.4 3-1.4 3-.5 0-1 0-1.3-.3L90.2 250c-2.5-1.5-4.7-5.8-4.7-9.4Z" fill="#231F20"/></g><path d="M375.4 156.4c-5.7-14-1.6-28.8 9.3-33.2 10.8-4.5 24.2 3.2 29.9 17 5.7 14 1.5 28.8-9.3 33.2-10.8 4.5-24.2-3.2-30-17Z" fill="url(#s)" style="mix-blend-mode:color-dodge"/><path d="M280.9 365.4c-3 0-6-.6-8.7-2l-82.4-47.9.6-1 82.4 48c4.8 2.7 13.2 2.3 18.7-.9l45.3-43.1.7.8-45.4 43.3a23 23 0 0 1-11.2 2.8Z" fill="url(#t)" style="mix-blend-mode:color-dodge"/><g filter="url(#u)"><circle cx="291.7" cy="361.7" r="3.5" transform="rotate(25 291.7 361.7)" fill="#fff"/></g><g filter="url(#v)"><circle cx="291.7" cy="361.7" r="1.8" transform="rotate(25 291.7 361.7)" fill="#37FFE2"/></g><circle cx="291.7" cy="361.7" r="1.8" transform="rotate(25 291.7 361.7)" fill="#fff"/><path opacity=".7" d="M383 273.7c.6.6.1-1.7-.6-2-13.1-7.2-19-19.8-24.7-32-4.6-10-9-19.3-16.9-24a46.4 46.4 0 0 0-19.1-6.6c-4.6-.7-8-1.1-12.3-5.3-3.1-3-4.1-12-5.1-21.5-1.9-17-4-36-18.5-39-11.4-2.3-17.5-15.3-23.4-27.9-4.4-9.5-8.7-18.5-15-21.8-9.3-4.7-14 4.3-18.5 13-4.2 8-9 17.2-17.6 18.2-14.4 1.8-20.5-6.5-26-13.7-3.1-4.3-5.9-8-10-9.1a1.6 1.6 0 0 0-1.8 1.1v101L384 325.5s-1.2-52-1-51.8Z" fill="url(#w)"/><g style="mix-blend-mode:soft-light" opacity=".5" filter="url(#x)"><path d="M379.5 274.5a1.5 1.5 0 0 0 1.4-2.1c-.2-.3-.4-.6-.7-.7-13-7-18.8-19.6-24.4-31.7-4.6-9.8-8.9-19-16.7-23.7a46.2 46.2 0 0 0-19-6.5c-4.5-.7-7.8-1.2-12-5.3-3.2-3-4.2-12-5.2-21.3-1.8-16.7-3.9-35.7-18.3-38.6-11.2-2.3-17.3-15.1-23-27.5-4.5-9.5-8.7-18.4-15-21.7-9.1-4.6-13.8 4.3-18.3 13-4.2 7.9-8.9 17-17.4 18-14.3 1.6-20.3-6.5-25.6-13.7-3.2-4.3-6-8-10-9a1.5 1.5 0 0 0-1.8 1.2 1.5 1.5 0 0 0 1.1 1.8c3 .7 5.4 4 8.2 7.8 5.6 7.5 12.5 16.8 28.5 14.8 10.1-1.2 15.2-11 19.7-19.6 5-9.5 8.1-14.7 14.2-11.6 5.4 2.8 9.4 11.2 13.6 20.2 5.9 12.5 12.5 26.6 25.2 29.2 12.3 2.5 14.2 20.3 16 36 1.1 10.4 2.1 19.3 6 23.1 5 4.8 9.1 5.4 13.8 6.1 6.3.7 12.4 2.8 17.8 6.2 7 4.1 11.2 13 15.5 22.4 5.6 12 12 25.5 25.8 33l.6.2Z" fill="#ADB3D8"/></g><path d="M309.1 257.4a.6.6 0 0 0 .6-.6v-2.3a.6.6 0 0 0-1.1 0v2.3a.6.6 0 0 0 .5.6Zm0-5.7a.6.6 0 0 0 .6-.6v-2.3a.6.6 0 0 0-.6-.5.6.6 0 0 0-.5.5v2.3a.6.6 0 0 0 .5.6Zm0-5.7a.6.6 0 0 0 .6-.6v-2.3a.6.6 0 0 0-.6-.5.6.6 0 0 0-.5.5v2.3a.6.6 0 0 0 .5.6Zm0-5.7a.6.6 0 0 0 .6-.6v-2.2a.6.6 0 0 0-.6-.6.6.6 0 0 0-.5.6v2.2a.6.6 0 0 0 .5.6Zm0-5.7a.6.6 0 0 0 .6-.6v-2.2a.6.6 0 0 0-1-.4l-.1.4v2.2a.6.6 0 0 0 .5.6Zm0-5.7a.6.6 0 0 0 .6-.5V226a.6.6 0 0 0-1-.4l-.1.4v2.3a.6.6 0 0 0 .5.5Zm0-5.7a.6.6 0 0 0 .6-.5v-2.3a.6.6 0 0 0-1-.4l-.1.4v2.3a.6.6 0 0 0 .5.5Zm0-5.7a.6.6 0 0 0 .6-.5v-2.3a.6.6 0 0 0-1.1 0v2.3a.6.6 0 0 0 .5.5Zm0-5.6a.6.6 0 0 0 .6-.6V209a.6.6 0 0 0-1.1 0v2.3a.6.6 0 0 0 .5.6ZM371.7 293.5a.6.6 0 0 0 .6-.6v-2.2a.6.6 0 0 0-1.1 0v2.2a.6.6 0 0 0 .5.6Zm0-5.7a.6.6 0 0 0 .6-.5V285a.6.6 0 0 0-1.1 0v2.3a.6.6 0 0 0 .5.5Zm0-5.7a.6.6 0 0 0 .6-.5v-2.3a.6.6 0 0 0-1.1 0v2.3a.6.6 0 0 0 .5.5ZM340.5 274.8a.6.6 0 0 0 .6-.6v-2.3a.6.6 0 0 0-1.1 0v2.3a.6.6 0 0 0 .5.6Zm0-5.7a.6.6 0 0 0 .6-.6v-2.3a.6.6 0 0 0-1.1 0v2.3a.6.6 0 0 0 .5.6Zm0-5.7a.6.6 0 0 0 .6-.6v-2.3a.6.6 0 0 0-1.1 0v2.3a.6.6 0 0 0 .5.6Zm0-5.7a.6.6 0 0 0 .6-.6v-2.3a.6.6 0 0 0-.6-.5.6.6 0 0 0-.5.5v2.3a.6.6 0 0 0 .5.6Zm0-5.7a.6.6 0 0 0 .6-.6v-2.2a.6.6 0 0 0-.6-.6.6.6 0 0 0-.5.6v2.2a.6.6 0 0 0 .5.6Zm0-5.7a.6.6 0 0 0 .6-.6v-2.2a.6.6 0 0 0-.6-.6.6.6 0 0 0-.5.6v2.2a.6.6 0 0 0 .5.6Zm0-5.7a.6.6 0 0 0 .6-.5v-2.3a.6.6 0 0 0-1.1 0v2.3a.6.6 0 0 0 .5.5Zm0-5.7a.6.6 0 0 0 .6-.5V232a.6.6 0 0 0-1.1 0v2.3a.6.6 0 0 0 .5.5ZM278 239.6a.6.6 0 0 0 .5-.6v-2.3a.6.6 0 0 0-.5-.5.6.6 0 0 0-.6.5v2.3a.6.6 0 0 0 .6.6Zm0-5.7a.6.6 0 0 0 .5-.6V231a.6.6 0 0 0-.5-.5.6.6 0 0 0-.6.5v2.3a.6.6 0 0 0 .6.6Zm0-5.7c.1 0 .3 0 .4-.2l.1-.4v-2.2a.6.6 0 0 0-.5-.6.6.6 0 0 0-.6.6v2.2c0 .2 0 .3.2.4l.4.2Zm0-5.7c.1 0 .3 0 .4-.2l.1-.4v-2.2a.6.6 0 0 0-1-.4l-.1.4v2.2c0 .2 0 .3.2.4 0 .2.2.2.4.2Zm0-5.7.4-.1.1-.4V214a.6.6 0 0 0-1-.4l-.1.4v2.3c0 .1 0 .3.2.4l.4.1Zm0-5.7a.6.6 0 0 0 .5-.5v-2.3a.6.6 0 0 0-1-.4l-.1.4v2.3a.6.6 0 0 0 .6.5Zm0-5.7a.6.6 0 0 0 .5-.5v-2.3a.6.6 0 0 0-1-.4l-.1.4v2.3a.6.6 0 0 0 .6.5Zm0-5.6a.6.6 0 0 0 .5-.6v-2.3a.6.6 0 0 0-1-.4l-.1.4v2.3a.6.6 0 0 0 .6.6Zm0-5.7a.6.6 0 0 0 .5-.6v-2.3a.6.6 0 0 0-.5-.5.6.6 0 0 0-.6.5v2.3a.6.6 0 0 0 .6.6Zm0-5.7a.6.6 0 0 0 .5-.6v-2.3a.6.6 0 0 0-.5-.5.6.6 0 0 0-.6.5v2.3a.6.6 0 0 0 .6.6Zm0-5.7c.1 0 .3 0 .4-.2l.1-.4v-2.3a.6.6 0 0 0-.5-.5.6.6 0 0 0-.6.5v2.3c0 .2 0 .3.2.4l.4.2Zm0-5.7c.1 0 .3 0 .4-.2l.1-.4v-2.2a.6.6 0 0 0-1-.4l-.1.4v2.2c0 .2 0 .3.2.4l.4.2Zm0-5.7c.1 0 .3 0 .4-.2l.1-.4v-2.2a.6.6 0 0 0-1-.4l-.1.4v2.2c0 .2 0 .3.2.4 0 .2.2.2.4.2Zm0-5.7a.6.6 0 0 0 .5-.5v-2.3a.6.6 0 0 0-1-.4l-.1.4v2.3c0 .1 0 .3.2.4l.4.1Zm0-5.7a.6.6 0 0 0 .5-.5V157a.6.6 0 0 0-1-.4l-.1.4v2.3a.6.6 0 0 0 .6.5Zm0-5.7a.6.6 0 0 0 .5-.5v-2.3a.6.6 0 0 0-1-.4l-.1.4v2.3a.6.6 0 0 0 .6.5Zm0-5.6a.6.6 0 0 0 .5-.6v-2.3a.6.6 0 0 0-.5-.6.6.6 0 0 0-.6.6v2.3a.6.6 0 0 0 .6.6ZM246.8 221.5a.6.6 0 0 0 .5-.6v-2.2a.6.6 0 0 0-.5-.6.6.6 0 0 0-.6.6v2.2a.6.6 0 0 0 .6.6Zm0-5.7a.6.6 0 0 0 .5-.5V213a.6.6 0 0 0-.5-.6.6.6 0 0 0-.6.6v2.3a.6.6 0 0 0 .6.5Zm0-5.7a.6.6 0 0 0 .5-.5v-2.3a.6.6 0 0 0-.5-.6.6.6 0 0 0-.6.6v2.3a.6.6 0 0 0 .6.5Zm0-5.7a.6.6 0 0 0 .5-.5v-2.3a.6.6 0 0 0-1.1 0v2.3a.6.6 0 0 0 .6.5Zm0-5.6a.6.6 0 0 0 .5-.6v-2.3a.6.6 0 0 0-1.1 0v2.3a.6.6 0 0 0 .6.6Zm0-5.7a.6.6 0 0 0 .5-.6v-2.3a.6.6 0 0 0-1.1 0v2.3a.6.6 0 0 0 .6.6Zm0-5.7a.6.6 0 0 0 .5-.6v-2.3a.6.6 0 0 0-1.1 0v2.3a.6.6 0 0 0 .6.6Zm0-5.7a.6.6 0 0 0 .5-.6v-2.3a.6.6 0 0 0-1.1 0v2.3a.6.6 0 0 0 .6.6Zm0-5.7a.6.6 0 0 0 .5-.6v-2.2a.6.6 0 0 0-1.1 0v2.2a.6.6 0 0 0 .6.6Zm0-5.7a.6.6 0 0 0 .5-.6v-2.2a.6.6 0 0 0-.5-.6.6.6 0 0 0-.6.6v2.2a.6.6 0 0 0 .6.6Zm0-5.7a.6.6 0 0 0 .5-.5v-2.3a.6.6 0 0 0-.5-.6.6.6 0 0 0-.6.6v2.3a.6.6 0 0 0 .6.5Zm0-5.7a.6.6 0 0 0 .5-.5V156a.6.6 0 0 0-1.1 0v2.3a.6.6 0 0 0 .6.5Zm0-5.7a.6.6 0 0 0 .5-.5v-2.3a.6.6 0 0 0-1.1 0v2.3a.6.6 0 0 0 .6.5Zm0-5.6a.6.6 0 0 0 .5-.6v-2.3a.6.6 0 0 0-1.1 0v2.3a.6.6 0 0 0 .6.6Zm0-5.7a.6.6 0 0 0 .5-.6V139a.6.6 0 0 0-1.1 0v2.3a.6.6 0 0 0 .6.6Zm0-5.7a.6.6 0 0 0 .5-.6v-2.3a.6.6 0 0 0-1.1 0v2.3a.6.6 0 0 0 .6.6Zm0-5.7a.6.6 0 0 0 .5-.6v-2.3a.6.6 0 0 0-1.1 0v2.3a.6.6 0 0 0 .6.6Zm0-5.7a.6.6 0 0 0 .5-.6V122a.6.6 0 0 0-.5-.6.6.6 0 0 0-.6.6v2.2a.6.6 0 0 0 .6.6Zm0-5.7a.6.6 0 0 0 .5-.6v-2.2a.6.6 0 0 0-.5-.6.6.6 0 0 0-.6.6v2.2a.6.6 0 0 0 .6.6Zm0-5.7a.6.6 0 0 0 .5-.5v-2.3a.6.6 0 0 0-.5-.6.6.6 0 0 0-.6.6v2.3a.6.6 0 0 0 .6.5Zm0-5.7a.6.6 0 0 0 .5-.5v-2.3a.6.6 0 0 0-1.1 0v2.3a.6.6 0 0 0 .6.5ZM215.6 202.7l.4-.2.2-.4v-2.3a.6.6 0 0 0-.6-.6.6.6 0 0 0-.6.6v2.3a.6.6 0 0 0 .6.6Zm0-5.7c.1 0 .3 0 .4-.2l.2-.4v-2.3a.6.6 0 0 0-.6-.5.6.6 0 0 0-.6.5v2.3a.6.6 0 0 0 .6.6Zm0-5.7c.1 0 .3 0 .4-.2l.2-.4v-2.3a.6.6 0 0 0-.6-.5.6.6 0 0 0-.6.5v2.3a.6.6 0 0 0 .6.6Zm0-5.7c.1 0 .3 0 .4-.2l.2-.4v-2.3l-.2-.4a.6.6 0 0 0-.8 0l-.2.4v2.3a.6.6 0 0 0 .6.6Zm0-5.7c.1 0 .3 0 .4-.2l.2-.4v-2.2l-.2-.4a.6.6 0 0 0-.8 0l-.2.4v2.2a.6.6 0 0 0 .6.6Zm0-5.7c.1 0 .3 0 .4-.2l.2-.4v-2.2l-.2-.4a.6.6 0 0 0-.8 0l-.2.4v2.2a.6.6 0 0 0 .6.6Zm0-5.7.4-.1.2-.4v-2.3a.6.6 0 1 0-1.2 0v2.3a.6.6 0 0 0 .6.5Zm0-5.7.4-.1.2-.4V160a.6.6 0 1 0-1.2 0v2.3a.6.6 0 0 0 .6.5Zm0-5.7a.6.6 0 0 0 .6-.5v-2.3a.6.6 0 1 0-1.2 0v2.3a.6.6 0 0 0 .6.5Zm0-5.6.4-.2.2-.4v-2.3a.6.6 0 0 0-.6-.6.6.6 0 0 0-.6.6v2.3a.6.6 0 0 0 .6.6Zm0-5.7c.1 0 .3 0 .4-.2l.2-.4v-2.3a.6.6 0 0 0-.6-.5.6.6 0 0 0-.6.5v2.3a.6.6 0 0 0 .6.6Zm0-5.7c.1 0 .3 0 .4-.2l.2-.4v-2.3l-.2-.4a.6.6 0 0 0-1 .4v2.3a.6.6 0 0 0 .6.6Zm0-5.7c.1 0 .3 0 .4-.2l.2-.4v-.5a.6.6 0 0 0-.6-.5.6.6 0 0 0-.6.5v.6a.6.6 0 0 0 .6.5ZM184.4 185a.6.6 0 0 0 .6-.6V182a.6.6 0 0 0-.6-.6.6.6 0 0 0-.6.6v2.3a.6.6 0 0 0 .6.5Zm0-5.8a.6.6 0 0 0 .6-.5v-2.3a.6.6 0 0 0-1.2 0v2.3a.6.6 0 0 0 .6.5Zm0-5.6a.6.6 0 0 0 .6-.6v-2.3a.6.6 0 0 0-1.2 0v2.3a.6.6 0 0 0 .6.6Zm0-5.7a.6.6 0 0 0 .6-.6V165a.6.6 0 0 0-1.2 0v2.3a.6.6 0 0 0 .6.6Zm0-5.7a.6.6 0 0 0 .6-.6v-2.3a.6.6 0 0 0-1.2 0v2.3a.6.6 0 0 0 .6.6Zm0-5.7a.6.6 0 0 0 .6-.6v-2.3a.6.6 0 0 0-1.2 0v2.3a.6.6 0 0 0 .6.6Zm0-5.7a.6.6 0 0 0 .6-.6V148a.6.6 0 0 0-1.2 0v2.2a.6.6 0 0 0 .6.6Zm0-5.7a.6.6 0 0 0 .6-.6v-2.2a.6.6 0 0 0-.6-.6.6.6 0 0 0-.6.6v2.2a.6.6 0 0 0 .6.6Zm0-5.7a.6.6 0 0 0 .6-.5v-2.3a.6.6 0 0 0-.6-.6.6.6 0 0 0-.6.6v2.3a.6.6 0 0 0 .6.5Zm0-5.7a.6.6 0 0 0 .6-.5.6.6 0 0 0-.6-.6.6.6 0 0 0-.5.6.6.6 0 0 0 .5.5Z" fill="#25054D" style="mix-blend-mode:screen"/><path d="m241.5 237.7 9.9 5.5V98.4l-6-3-4 .3v142Z" fill="url(#y)"/><path d="M381.6 274.5a1.5 1.5 0 0 0 1.6-1.4 1.5 1.5 0 0 0-.8-1.5c-13.1-7-19-19.7-24.7-32-4.6-9.8-9-19.2-16.9-23.8a46.4 46.4 0 0 0-19.1-6.7c-4.6-.7-8-1.1-12.3-5.3-3.1-3-4.1-12-5.1-21.5-1.9-17-4-36-18.5-39-11.4-2.3-17.5-15.3-23.4-27.9-4.4-9.5-8.7-18.5-15-21.8-9.3-4.7-14 4.3-18.5 13-4.2 8-9 17.2-17.6 18.2-14.4 1.8-20.5-6.5-26-13.7-3.1-4.3-5.9-8-10-9.1a1.6 1.6 0 0 0-1.8 1.1 1.5 1.5 0 0 0 1.1 1.9c3 .7 5.5 4 8.3 8 5.6 7.5 12.5 16.9 28.7 14.9 10.3-1.2 15.4-11.1 20-19.8 5-9.6 8.1-14.9 14.3-11.7 5.5 2.8 9.5 11.3 13.8 20.4 5.9 12.6 12.6 26.9 25.5 29.5 12.3 2.6 14.3 20.5 16 36.3 1.1 10.6 2.2 19.6 6.1 23.5 5 4.8 9.1 5.4 14 6.1 6.3.7 12.5 2.9 18 6.3 7 4.2 11.2 13 15.6 22.5 5.7 12.1 12 25.8 26 33.4.2.1.5.2.7.1Z" fill="url(#z)"/><g style="mix-blend-mode:color-dodge"><path style="mix-blend-mode:color-dodge" d="M210.8 125.5c-14.3 1.7-20.4-6.5-25.8-13.8-3.2-4.3-6-8-10.1-9a1.5 1.5 0 0 0-1.4.3 1.5 1.5 0 0 1 1.8-1c4.1.9 6.8 4.6 10 9 5.5 7.3 11.6 15.5 26 13.8 5.8-.7 9.8-5 13.1-10.3-3.3 5.5-7.5 10.3-13.6 11Z" fill="url(#A)"/><path style="mix-blend-mode:color-dodge" d="M231.2 108.7c1.4-2.6 2.6-5 3.8-6.8l-3.4 6.1a111.7 111.7 0 0 1-.4.7Z" fill="url(#B)"/><path style="mix-blend-mode:color-dodge" d="M382 272.3c-13.2-7-19-19.7-24.7-32-4.7-9.9-9-19.2-17-23.9a46.4 46.4 0 0 0-19-6.6c-4.6-.7-8-1.1-12.3-5.3-3.1-3-4.1-12-5.2-21.6-1.8-16.8-4-36-18.5-39-11.3-2.2-17.4-15.2-23.3-27.8-4.5-9.5-8.7-18.5-15.1-21.8-6.7-3.4-11 .5-14.6 6.2 3.6-6.1 8-10.4 15-6.8 6.4 3.2 10.7 12.2 15.1 21.8 6 12.5 12 25.5 23.4 27.8 14.5 2.9 16.6 22 18.5 39 1 9.5 2 18.5 5.1 21.5 4.3 4.2 7.7 4.7 12.3 5.3 6.8.8 13.3 3 19.1 6.7 8 4.7 12.3 14 16.9 23.9 5.7 12.2 11.6 24.9 24.7 32a1.5 1.5 0 0 1 .6 2c0 .2-.2.3-.3.4a1.5 1.5 0 0 0-.8-1.8Z" fill="url(#C)"/></g><g style="mix-blend-mode:color-dodge"><path style="mix-blend-mode:color-dodge" d="M251 229.3h-8L243 179l-.2-80a4 4 0 0 1 7.9 0l.1 80 .2 50.3Z" fill="url(#D)"/><path style="mix-blend-mode:color-dodge" d="m248.5 222.7.3-45.2v-1.6l.3-73.4c0-.6-.3-2.7-.8-3a2.1 2.1 0 0 0-1.8-1 2.1 2.1 0 0 0-1.9 1c-.4.9-.7 1.8-.7 2.8l.3 73.7v1.9l.3 42 4 2.8Z" fill="url(#E)"/><path style="mix-blend-mode:color-dodge" d="m246 216 .8-41.4.9-71.4a1.3 1.3 0 1 0-2.5 0l.4 71.4.4 41.4Z" fill="url(#F)"/></g><path d="M239 90.1a14.8 14.8 0 0 0 6.8 11.6c3.7 2.2 6.7.4 6.7-3.8a14.8 14.8 0 0 0-6.7-11.6C242 84 239 85.8 239 90Z" fill="#D4FD9F"/><g filter="url(#G)"><path d="M248.8 103.2c2.6 0 4.3-2.1 4.3-5.4a15.5 15.5 0 0 0-7-12c-1-.7-2.2-1-3.4-1-2.6 0-4.2 2-4.2 5.3a15.5 15.5 0 0 0 7 12c1 .7 2.1 1 3.3 1Zm-6-17.3c1 0 1.9.3 2.7.8a14.2 14.2 0 0 1 6.4 11.1c0 2.6-1.2 4.2-3.1 4.2-1 0-2-.3-2.8-.8a14.2 14.2 0 0 1-6.4-11.1c0-2.6 1.2-4.2 3.1-4.2Z" fill="#EBDEF3"/></g><g filter="url(#H)"><ellipse cx="245.9" cy="93.4" rx="6.2" ry="9.4" transform="rotate(-22.2 245.9 93.4)" fill="#fff"/></g><g style="mix-blend-mode:color-dodge" filter="url(#I)"><ellipse cx="245.9" cy="93.4" rx="6.2" ry="9.4" transform="rotate(-22.2 245.9 93.4)" fill="#fff"/></g><g opacity=".8"><path d="m93.1 263.5.3-.1 1-.6a.6.6 0 0 0-.6-1l-1 .6a.6.6 0 0 0-.2.8l.2.2h.3ZM83.3 269.3h.2l2-1.3a.5.5 0 0 0 .3-.3.5.5 0 0 0-.1-.4l-.1-.2a.5.5 0 0 0-.4 0h-.3l-2 1.1a.6.6 0 0 0-.1.8.5.5 0 0 0 .5.3Zm5-3h.2l2-1.2a.6.6 0 0 0-.6-1l-2 1.2a.5.5 0 0 0-.2.3.5.5 0 0 0 0 .5.5.5 0 0 0 .5.3ZM79.4 271.6h.2l1-.6a.5.5 0 0 0 .2-.4.5.5 0 0 0 0-.4.6.6 0 0 0-.8-.2l-1 .6a.5.5 0 0 0-.2.3.5.5 0 0 0 0 .4.6.6 0 0 0 .6.3ZM117 277.1h.2l1-.6.2-.3v-.5l-.2-.1a.6.6 0 0 0-.6 0l-1 .5a.6.6 0 0 0-.2.3.5.5 0 0 0 0 .5.6.6 0 0 0 .5.2ZM107 283l.4-.1 2-1.2a.6.6 0 0 0 .1-.8.5.5 0 0 0-.3-.2.5.5 0 0 0-.5 0l-2 1.2a.6.6 0 0 0-.2.6.6.6 0 0 0 .6.4Zm5-3h.3l2-1.2a.5.5 0 0 0 .2-.8.5.5 0 0 0-.4-.2.5.5 0 0 0-.4 0l-2 1.2a.6.6 0 0 0 .3 1ZM103.2 285.3h.2l1-.7a.6.6 0 0 0 .2-.7.6.6 0 0 0-.8-.2l-1 .6a.6.6 0 0 0 0 .9h.4ZM140.7 290.8h.3l1-.6a.6.6 0 0 0-.2-1h-.4l-1 .6a.6.6 0 0 0-.2.6.6.6 0 0 0 .5.4ZM130.9 296.6h.2l2-1.2a.6.6 0 0 0 .2-.8.6.6 0 0 0-.8-.2l-2 1.2a.6.6 0 0 0-.2.6c0 .2.1.3.2.3l.4.1Zm4.9-2.9h.3l2-1.2a.6.6 0 0 0 .2-.3.6.6 0 0 0-.4-.7h-.4l-2 1.2-.2.3a.6.6 0 0 0 .5.8ZM127 299l.2-.1 1-.6a.6.6 0 0 0 .2-.7.6.6 0 0 0-.8-.2l-1 .5a.6.6 0 0 0 .3 1ZM164.5 304.5l.3-.1 1-.6a.5.5 0 0 0 .1-.7.6.6 0 0 0-.7-.2l-1 .5a.6.6 0 0 0-.2.8.5.5 0 0 0 .5.3ZM154.7 310.3h.2l2-1.2a.6.6 0 1 0-.6-1l-2 1.2a.5.5 0 0 0-.2.3.5.5 0 0 0 0 .4.6.6 0 0 0 .6.3Zm4.9-2.9h.3l2-1.2a.6.6 0 0 0 .2-.4.5.5 0 0 0 0-.4l-.4-.3-.4.1-2 1.2a.6.6 0 0 0 .3 1ZM150.8 312.6h.2l1-.6a.6.6 0 0 0 .2-.8.5.5 0 0 0-.4-.2.5.5 0 0 0-.4 0l-1 .6a.6.6 0 0 0 .4 1ZM188.3 318.2l.3-.1 1-.6a.6.6 0 0 0 .1-.8.6.6 0 0 0-.7-.1l-1 .5-.2.4v.4l.2.2h.3ZM178.5 324h.2l2-1.3a.6.6 0 0 0 .3-.5.6.6 0 0 0-.2-.4.6.6 0 0 0-.6 0l-2 1.1a.6.6 0 0 0-.2.8.6.6 0 0 0 .5.3Zm4.9-3h.3l2-1.2a.6.6 0 0 0 .1-.7.6.6 0 0 0-.7-.2l-2 1.1a.6.6 0 0 0-.2.8.6.6 0 0 0 .5.3ZM174.6 326.3h.2l1-.6a.6.6 0 0 0 0-1 .5.5 0 0 0-.4 0h-.2l-1 .6-.2.3v.4a.6.6 0 0 0 .6.3ZM212.1 331.8h.3l1-.6a.6.6 0 0 0 .1-.8.6.6 0 0 0-.7-.2l-1 .6a.6.6 0 0 0-.2.8.5.5 0 0 0 .5.2ZM202.3 337.7l.2-.1 2-1.2a.6.6 0 0 0-.5-1l-2 1.2a.6.6 0 0 0 0 1h.3Zm4.9-3h.3l2-1.2a.6.6 0 0 0 .1-.8.6.6 0 0 0-.7-.2l-2 1.2a.6.6 0 0 0-.2.4.5.5 0 0 0 0 .4l.2.2h.3ZM198.4 340l.2-.1 1-.6.2-.1a.6.6 0 0 0 0-.4v-.2a.5.5 0 0 0-.6-.3h-.2l-1 .7-.2.2a.5.5 0 0 0 .6.8ZM236 345.5h.2l1-.6a.6.6 0 0 0 .1-.8.6.6 0 0 0-.7-.2l-1 .6a.6.6 0 0 0 0 1h.3ZM226 351.3h.3l2-1.1a.6.6 0 0 0 .2-.8.6.6 0 0 0-.7-.2l-2 1.2a.6.6 0 0 0 0 .9l.3.1Zm5-2.9h.3l2-1.3a.6.6 0 0 0 0-.9.5.5 0 0 0-.4 0h-.2l-2 1.2a.6.6 0 0 0-.2.7.6.6 0 0 0 .5.3ZM222.2 353.7l.2-.1 1-.6.3-.3-.1-.4a.6.6 0 0 0-.8-.2l-1 .5a.6.6 0 0 0 0 1h.4Z" fill="#342CA0" style="mix-blend-mode:screen"/></g><path d="M251.8 300v-2l-35.4-53.6-24-21-24-42.7-20.9-23.2-1.2 1 20.8 23.2 24 42.8.3.1 23.8 21 36.6 54.4Z" fill="#B086CC" style="mix-blend-mode:multiply" opacity=".6"/><path opacity=".7" d="M80.2 246v-87l14.3-.4 23.3 7.3 24.8-11 24.2 27 24 42.7 24 21 36.7 54.5v47c0 1.6-.5 3.2-1.5 3.2-.4 0-.9-.2-1.3-.5L85 255.3c-2.6-1.5-4.8-5.8-4.8-9.3Z" fill="url(#J)"/><path d="m251 300.5 1-.7-36.8-54.7-24-21-24-42.6-24.5-27.3-25 11.1-23-7.3h-.2l-14.3.4v1.2l14.3-.4 23.3 7.4 24.6-11 23.9 26.6 24 42.7h.1l24 21 36.7 54.6Z" fill="url(#K)"/><path d="M190.9 314.3a.6.6 0 0 0 .5-.6v-2.3l-.1-.4a.6.6 0 0 0-.8 0l-.2.4v2.3a.6.6 0 0 0 .6.6Zm0-5.7a.6.6 0 0 0 .5-.6v-2.3l-.1-.4a.6.6 0 0 0-.8 0l-.2.4v2.3a.6.6 0 0 0 .6.6Zm0-5.7c.1 0 .3 0 .4-.2l.1-.4V300l-.1-.4a.6.6 0 0 0-.8 0l-.2.4v2.3c0 .2 0 .3.2.4l.4.2Zm0-5.7c.1 0 .3 0 .4-.2l.1-.4v-2.3a.6.6 0 1 0-1.1 0v2.3c0 .2 0 .3.2.4l.4.2Zm0-5.7c.1 0 .3 0 .4-.2l.1-.4v-2.2a.6.6 0 1 0-1.1 0v2.2c0 .2 0 .3.2.4l.4.2Zm0-5.7a.6.6 0 0 0 .5-.6V283a.6.6 0 0 0-.5-.6.6.6 0 0 0-.6.6v2.2a.6.6 0 0 0 .6.6Zm0-5.7a.6.6 0 0 0 .5-.5v-2.3a.6.6 0 0 0-.5-.6.6.6 0 0 0-.6.6v2.3a.6.6 0 0 0 .6.5Zm0-5.7a.6.6 0 0 0 .5-.5v-2.3a.6.6 0 0 0-.5-.6.6.6 0 0 0-.6.6v2.3a.6.6 0 0 0 .6.5Zm0-5.7a.6.6 0 0 0 .5-.5v-2.3l-.1-.4a.6.6 0 0 0-1 .4v2.3a.6.6 0 0 0 .6.5Zm0-5.6a.6.6 0 0 0 .5-.6v-2.3l-.1-.4a.6.6 0 0 0-.8 0l-.2.4v2.3a.6.6 0 0 0 .6.6Zm0-5.7a.6.6 0 0 0 .5-.6v-2.3l-.1-.4a.6.6 0 0 0-.8 0l-.2.4v2.3a.6.6 0 0 0 .6.6Zm0-5.7c.1 0 .3 0 .4-.2l.1-.4v-2.3a.6.6 0 1 0-1.1 0v2.3c0 .2 0 .3.2.4l.4.2Zm0-5.7c.1 0 .3 0 .4-.2l.1-.4v-2.3a.6.6 0 1 0-1.1 0v2.3c0 .2 0 .3.2.4l.4.2Zm0-5.7a.6.6 0 0 0 .5-.6v-2.2a.6.6 0 1 0-1.1 0v2.2c0 .2 0 .3.2.4l.4.2Zm0-5.7a.6.6 0 0 0 .5-.6v-2.2a.6.6 0 0 0-.5-.6.6.6 0 0 0-.6.6v2.2a.6.6 0 0 0 .6.6ZM239.4 342.3a.6.6 0 0 0 .6-.6v-2.3a.6.6 0 0 0-.6-.5.6.6 0 0 0-.5.5v2.3a.6.6 0 0 0 .5.6Zm0-5.7a.6.6 0 0 0 .6-.6v-2.3a.6.6 0 0 0-.6-.5.6.6 0 0 0-.5.5v2.3a.6.6 0 0 0 .5.6Zm0-5.7a.6.6 0 0 0 .6-.6V328a.6.6 0 0 0-.6-.5.6.6 0 0 0-.5.5v2.3a.6.6 0 0 0 .5.6Zm0-5.7a.6.6 0 0 0 .6-.6v-2.2c0-.2 0-.3-.2-.4a.6.6 0 0 0-.4-.2.6.6 0 0 0-.5.6v2.2a.6.6 0 0 0 .5.6Zm0-5.7a.6.6 0 0 0 .6-.6v-2.2a.6.6 0 0 0-.6-.6.6.6 0 0 0-.5.6v2.2a.6.6 0 0 0 .5.6Zm0-5.7a.6.6 0 0 0 .6-.5V311a.6.6 0 0 0-.6-.6.6.6 0 0 0-.5.6v2.3a.6.6 0 0 0 .5.5Zm0-5.7a.6.6 0 0 0 .6-.5v-2.3a.6.6 0 0 0-.6-.6.6.6 0 0 0-.5.6v2.3a.6.6 0 0 0 .5.5Zm0-5.7a.6.6 0 0 0 .6-.5v-2.3a.6.6 0 0 0-.6-.6.6.6 0 0 0-.5.6v2.3a.6.6 0 0 0 .5.5Zm0-5.6a.6.6 0 0 0 .6-.6v-2.3a.6.6 0 0 0-.6-.6.6.6 0 0 0-.5.6v2.3a.6.6 0 0 0 .5.6Zm0-5.7a.6.6 0 0 0 .6-.6v-2.3a.6.6 0 0 0-.6-.5.6.6 0 0 0-.5.5v2.3a.6.6 0 0 0 .5.6ZM215.2 327.7a.6.6 0 0 0 .6-.5v-2.3a.6.6 0 0 0-.6-.6.6.6 0 0 0-.5.6v2.3a.6.6 0 0 0 .5.5Zm0-5.7a.6.6 0 0 0 .6-.5v-2.3a.6.6 0 0 0-1-.4l-.1.4v2.3a.6.6 0 0 0 .5.5Zm0-5.7a.6.6 0 0 0 .6-.5v-2.3a.6.6 0 0 0-1-.4l-.1.4v2.3a.6.6 0 0 0 .5.5Zm0-5.6a.6.6 0 0 0 .6-.6v-2.3a.6.6 0 0 0-1.1 0v2.3a.6.6 0 0 0 .5.6Zm0-5.7a.6.6 0 0 0 .6-.6v-2.3a.6.6 0 0 0-1.1 0v2.3a.6.6 0 0 0 .5.6Zm0-5.7a.6.6 0 0 0 .6-.6v-2.3a.6.6 0 0 0-1.1 0v2.3a.6.6 0 0 0 .5.6Zm0-5.7a.6.6 0 0 0 .6-.6v-2.3a.6.6 0 0 0-.6-.5.6.6 0 0 0-.5.5v2.3a.6.6 0 0 0 .5.6Zm0-5.7a.6.6 0 0 0 .6-.6v-2.2a.6.6 0 0 0-.6-.6.6.6 0 0 0-.5.6v2.2a.6.6 0 0 0 .5.6Zm0-5.7a.6.6 0 0 0 .6-.6v-2.2a.6.6 0 0 0-.6-.6.6.6 0 0 0-.5.6v2.2a.6.6 0 0 0 .5.6Zm0-5.7a.6.6 0 0 0 .6-.5v-2.3a.6.6 0 0 0-1-.4l-.1.4v2.3a.6.6 0 0 0 .5.5Zm0-5.7a.6.6 0 0 0 .6-.5V268a.6.6 0 0 0-1-.4l-.1.4v2.3a.6.6 0 0 0 .5.5Zm0-5.7a.6.6 0 0 0 .6-.5v-2.3a.6.6 0 0 0-1.1 0v2.3a.6.6 0 0 0 .5.5Zm0-5.6a.6.6 0 0 0 .6-.6v-2.3a.6.6 0 0 0-1.1 0v2.3a.6.6 0 0 0 .5.6Zm0-5.7a.6.6 0 0 0 .6-.6v-2.3a.6.6 0 0 0-1.1 0v2.3a.6.6 0 0 0 .5.6ZM166.7 300.4a.6.6 0 0 0 .6-.5v-2.3a.6.6 0 0 0-.6-.6.6.6 0 0 0-.6.6v2.3a.6.6 0 0 0 .6.5Zm0-5.6a.6.6 0 0 0 .6-.6v-2.3a.6.6 0 0 0-1.2 0v2.3a.6.6 0 0 0 .6.6Zm0-5.7a.6.6 0 0 0 .6-.6v-2.3a.6.6 0 0 0-1.2 0v2.3a.6.6 0 0 0 .6.6Zm0-5.7a.6.6 0 0 0 .6-.6v-2.3a.6.6 0 0 0-1.2 0v2.3a.6.6 0 0 0 .6.6Zm0-5.7a.6.6 0 0 0 .6-.6v-2.3a.6.6 0 0 0-1.2 0v2.3a.6.6 0 0 0 .6.6Zm0-5.7a.6.6 0 0 0 .6-.6v-2.2a.6.6 0 0 0-1.2 0v2.2a.6.6 0 0 0 .6.6Zm0-5.7a.6.6 0 0 0 .6-.6v-2.2a.6.6 0 0 0-.6-.6.6.6 0 0 0-.6.6v2.2a.6.6 0 0 0 .6.6Zm0-5.7a.6.6 0 0 0 .6-.6v-2.2a.6.6 0 0 0-.6-.6.6.6 0 0 0-.6.6v2.3c0 .1 0 .2.2.3.1.2.2.2.4.2Zm0-5.7a.6.6 0 0 0 .6-.5V252a.6.6 0 0 0-.6-.6.6.6 0 0 0-.6.6v2.3a.6.6 0 0 0 .6.5Zm0-5.7a.6.6 0 0 0 .6-.5v-2.3a.6.6 0 0 0-1.2 0v2.3a.6.6 0 0 0 .6.5Zm0-5.6a.6.6 0 0 0 .6-.6v-2.3a.6.6 0 0 0-1.2 0v2.3a.6.6 0 0 0 .6.6Zm0-5.7a.6.6 0 0 0 .6-.6V235a.6.6 0 0 0-1.2 0v2.3a.6.6 0 0 0 .6.6Zm0-5.7a.6.6 0 0 0 .6-.6v-2.3a.6.6 0 0 0-1.2 0v2.3a.6.6 0 0 0 .6.6Zm0-5.7a.6.6 0 0 0 .6-.6v-2.3a.6.6 0 0 0-1.2 0v2.3a.6.6 0 0 0 .6.6Zm0-5.7a.6.6 0 0 0 .6-.6V218a.6.6 0 0 0-1.2 0v2.2a.6.6 0 0 0 .6.6Zm0-5.7a.6.6 0 0 0 .6-.6v-2.2a.6.6 0 0 0-.6-.6.6.6 0 0 0-.6.6v2.2a.6.6 0 0 0 .6.6Zm0-5.7a.6.6 0 0 0 .6-.5v-2.3a.6.6 0 0 0-.6-.6.6.6 0 0 0-.6.6v2.3a.6.6 0 0 0 .6.5Zm0-5.7a.6.6 0 0 0 .6-.5v-2.3a.6.6 0 0 0-1.2 0v2.3a.6.6 0 0 0 .6.5Zm0-5.7a.6.6 0 0 0 .6-.5v-2.3a.6.6 0 0 0-1.2 0v2.3a.6.6 0 0 0 .6.5Zm0-5.6a.6.6 0 0 0 .6-.6v-2.3a.6.6 0 0 0-1.2 0v2.3a.6.6 0 0 0 .6.6ZM142.5 286.4c.2 0 .3 0 .4-.2l.2-.4v-2.2a.6.6 0 1 0-1.2 0v2.2a.6.6 0 0 0 .6.6Zm0-5.7a.6.6 0 0 0 .6-.5v-2.3a.6.6 0 0 0-.6-.6.6.6 0 0 0-.6.6v2.3a.6.6 0 0 0 .6.5Zm0-5.7a.6.6 0 0 0 .6-.5v-2.3a.6.6 0 0 0-.6-.6.6.6 0 0 0-.6.6v2.3a.6.6 0 0 0 .6.5Zm0-5.7a.6.6 0 0 0 .6-.5v-2.3a.6.6 0 0 0-.6-.6.6.6 0 0 0-.6.6v2.3a.6.6 0 0 0 .6.5Zm0-5.6a.6.6 0 0 0 .6-.6v-2.3c0-.1 0-.3-.2-.4a.6.6 0 0 0-1 .4v2.3a.6.6 0 0 0 .6.6Zm0-5.7a.6.6 0 0 0 .6-.6v-2.3c0-.1 0-.3-.2-.4a.6.6 0 0 0-.8 0l-.2.4v2.3a.6.6 0 0 0 .6.6Zm0-5.7c.2 0 .3 0 .4-.2l.2-.4v-2.3c0-.1 0-.3-.2-.4a.6.6 0 0 0-.8 0l-.2.4v2.3a.6.6 0 0 0 .6.6Zm0-5.7c.2 0 .3 0 .4-.2l.2-.4v-2.3a.6.6 0 1 0-1.2 0v2.3a.6.6 0 0 0 .6.6Zm0-5.7c.2 0 .3 0 .4-.2l.2-.4v-2.2a.6.6 0 1 0-1.2 0v2.2a.6.6 0 0 0 .6.6Zm0-5.7a.6.6 0 0 0 .6-.6v-2.2a.6.6 0 1 0-1.2 0v2.2a.6.6 0 0 0 .6.6Zm0-5.7a.6.6 0 0 0 .6-.5v-2.3a.6.6 0 0 0-.6-.6.6.6 0 0 0-.6.6v2.3a.6.6 0 0 0 .6.5Zm0-5.7a.6.6 0 0 0 .6-.5V221a.6.6 0 0 0-.6-.6.6.6 0 0 0-.6.6v2.3a.6.6 0 0 0 .6.5Zm0-5.7a.6.6 0 0 0 .6-.5v-2.3c0-.1 0-.3-.2-.4a.6.6 0 0 0-1 .4v2.3a.6.6 0 0 0 .6.5Zm0-5.6a.6.6 0 0 0 .6-.6v-2.3c0-.1 0-.3-.2-.4a.6.6 0 0 0-.8 0l-.2.4v2.3a.6.6 0 0 0 .6.6Zm0-5.7a.6.6 0 0 0 .6-.6v-2.3c0-.1 0-.3-.2-.4a.6.6 0 0 0-.8 0l-.2.4v2.3a.6.6 0 0 0 .6.6Zm0-5.7c.2 0 .3 0 .4-.2l.2-.4v-2.3c0-.1 0-.3-.2-.4a.6.6 0 0 0-.8 0l-.2.4v2.3a.6.6 0 0 0 .6.6Zm0-5.7c.2 0 .3 0 .4-.2l.2-.4v-2.3a.6.6 0 1 0-1.2 0v2.3a.6.6 0 0 0 .6.6Zm0-5.7a.6.6 0 0 0 .6-.6V187a.6.6 0 1 0-1.2 0v2.2a.6.6 0 0 0 .6.6Zm0-5.7a.6.6 0 0 0 .6-.6v-2.2a.6.6 0 0 0-.6-.6.6.6 0 0 0-.6.6v2.2a.6.6 0 0 0 .6.6Zm0-5.7a.6.6 0 0 0 .6-.5v-2.3a.6.6 0 0 0-.6-.6.6.6 0 0 0-.6.6v2.3a.6.6 0 0 0 .6.5Zm0-5.7a.6.6 0 0 0 .6-.5v-2.3a.6.6 0 0 0-.6-.6.6.6 0 0 0-.6.6v2.3a.6.6 0 0 0 .6.5Zm0-5.7a.6.6 0 0 0 .6-.5V164c0-.1 0-.3-.2-.4a.6.6 0 0 0-.8 0l-.2.4v2.3a.6.6 0 0 0 .6.5Zm0-5.6a.6.6 0 0 0 .6-.6v-2.3c0-.1 0-.3-.2-.4a.6.6 0 0 0-.8 0l-.2.4v2.3a.6.6 0 0 0 .6.6ZM118.3 271.8a.6.6 0 0 0 .6-.6V269a.6.6 0 0 0-.6-.5.6.6 0 0 0-.6.5v2.3a.6.6 0 0 0 .6.6Zm0-5.7a.6.6 0 0 0 .6-.6v-2.2a.6.6 0 0 0-.6-.6.6.6 0 0 0-.6.6v2.2a.6.6 0 0 0 .6.6Zm0-5.7a.6.6 0 0 0 .6-.6v-2.2a.6.6 0 0 0-.6-.6.6.6 0 0 0-.6.6v2.2a.6.6 0 0 0 .6.6Zm0-5.7a.6.6 0 0 0 .6-.5v-2.3a.6.6 0 0 0-1.2 0v2.3a.6.6 0 0 0 .6.5Zm0-5.7a.6.6 0 0 0 .6-.5v-2.3a.6.6 0 0 0-1.2 0v2.3a.6.6 0 0 0 .6.5Zm0-5.7a.6.6 0 0 0 .6-.5v-2.3a.6.6 0 0 0-1.2 0v2.3a.6.6 0 0 0 .6.5Zm0-5.6a.6.6 0 0 0 .6-.6v-2.3a.6.6 0 0 0-1.2 0v2.3a.6.6 0 0 0 .6.6Zm0-5.7a.6.6 0 0 0 .6-.6v-2.3a.6.6 0 0 0-1.2 0v2.3a.6.6 0 0 0 .6.6Zm0-5.7a.6.6 0 0 0 .6-.6v-2.3a.6.6 0 0 0-1.2 0v2.3a.6.6 0 0 0 .6.6Zm0-5.7a.6.6 0 0 0 .6-.6v-2.3a.6.6 0 0 0-.6-.5.6.6 0 0 0-.6.5v2.3a.6.6 0 0 0 .6.6Zm0-5.7a.6.6 0 0 0 .6-.6v-2.2a.6.6 0 0 0-.6-.6.6.6 0 0 0-.6.6v2.2a.6.6 0 0 0 .6.6Zm0-5.7a.6.6 0 0 0 .6-.6v-2.2a.6.6 0 0 0-1.2 0v2.2a.6.6 0 0 0 .6.6Zm0-5.7a.6.6 0 0 0 .6-.5v-2.3a.6.6 0 0 0-1.2 0v2.3a.6.6 0 0 0 .6.5Zm0-5.7a.6.6 0 0 0 .6-.5V195a.6.6 0 0 0-1.2 0v2.3a.6.6 0 0 0 .6.5Zm0-5.7a.6.6 0 0 0 .6-.5v-2.3a.6.6 0 0 0-1.2 0v2.3a.6.6 0 0 0 .6.5Zm0-5.6a.6.6 0 0 0 .6-.6v-2.3a.6.6 0 0 0-1.2 0v2.3a.6.6 0 0 0 .6.6Zm0-5.7a.6.6 0 0 0 .6-.6v-2.3a.6.6 0 0 0-1.2 0v2.3a.6.6 0 0 0 .6.6Zm0-5.7a.6.6 0 0 0 .6-.6v-2.3a.6.6 0 0 0-.6-.5.6.6 0 0 0-.6.5v2.3a.6.6 0 0 0 .6.6Zm0-5.7a.6.6 0 0 0 .6-.6v-.2a.6.6 0 0 0-.6-.5.6.6 0 0 0-.6.5v.2a.6.6 0 0 0 .6.6ZM94.2 258a.6.6 0 0 0 .5-.5v-2.3a.6.6 0 0 0-1.1 0v2.3a.6.6 0 0 0 .6.5Zm0-5.6a.6.6 0 0 0 .5-.6v-2.3a.6.6 0 0 0-1-.4l-.1.4v2.3a.6.6 0 0 0 .6.6Zm0-5.7a.6.6 0 0 0 .5-.6v-2.3a.6.6 0 0 0-1-.4l-.1.4v2.3a.6.6 0 0 0 .6.6Zm0-5.7a.6.6 0 0 0 .5-.6v-2.3a.6.6 0 0 0-1-.4l-.1.4v2.3a.6.6 0 0 0 .6.6Zm0-5.7a.6.6 0 0 0 .5-.6v-2.3a.6.6 0 0 0-1-.4l-.1.4v2.3a.6.6 0 0 0 .6.6Zm0-5.7a.6.6 0 0 0 .5-.6v-2.2a.6.6 0 0 0-.5-.6.6.6 0 0 0-.6.6v2.2a.6.6 0 0 0 .6.6Zm0-5.7a.6.6 0 0 0 .5-.6v-2.2a.6.6 0 0 0-.5-.6.6.6 0 0 0-.6.6v2.2a.6.6 0 0 0 .6.6Zm0-5.7a.6.6 0 0 0 .5-.5v-2.3a.6.6 0 0 0-1.1 0v2.3a.6.6 0 0 0 .6.5Zm0-5.7a.6.6 0 0 0 .5-.5v-2.3a.6.6 0 0 0-1.1 0v2.3a.6.6 0 0 0 .6.5Zm0-5.7a.6.6 0 0 0 .5-.5V204a.6.6 0 0 0-1.1 0v2.3a.6.6 0 0 0 .6.5Zm0-5.6a.6.6 0 0 0 .5-.6v-2.3a.6.6 0 0 0-1-.4l-.1.4v2.3a.6.6 0 0 0 .6.6Zm0-5.7a.6.6 0 0 0 .5-.6v-2.3a.6.6 0 0 0-1-.4l-.1.4v2.3a.6.6 0 0 0 .6.6Zm0-5.7a.6.6 0 0 0 .5-.6V187a.6.6 0 0 0-1-.4l-.1.4v2.3a.6.6 0 0 0 .6.6Zm0-5.7a.6.6 0 0 0 .5-.6v-2.3a.6.6 0 0 0-.5-.5.6.6 0 0 0-.6.5v2.3a.6.6 0 0 0 .6.6Zm0-5.7a.6.6 0 0 0 .5-.6v-2.2a.6.6 0 0 0-.5-.6.6.6 0 0 0-.6.6v2.2a.6.6 0 0 0 .6.6Zm0-5.7a.6.6 0 0 0 .5-.6V170a.6.6 0 0 0-.5-.6.6.6 0 0 0-.6.6v2.2a.6.6 0 0 0 .6.6Zm0-5.7a.6.6 0 0 0 .5-.5v-2.3a.6.6 0 0 0-1.1 0v2.3a.6.6 0 0 0 .6.5Z" fill="#fff" style="mix-blend-mode:screen" opacity=".1"/><path d="m140.7 276 5 3.7V158l-3-2-2 .3V276Z" fill="url(#L)"/><path d="M137.8 152.8a10.4 10.4 0 0 0 4.7 8.2c2.6 1.5 4.8.3 4.8-2.7a10.4 10.4 0 0 0-4.8-8.2c-2.6-1.5-4.7-.3-4.7 2.7Z" fill="#D4FD9F"/><g filter="url(#M)"><ellipse cx="142.7" cy="155.2" rx="5.9" ry="6.7" transform="rotate(-10.4 142.7 155.2)" fill="#fff"/></g><g filter="url(#N)"><path d="M144.6 162.2c2 0 3.2-1.5 3.2-4a11 11 0 0 0-5-8.6c-.7-.4-1.6-.7-2.4-.7-2 0-3.2 1.5-3.2 4a11 11 0 0 0 5 8.6c.8.4 1.6.7 2.4.7Zm-4.2-12.2c.6 0 1.3.3 1.8.6a9.8 9.8 0 0 1 4.5 7.7c0 1.7-.8 2.8-2 2.8-.7 0-1.3-.3-1.9-.6a9.8 9.8 0 0 1-4.4-7.7c0-1.7.7-2.8 2-2.8Z" fill="#fff"/></g><path d="M164.3 180.6a5.4 5.4 0 0 0 2.5 4.3c1.3.8 2.5.1 2.5-1.5a5.4 5.4 0 0 0-2.5-4.2c-1.4-.8-2.5-.1-2.5 1.4Z" fill="#ACF78F"/><path d="M115.1 164.3a5.4 5.4 0 0 0 2.5 4.3c1.3.7 2.4.1 2.4-1.4a5.4 5.4 0 0 0-2.4-4.3c-1.4-.7-2.5-.1-2.5 1.4Z" fill="#8CF184"/><path d="M91.3 158a5.4 5.4 0 0 0 2.4 4.2c1.4.8 2.5.1 2.5-1.4a5.4 5.4 0 0 0-2.5-4.2c-1.3-.8-2.4-.2-2.4 1.4Z" fill="#73DD74"/><path d="M189.3 225.9c-1-1.7-1-3.4 0-4 .9-.5 2.4.3 3.4 2 1 1.6 1 3.4 0 4-1 .5-2.5-.4-3.4-2Z" fill="#55C461"/><path d="M212.5 244.5a5.4 5.4 0 0 0 2.4 4.3c1.4.7 2.5.1 2.5-1.4a5.4 5.4 0 0 0-2.5-4.3c-1.3-.7-2.4-.1-2.4 1.4Z" fill="#3DB85A"/><path d="M237.9 282.3c-1-1.6-1-3.4 0-4 .9-.5 2.4.4 3.4 2 1 1.7 1 3.4 0 4-1 .5-2.5-.3-3.4-2Z" fill="#37CFC9"/><g opacity=".9" filter="url(#O)"><path d="m256.7 93.1-3-5.2-53 31.1-53 31.1a3 3 0 0 0-1.1 4.2 3 3 0 0 0 4 1l53.1-31 53-31.2Z" fill="url(#P)" style="mix-blend-mode:color-dodge"/></g><g opacity=".8"><path d="M15.7 312h.3l1-.6a.6.6 0 0 0 .1-.8.6.6 0 0 0-.7-.2l-1 .6a.6.6 0 0 0-.2.6.6.6 0 0 0 .5.4ZM5.2 318.2h.2l2.1-1.3a.6.6 0 0 0 .2-.7.6.6 0 0 0-.7-.2l-2.1 1.2a.6.6 0 0 0-.3.6.6.6 0 0 0 .6.4Zm5.2-3 .3-.2 2.1-1.2a.6.6 0 0 0-.1-1h-.4l-2.2 1.3a.6.6 0 0 0 .3 1ZM1 320.7l.3-.1 1-.6a.6.6 0 0 0 .2-.3.5.5 0 0 0 0-.4.6.6 0 0 0-.8-.2l-1 .5a.6.6 0 0 0 0 1H1ZM33.2 322.1h.3l1-.6a.6.6 0 0 0 .1-.8l-.3-.2H34l-1 .6a.5.5 0 0 0-.2.3.5.5 0 0 0 0 .5.5.5 0 0 0 .5.2ZM22.7 328.3h.2l2.2-1.3a.6.6 0 0 0 .2-.3.6.6 0 0 0-.4-.7h-.4l-2.1 1.3a.5.5 0 0 0-.3.6v.2a.6.6 0 0 0 .6.2Zm5.2-3 .3-.1 2.1-1.3a.6.6 0 0 0-.1-1 .5.5 0 0 0-.4 0l-2.1 1.3-.3.3a.6.6 0 0 0 .5.7ZM18.5 330.8l.3-.1 1-.6a.6.6 0 0 0-.6-1l-1 .6a.6.6 0 0 0 0 1h.3ZM50.7 332.2h.3l1-.6a.6.6 0 0 0 .2-.3.5.5 0 0 0 0-.5.6.6 0 0 0-.8-.2l-1 .6a.6.6 0 0 0 0 1h.3ZM40.2 338.5l.3-.1 2-1.3a.6.6 0 0 0-.1-1H42l-2.1 1.3a.6.6 0 0 0-.2.8s0 .2.2.2h.3Zm5.2-3.1.3-.1 2.1-1.3a.6.6 0 0 0-.5-1l-2.1 1.3a.6.6 0 0 0 .2 1ZM36 340.9h.3l1-.6a.6.6 0 0 0 0-1 .6.6 0 0 0-.4 0h-.2l-1 .6a.6.6 0 0 0-.1.7.5.5 0 0 0 .4.3ZM68.2 342.4l.3-.1 1-.6a.6.6 0 0 0 .2-.7.6.6 0 0 0-.8-.2l-1 .5a.5.5 0 0 0-.2.4.5.5 0 0 0 0 .4.6.6 0 0 0 .5.3ZM57.7 348.6l.3-.1 2-1.2a.6.6 0 0 0 .3-.4.5.5 0 0 0 0-.4l-.4-.3-.4.1-2.1 1.2a.6.6 0 0 0-.2.8.6.6 0 0 0 .5.3Zm5.3-3.1.2-.1 2.1-1.3a.6.6 0 1 0-.5-1l-2.1 1.3a.6.6 0 0 0 0 1h.3ZM53.6 351h.2l1-.6a.6.6 0 0 0-.6-1l-1 .6-.2.2a.6.6 0 0 0 .6.8ZM85.7 352.5l.3-.1 1-.6a.6.6 0 0 0 0-.9.5.5 0 0 0-.6 0l-1 .5a.6.6 0 0 0-.1.8.5.5 0 0 0 .4.3ZM75.2 358.7h.3l2-1.3a.6.6 0 0 0-.5-1l-2.1 1.3a.6.6 0 0 0 0 .9h.3Zm5.3-3.1h.2l2.1-1.3a.6.6 0 0 0 .2-.8.6.6 0 0 0-.3-.3.6.6 0 0 0-.4.1l-2.1 1.3a.6.6 0 0 0-.3.6.6.6 0 0 0 .6.4ZM71 361.1h.3l1-.6a.6.6 0 0 0-.6-1l-1 .6a.6.6 0 0 0 .4 1ZM103.2 362.6h.3l1-.7a.6.6 0 0 0-.4-1h-.2l-1 .7a.6.6 0 0 0-.2.6.6.6 0 0 0 .5.4ZM92.7 368.8h.3l2-1.3a.6.6 0 0 0 .1-1 .5.5 0 0 0-.6 0l-2 1.3a.6.6 0 0 0-.1.9l.3.1Zm5.3-3.1h.2l2.2-1.3a.5.5 0 0 0 .2-.4.5.5 0 0 0 0-.4.6.6 0 0 0-.8-.2l-2.1 1.3a.6.6 0 0 0-.3.6.6.6 0 0 0 .6.4ZM88.6 371.2h.2l1-.6a.6.6 0 0 0 .2-.8.6.6 0 0 0-.8-.2l-1 .6a.6.6 0 0 0 .4 1ZM120.7 372.7h.3l1-.6a.6.6 0 0 0-.6-1l-1 .6-.2.2a.5.5 0 0 0 .2.7l.3.1ZM110.2 379l.3-.2 2-1.2a.6.6 0 0 0-.3-1h-.2l-2 1.3a.6.6 0 0 0 .2 1Zm5.3-3.2h.3l2-1.3a.6.6 0 0 0 .3-.8.6.6 0 0 0-.8-.2l-2.1 1.3a.6.6 0 0 0-.2.7.6.6 0 0 0 .5.3ZM106 381.4l.4-.1 1-.6a.5.5 0 0 0 .2-.3.5.5 0 0 0 0-.4.6.6 0 0 0-.9-.2l-1 .5a.6.6 0 0 0-.1.8.6.6 0 0 0 .5.3Z" fill="#342CA0" style="mix-blend-mode:screen"/></g><g opacity=".9"><path d="m23 245.6-10 5.8 10 5.9 10-5.9-10-5.8Z" fill="url(#Q)"/><path d="m13 304.5 10 5.8v-53l-10-5.9v53Z" fill="url(#R)"/><path d="m23 310.3 10-5.8v-53l-10 5.7v53.1Z" fill="url(#S)"/></g><path style="mix-blend-mode:color-dodge" d="m33 251.4-10 5.4-10-5.4 9.7 6 .3 52.9.5-52.9 9.6-6Z" fill="url(#T)"/><g opacity=".9"><path d="M41.2 228.5 31 234.3l10 5.8 10.1-5.8-10-5.8Z" fill="url(#U)"/><path d="m31 315 10.2 5.8V240L31 234.3v80.6Z" fill="url(#V)"/><path d="m41.2 320.8 10-5.9v-80.6l-10 5.8v80.7Z" fill="url(#W)"/></g><path style="mix-blend-mode:color-dodge" d="m51.2 234.3-10 5.4-10.1-5.4 9.8 6 .3 80.5.4-80.5 9.6-6Z" fill="url(#X)"/><g opacity=".9"><path d="m59.1 198.9-10 5.8 10 5.8 10.1-5.8-10-5.8Z" fill="url(#Y)"/><path d="m49 325.4 10.1 5.8V210.5l-10-5.8v120.7Z" fill="url(#Z)"/><path style="mix-blend-mode:multiply" d="m49 325.4 10.1 5.8V210.5l-10-5.8v120.7Z" fill="url(#aa)"/><path d="m59.1 331.2 10.1-5.8V204.7l-10.1 5.8v120.7Z" fill="url(#ab)"/></g><path style="mix-blend-mode:color-dodge" d="m69.2 204.7-10 5.4-10.2-5.4 9.8 6 .3 120.5.5-120.5 9.6-6Z" fill="url(#ac)"/><g opacity=".9"><path d="m76.8 225.9-10 5.8 10 5.8 10-5.8-10-5.8Z" fill="url(#ad)"/><path d="m66.7 335.3 10 5.8V237.5l-10-5.8v103.6Z" fill="url(#ae)"/><path d="m76.8 341.1 10-5.8V231.7l-10 5.8v103.6Z" fill="url(#af)"/></g><path style="mix-blend-mode:color-dodge" d="m86.9 231.7-10 5.4-10.2-5.4 9.8 6 .3 103.4.5-103.4 9.6-6Z" fill="url(#ag)"/><g opacity=".9"><path d="m95 267.3-10.1 5.9 10 5.8 10.1-5.8-10-5.9Z" fill="url(#ah)"/><path d="m84.9 345.8 10 5.8V279l-10-5.8v72.6Z" fill="url(#ai)"/><path d="m95 351.6 10-5.8v-72.6L95 279v72.6Z" fill="url(#aj)"/></g><path style="mix-blend-mode:color-dodge" d="m105 273.2-10 5.4-10.1-5.4 9.7 6 .3 72.4.5-72.5 9.6-6Z" fill="url(#ak)"/><g opacity=".9"><path d="m113.2 291.9-10.1 5.8 10 5.8 10.1-5.8-10-5.8Z" fill="url(#al)"/><path d="m103 356 10.2 5.8v-58.3l-10.1-5.8V356Z" fill="url(#am)"/><path d="m113.1 361.8 10.1-5.8v-58.3l-10 5.8v58.3Z" fill="url(#an)"/></g><path style="mix-blend-mode:color-dodge" d="m123.2 297.7-10 5.4-10.1-5.4 9.8 6 .2 58.1.5-58.1 9.6-6Z" fill="url(#ao)"/><g opacity=".9"><path d="m131.5 329.7-10 5.9 10 5.8 10-5.8-10-5.9Z" fill="url(#ap)"/><path d="m121.4 366.5 10 5.8v-31l-10-5.7v30.9Z" fill="url(#aq)"/><path d="m131.5 372.3 10-5.8v-31l-10 5.9v30.9Z" fill="url(#ar)"/></g><path style="mix-blend-mode:color-dodge" d="m141.6 335.6-10 5.3-10.2-5.3 9.8 6 .3 30.7.5-30.8 9.6-6Z" fill="url(#as)"/><g filter="url(#at)"><ellipse cx="67.2" cy="201.1" rx="3.7" ry="4.2" transform="rotate(-10.4 67.2 201.1)" fill="#fff"/></g><g opacity=".9" filter="url(#au)"><path d="m144.2 159.2-3-5.2-37.5 22-37.5 22a3 3 0 0 0-1.4 3 3 3 0 0 0 4.5 2.1l37.5-22 37.4-22Z" fill="url(#av)" style="mix-blend-mode:color-dodge"/></g><g filter="url(#aw)"><circle cx="369.2" cy="54.1" r="6.5" transform="rotate(25 369.2 54)" fill="#fff"/></g><circle cx="369.2" cy="54.1" r="3.4" transform="rotate(25 369.2 54)" fill="#fff"/><g filter="url(#ax)"><circle cx="47.7" cy="52.7" r="6.5" transform="rotate(25 47.7 52.7)" fill="#fff"/></g><circle cx="47.7" cy="52.7" r="3.4" transform="rotate(25 47.7 52.7)" fill="#fff"/><g filter="url(#ay)"><circle cx="224.7" cy="28.7" r="3.5" transform="rotate(25 224.7 28.7)" fill="#fff"/></g><circle cx="224.7" cy="28.7" r="1.8" transform="rotate(25 224.7 28.7)" fill="#fff"/><g filter="url(#az)"><circle cx="420.1" cy="298.6" r="3.5" transform="rotate(25 420.1 298.6)" fill="#fff"/></g><circle cx="420.1" cy="298.6" r="1.8" transform="rotate(25 420.1 298.6)" fill="#fff"/><g filter="url(#aA)"><circle cx="70.7" cy="130.7" r="3.5" transform="rotate(25 70.7 130.7)" fill="#fff"/></g><circle cx="70.7" cy="130.7" r="1.8" transform="rotate(25 70.7 130.7)" fill="#fff"/><defs><linearGradient id="b" x1="193" y1="325.1" x2="356.6" y2="325.1" gradientUnits="userSpaceOnUse"><stop offset=".1" stop-color="#200041"/><stop offset=".3" stop-color="#210243"/><stop offset=".4" stop-color="#25084B"/><stop offset=".4" stop-color="#2C1358"/><stop offset=".5" stop-color="#311B61"/><stop offset=".5" stop-color="#351F65"/><stop offset=".5" stop-color="#422C73"/><stop offset=".5" stop-color="#584188"/><stop offset=".5" stop-color="#765FA7"/><stop offset=".5" stop-color="#8770B8"/><stop offset=".5" stop-color="#7E67AE"/><stop offset=".6" stop-color="#5C468D"/><stop offset=".6" stop-color="#442E75"/><stop offset=".6" stop-color="#362066"/><stop offset=".6" stop-color="#311B61"/><stop offset=".7" stop-color="#2A1155"/><stop offset=".8" stop-color="#230446"/><stop offset=".8" stop-color="#200041"/><stop offset="1" stop-color="#200041"/></linearGradient><linearGradient id="c" x1="193" y1="300.1" x2="356.6" y2="300.1" gradientUnits="userSpaceOnUse"><stop offset=".1" stop-color="#200041"/><stop offset=".3" stop-color="#210243"/><stop offset=".4" stop-color="#25084B"/><stop offset=".4" stop-color="#2C1358"/><stop offset=".5" stop-color="#311B61"/><stop offset=".5" stop-color="#351F65"/><stop offset=".5" stop-color="#422C73"/><stop offset=".5" stop-color="#584188"/><stop offset=".5" stop-color="#765FA7"/><stop offset=".5" stop-color="#8770B8"/><stop offset=".5" stop-color="#7E67AE"/><stop offset=".6" stop-color="#5C468D"/><stop offset=".6" stop-color="#442E75"/><stop offset=".6" stop-color="#362066"/><stop offset=".6" stop-color="#311B61"/><stop offset=".7" stop-color="#2A1155"/><stop offset=".8" stop-color="#230446"/><stop offset=".8" stop-color="#200041"/><stop offset="1" stop-color="#200041"/></linearGradient><linearGradient id="d" x1="236.8" y1="310.6" x2="310.9" y2="269.6" gradientUnits="userSpaceOnUse"><stop stop-color="#311B61"/><stop offset=".2" stop-color="#290F52"/><stop offset=".5" stop-color="#200041"/><stop offset="1" stop-color="#0F001F"/></linearGradient><linearGradient id="e" x1="276.1" y1="291.2" x2="290.7" y2="266.8" gradientUnits="userSpaceOnUse"><stop stop-color="#fff"/><stop offset="1"/></linearGradient><linearGradient id="k" x1="396.2" y1="339.4" x2="145.8" y2="-7" gradientUnits="userSpaceOnUse"><stop stop-color="#311B61"/><stop offset=".2" stop-color="#290F52"/><stop offset=".5" stop-color="#200041"/><stop offset="1" stop-color="#0F001F"/></linearGradient><linearGradient id="l" x1="179.6" y1="27.5" x2="392.7" y2="347.8" gradientUnits="userSpaceOnUse"><stop offset="0" stop-color="#196EAB"/><stop offset=".4" stop-color="#276CBD"/><stop offset=".9" stop-color="#08065F"/></linearGradient><linearGradient id="m" x1="449.4" y1="347" x2="252.3" y2="32.1" gradientUnits="userSpaceOnUse"><stop offset=".1" stop-color="#200041"/><stop offset=".3" stop-color="#210243"/><stop offset=".4" stop-color="#25084B"/><stop offset=".4" stop-color="#2C1358"/><stop offset=".5" stop-color="#311B61"/><stop offset=".5" stop-color="#351F65"/><stop offset=".5" stop-color="#422C73"/><stop offset=".5" stop-color="#584188"/><stop offset=".5" stop-color="#765FA7"/><stop offset=".5" stop-color="#8770B8"/><stop offset=".5" stop-color="#7E67AE"/><stop offset=".6" stop-color="#5C468D"/><stop offset=".6" stop-color="#442E75"/><stop offset=".6" stop-color="#362066"/><stop offset=".6" stop-color="#311B61"/><stop offset=".7" stop-color="#2A1155"/><stop offset=".8" stop-color="#230446"/><stop offset=".8" stop-color="#200041"/><stop offset="1" stop-color="#200041"/></linearGradient><linearGradient id="n" x1="336.8" y1="223" x2="277.6" y2="347.4" gradientUnits="userSpaceOnUse"><stop stop-color="#06F"/><stop offset="1" stop-color="#142269"/></linearGradient><linearGradient id="o" x1="396.2" y1="-101.2" x2="122.8" y2="151.3" gradientUnits="userSpaceOnUse"><stop stop-color="#06F"/><stop offset="1" stop-color="#142269"/></linearGradient><linearGradient id="w" x1="328.6" y1="128.1" x2="228.5" y2="303.3" gradientUnits="userSpaceOnUse"><stop stop-color="#3DDCBF"/><stop offset=".3" stop-color="#29ABBD"/><stop offset=".6" stop-color="#1D8BC9" stop-opacity=".4"/><stop offset=".7" stop-color="#1B5DC0" stop-opacity="0"/><stop offset=".8" stop-color="#1636A8" stop-opacity="0"/></linearGradient><linearGradient id="y" x1="246.3" y1="253.3" x2="247.9" y2="102.1" gradientUnits="userSpaceOnUse"><stop stop-color="#1B5DC0" stop-opacity="0"/><stop offset="1" stop-color="#3DDCBF"/></linearGradient><linearGradient id="z" x1="310.9" y1="129.1" x2="251.5" y2="228.2" gradientUnits="userSpaceOnUse"><stop offset="0" stop-color="#D8FFA7"/><stop offset=".1" stop-color="#CFFA98"/><stop offset=".2" stop-color="#90F487"/><stop offset=".5" stop-color="#42B554"/><stop offset=".6" stop-color="#1DC981"/><stop offset=".6" stop-color="#26CBCB"/><stop offset=".7" stop-color="#3ED1C8"/><stop offset=".8" stop-color="#61BEDB"/><stop offset=".9" stop-color="#4C78E9"/><stop offset="1" stop-color="#3282FA"/><stop offset="1" stop-color="#3B2AFF"/></linearGradient><linearGradient id="D" x1="241.1" y1="-44.8" x2="247.5" y2="214.1" gradientUnits="userSpaceOnUse"><stop stop-color="#271273"/><stop offset=".1" stop-color="#1F0E5C"/><stop offset=".4" stop-color="#120834"/><stop offset=".6" stop-color="#080418"/><stop offset=".8" stop-color="#020106"/><stop offset="1"/></linearGradient><linearGradient id="E" x1="244.5" y1="33.8" x2="247" y2="214.8" gradientUnits="userSpaceOnUse"><stop stop-color="#ECA30A"/><stop offset=".3" stop-color="#9E6D07"/><stop offset=".5" stop-color="#5A3E04"/><stop offset=".8" stop-color="#291D02"/><stop offset=".9" stop-color="#0B0800"/><stop offset="1"/></linearGradient><linearGradient id="F" x1="245.9" y1="101.9" x2="246.3" y2="214.5" gradientUnits="userSpaceOnUse"><stop stop-color="#ECA30A"/><stop offset=".3" stop-color="#A37007"/><stop offset=".8" stop-color="#2F2002"/><stop offset="1"/></linearGradient><linearGradient id="J" x1="206.5" y1="184.8" x2="121.3" y2="329.5" gradientUnits="userSpaceOnUse"><stop stop-color="#3DDCBF"/><stop offset=".3" stop-color="#29ABBD"/><stop offset=".6" stop-color="#1D8BC9"/><stop offset=".7" stop-color="#1B5DC0"/><stop offset=".8" stop-color="#1636A8"/></linearGradient><linearGradient id="K" x1="192.8" y1="183.7" x2="145.5" y2="264.1" gradientUnits="userSpaceOnUse"><stop offset="0" stop-color="#D8FFA7"/><stop offset=".1" stop-color="#CFFA98"/><stop offset=".2" stop-color="#90F487"/><stop offset=".5" stop-color="#42B554"/><stop offset=".6" stop-color="#1DC981"/><stop offset=".6" stop-color="#26CBCB"/><stop offset=".7" stop-color="#3ED1C8"/><stop offset=".8" stop-color="#61BEDB"/><stop offset=".9" stop-color="#4C78E9"/><stop offset="1" stop-color="#3282FA"/><stop offset="1" stop-color="#3B2AFF"/></linearGradient><linearGradient id="L" x1="143.1" y1="288.1" x2="145.4" y2="161.8" gradientUnits="userSpaceOnUse"><stop stop-color="#1B5DC0" stop-opacity="0"/><stop offset="1" stop-color="#3DDCBF"/></linearGradient><linearGradient id="P" x1="146.1" y1="155.2" x2="257" y2="92.4" gradientUnits="userSpaceOnUse"><stop stop-color="#FCFFD6"/><stop offset=".3" stop-color="#59FFE2"/><stop offset=".8" stop-color="#42BBFF" stop-opacity=".2"/><stop offset="1" stop-color="#2771FF" stop-opacity="0"/></linearGradient><linearGradient id="Q" x1="17.4" y1="241.8" x2="25.9" y2="256.4" gradientUnits="userSpaceOnUse"><stop stop-color="#171AAB"/><stop offset="1" stop-color="#3BF3FF"/></linearGradient><linearGradient id="R" x1="22" y1="281.2" x2="-42.7" y2="276.2" gradientUnits="userSpaceOnUse"><stop stop-color="#1613AB"/><stop offset="1" stop-color="#3BFFF3"/></linearGradient><linearGradient id="S" x1="47" y1="277.7" x2="10.6" y2="283.8" gradientUnits="userSpaceOnUse"><stop stop-color="#1322AB"/><stop offset="1" stop-color="#3BFFFF"/></linearGradient><linearGradient id="U" x1="35.6" y1="224.7" x2="44" y2="239.2" gradientUnits="userSpaceOnUse"><stop stop-color="#171AAB"/><stop offset="1" stop-color="#3BF3FF"/></linearGradient><linearGradient id="V" x1="40.2" y1="278" x2="-24.7" y2="274.6" gradientUnits="userSpaceOnUse"><stop stop-color="#1613AB"/><stop offset="1" stop-color="#3BFFF3"/></linearGradient><linearGradient id="W" x1="65.1" y1="272.9" x2="28.2" y2="277.1" gradientUnits="userSpaceOnUse"><stop stop-color="#1322AB"/><stop offset="1" stop-color="#3BFFFF"/></linearGradient><linearGradient id="Y" x1="61.6" y1="207.6" x2="21" y2="159.1" gradientUnits="userSpaceOnUse"><stop offset="0" stop-color="#C3F09F"/><stop offset=".1" stop-color="#BDFA98"/><stop offset=".2" stop-color="#87F498"/></linearGradient><linearGradient id="Z" x1="54.1" y1="183.1" x2="54.1" y2="387.9" gradientUnits="userSpaceOnUse"><stop offset="0" stop-color="#A9FFA7"/><stop offset=".1" stop-color="#B1FA98"/><stop offset=".2" stop-color="#87F4B9"/><stop offset=".5" stop-color="#3ECAC1"/><stop offset=".6" stop-color="#1D62C9"/><stop offset=".7" stop-color="#1B2CC0"/><stop offset=".8" stop-color="#4516A8"/></linearGradient><linearGradient id="aa" x1="59.9" y1="268.6" x2="46.2" y2="267.1" gradientUnits="userSpaceOnUse"><stop stop-color="#BCBEC0"/><stop offset="1" stop-color="#fff"/></linearGradient><linearGradient id="ab" x1="64.1" y1="183.1" x2="64.1" y2="387.9" gradientUnits="userSpaceOnUse"><stop offset="0" stop-color="#A9FFA7"/><stop offset=".1" stop-color="#B1FA98"/><stop offset=".2" stop-color="#87F4B9"/><stop offset=".5" stop-color="#3ECAC1"/><stop offset=".6" stop-color="#1D62C9"/><stop offset=".7" stop-color="#1B2CC0"/><stop offset=".8" stop-color="#4516A8"/></linearGradient><linearGradient id="ad" x1="71.2" y1="222.1" x2="79.6" y2="236.7" gradientUnits="userSpaceOnUse"><stop stop-color="#171AAB"/><stop offset="1" stop-color="#3BF3FF"/></linearGradient><linearGradient id="ae" x1="75.8" y1="287" x2="10.9" y2="284.3" gradientUnits="userSpaceOnUse"><stop stop-color="#1613AB"/><stop offset="1" stop-color="#3BFFF3"/></linearGradient><linearGradient id="af" x1="100.7" y1="280.5" x2="63.7" y2="283.9" gradientUnits="userSpaceOnUse"><stop stop-color="#1322AB"/><stop offset="1" stop-color="#3BFFFF"/></linearGradient><linearGradient id="ah" x1="89.4" y1="263.5" x2="97.8" y2="278.1" gradientUnits="userSpaceOnUse"><stop stop-color="#171AAB"/><stop offset="1" stop-color="#3BF3FF"/></linearGradient><linearGradient id="ai" x1="94" y1="312.8" x2="29.1" y2="309" gradientUnits="userSpaceOnUse"><stop stop-color="#1613AB"/><stop offset="1" stop-color="#3BFFF3"/></linearGradient><linearGradient id="aj" x1="118.9" y1="308.1" x2="82.1" y2="312.8" gradientUnits="userSpaceOnUse"><stop stop-color="#1322AB"/><stop offset="1" stop-color="#3BFFFF"/></linearGradient><linearGradient id="al" x1="107.6" y1="288.1" x2="116" y2="302.6" gradientUnits="userSpaceOnUse"><stop stop-color="#171AAB"/><stop offset="1" stop-color="#3BF3FF"/></linearGradient><linearGradient id="am" x1="112.2" y1="330.1" x2="47.4" y2="325.5" gradientUnits="userSpaceOnUse"><stop stop-color="#1613AB"/><stop offset="1" stop-color="#3BFFF3"/></linearGradient><linearGradient id="an" x1="137.1" y1="326.3" x2="100.6" y2="331.9" gradientUnits="userSpaceOnUse"><stop stop-color="#1322AB"/><stop offset="1" stop-color="#3BFFFF"/></linearGradient><linearGradient id="ap" x1="125.9" y1="325.9" x2="134.4" y2="340.5" gradientUnits="userSpaceOnUse"><stop stop-color="#171AAB"/><stop offset="1" stop-color="#3BF3FF"/></linearGradient><linearGradient id="aq" x1="130.5" y1="354.1" x2="66.4" y2="346.2" gradientUnits="userSpaceOnUse"><stop stop-color="#1613AB"/><stop offset="1" stop-color="#3BFFF3"/></linearGradient><linearGradient id="ar" x1="155.4" y1="351.9" x2="120.6" y2="361.3" gradientUnits="userSpaceOnUse"><stop stop-color="#1322AB"/><stop offset="1" stop-color="#3BFFFF"/></linearGradient><linearGradient id="av" x1="64.8" y1="203.1" x2="145.1" y2="158.4" gradientUnits="userSpaceOnUse"><stop stop-color="#FCFFD6"/><stop offset=".3" stop-color="#59FFE2"/><stop offset=".8" stop-color="#42BBFF" stop-opacity=".2"/><stop offset="1" stop-color="#2771FF" stop-opacity="0"/></linearGradient><filter id="a" x="391.2" y="172.2" width="27" height="27" filterUnits="userSpaceOnUse" color-interpolation-filters="sRGB"><feFlood flood-opacity="0" result="BackgroundImageFix"/><feBlend in="SourceGraphic" in2="BackgroundImageFix" result="shape"/><feGaussianBlur stdDeviation="5" result="effect1_foregroundBlur_1_30"/></filter><filter id="g" x="256.8" y="311.9" width="55.7" height="61.2" filterUnits="userSpaceOnUse" color-interpolation-filters="sRGB"><feFlood flood-opacity="0" result="BackgroundImageFix"/><feBlend in="SourceGraphic" in2="BackgroundImageFix" result="shape"/><feGaussianBlur stdDeviation="2" result="effect1_foregroundBlur_1_30"/></filter><filter id="i" x="163.9" y="278.8" width="200.2" height="108.1" filterUnits="userSpaceOnUse" color-interpolation-filters="sRGB"><feFlood flood-opacity="0" result="BackgroundImageFix"/><feBlend in="SourceGraphic" in2="BackgroundImageFix" result="shape"/><feGaussianBlur stdDeviation="2" result="effect1_foregroundBlur_1_30"/></filter><filter id="r" x="77.5" y="141.6" width="187.3" height="211.4" filterUnits="userSpaceOnUse" color-interpolation-filters="sRGB"><feFlood flood-opacity="0" result="BackgroundImageFix"/><feBlend in="SourceGraphic" in2="BackgroundImageFix" result="shape"/><feGaussianBlur stdDeviation="4" result="effect1_foregroundBlur_1_30"/></filter><filter id="u" x="278.2" y="348.2" width="27" height="27" filterUnits="userSpaceOnUse" color-interpolation-filters="sRGB"><feFlood flood-opacity="0" result="BackgroundImageFix"/><feBlend in="SourceGraphic" in2="BackgroundImageFix" result="shape"/><feGaussianBlur stdDeviation="5" result="effect1_foregroundBlur_1_30"/></filter><filter id="v" x="286.8" y="356.8" width="9.7" height="9.7" filterUnits="userSpaceOnUse" color-interpolation-filters="sRGB"><feFlood flood-opacity="0" result="BackgroundImageFix"/><feBlend in="SourceGraphic" in2="BackgroundImageFix" result="shape"/><feGaussianBlur stdDeviation="1.5" result="effect1_foregroundBlur_1_30"/></filter><filter id="x" x="169.4" y="90.2" width="215.6" height="188.3" filterUnits="userSpaceOnUse" color-interpolation-filters="sRGB"><feFlood flood-opacity="0" result="BackgroundImageFix"/><feBlend in="SourceGraphic" in2="BackgroundImageFix" result="shape"/><feGaussianBlur stdDeviation="2" result="effect1_foregroundBlur_1_30"/></filter><filter id="G" x="234.5" y="80.8" width="22.6" height="26.4" filterUnits="userSpaceOnUse" color-interpolation-filters="sRGB"><feFlood flood-opacity="0" result="BackgroundImageFix"/><feBlend in="SourceGraphic" in2="BackgroundImageFix" result="shape"/><feGaussianBlur stdDeviation="2" result="effect1_foregroundBlur_1_30"/></filter><filter id="H" x="229.1" y="74.4" width="33.6" height="38.1" filterUnits="userSpaceOnUse" color-interpolation-filters="sRGB"><feFlood flood-opacity="0" result="BackgroundImageFix"/><feBlend in="SourceGraphic" in2="BackgroundImageFix" result="shape"/><feGaussianBlur stdDeviation="5" result="effect1_foregroundBlur_1_30"/></filter><filter id="I" x="229.1" y="74.4" width="33.6" height="38.1" filterUnits="userSpaceOnUse" color-interpolation-filters="sRGB"><feFlood flood-opacity="0" result="BackgroundImageFix"/><feBlend in="SourceGraphic" in2="BackgroundImageFix" result="shape"/><feGaussianBlur stdDeviation="5" result="effect1_foregroundBlur_1_30"/></filter><filter id="M" x="126.7" y="138.5" width="31.8" height="33.4" filterUnits="userSpaceOnUse" color-interpolation-filters="sRGB"><feFlood flood-opacity="0" result="BackgroundImageFix"/><feBlend in="SourceGraphic" in2="BackgroundImageFix" result="shape"/><feGaussianBlur stdDeviation="5" result="effect1_foregroundBlur_1_30"/></filter><filter id="N" x="127.2" y="138.9" width="30.6" height="33.3" filterUnits="userSpaceOnUse" color-interpolation-filters="sRGB"><feFlood flood-opacity="0" result="BackgroundImageFix"/><feBlend in="SourceGraphic" in2="BackgroundImageFix" result="shape"/><feGaussianBlur stdDeviation="5" result="effect1_foregroundBlur_1_30"/></filter><filter id="O" x="144.1" y="85.9" width="114.6" height="71.8" filterUnits="userSpaceOnUse" color-interpolation-filters="sRGB"><feFlood flood-opacity="0" result="BackgroundImageFix"/><feBlend in="SourceGraphic" in2="BackgroundImageFix" result="shape"/><feGaussianBlur stdDeviation="1" result="effect1_foregroundBlur_1_30"/></filter><filter id="at" x="53.5" y="187" width="27.4" height="28.3" filterUnits="userSpaceOnUse" color-interpolation-filters="sRGB"><feFlood flood-opacity="0" result="BackgroundImageFix"/><feBlend in="SourceGraphic" in2="BackgroundImageFix" result="shape"/><feGaussianBlur stdDeviation="5" result="effect1_foregroundBlur_1_30"/></filter><filter id="au" x="62.8" y="152" width="83.5" height="53.5" filterUnits="userSpaceOnUse" color-interpolation-filters="sRGB"><feFlood flood-opacity="0" result="BackgroundImageFix"/><feBlend in="SourceGraphic" in2="BackgroundImageFix" result="shape"/><feGaussianBlur stdDeviation="1" result="effect1_foregroundBlur_1_30"/></filter><filter id="aw" x="352.7" y="37.5" width="33" height="33" filterUnits="userSpaceOnUse" color-interpolation-filters="sRGB"><feFlood flood-opacity="0" result="BackgroundImageFix"/><feBlend in="SourceGraphic" in2="BackgroundImageFix" result="shape"/><feGaussianBlur stdDeviation="5" result="effect1_foregroundBlur_1_30"/></filter><filter id="ax" x="31.1" y="36.1" width="33" height="33" filterUnits="userSpaceOnUse" color-interpolation-filters="sRGB"><feFlood flood-opacity="0" result="BackgroundImageFix"/><feBlend in="SourceGraphic" in2="BackgroundImageFix" result="shape"/><feGaussianBlur stdDeviation="5" result="effect1_foregroundBlur_1_30"/></filter><filter id="ay" x="211.2" y="15.2" width="27" height="27" filterUnits="userSpaceOnUse" color-interpolation-filters="sRGB"><feFlood flood-opacity="0" result="BackgroundImageFix"/><feBlend in="SourceGraphic" in2="BackgroundImageFix" result="shape"/><feGaussianBlur stdDeviation="5" result="effect1_foregroundBlur_1_30"/></filter><filter id="az" x="406.6" y="285" width="27" height="27" filterUnits="userSpaceOnUse" color-interpolation-filters="sRGB"><feFlood flood-opacity="0" result="BackgroundImageFix"/><feBlend in="SourceGraphic" in2="BackgroundImageFix" result="shape"/><feGaussianBlur stdDeviation="5" result="effect1_foregroundBlur_1_30"/></filter><filter id="aA" x="57.2" y="117.2" width="27" height="27" filterUnits="userSpaceOnUse" color-interpolation-filters="sRGB"><feFlood flood-opacity="0" result="BackgroundImageFix"/><feBlend in="SourceGraphic" in2="BackgroundImageFix" result="shape"/><feGaussianBlur stdDeviation="5" result="effect1_foregroundBlur_1_30"/></filter><radialGradient id="f" cx="0" cy="0" r="1" gradientUnits="userSpaceOnUse" gradientTransform="translate(276.6 324.4) scale(58.2086)"><stop stop-color="#AF8AFC"/><stop offset="1" stop-color="#10054D"/></radialGradient><radialGradient id="h" cx="0" cy="0" r="1" gradientUnits="userSpaceOnUse" gradientTransform="rotate(67.7 -106.3 387.6) scale(27.1264 23.3412)"><stop stop-color="#0133E2"/><stop offset=".3" stop-color="#2637D2"/><stop offset=".9" stop-color="#0015D2" stop-opacity="0"/><stop offset="1" stop-color="#0015D2" stop-opacity="0"/></radialGradient><radialGradient id="j" cx="0" cy="0" r="1" gradientUnits="userSpaceOnUse" gradientTransform="matrix(95.13514 31.8687 -12.98361 38.75896 266.5 317.4)"><stop stop-color="#0133E2"/><stop offset=".3" stop-color="#2637D2"/><stop offset=".9" stop-color="#0015D2" stop-opacity="0"/><stop offset="1" stop-color="#0015D2" stop-opacity="0"/></radialGradient><radialGradient id="p" cx="0" cy="0" r="1" gradientUnits="userSpaceOnUse" gradientTransform="translate(393.4 167.7) scale(33.5416)"><stop stop-color="#4A72FF"/><stop offset="1" stop-color="#170095"/></radialGradient><radialGradient id="q" cx="0" cy="0" r="1" gradientUnits="userSpaceOnUse" gradientTransform="rotate(79.4 126.5 311.2) scale(108.651 310.894)"><stop stop-color="#45D9FA"/><stop offset=".2" stop-color="#3861CB"/><stop offset=".7" stop-color="#0C5ED9" stop-opacity="0"/><stop offset="1" stop-opacity="0"/></radialGradient><radialGradient id="s" cx="0" cy="0" r="1" gradientUnits="userSpaceOnUse" gradientTransform="matrix(19.66774 -8.08237 10.25838 24.96287 406.3 139)"><stop stop-color="#44CBF5"/><stop offset="1" stop-color="#095AFF" stop-opacity="0"/></radialGradient><radialGradient id="t" cx="0" cy="0" r="1" gradientUnits="userSpaceOnUse" gradientTransform="rotate(-26.8 889.8 -439.1) scale(54.4205)"><stop stop-color="#45FAD9"/><stop offset=".2" stop-color="#38CBB9"/><stop offset=".7" stop-color="#144999" stop-opacity="0"/><stop offset="1" stop-opacity="0"/></radialGradient><radialGradient id="A" cx="0" cy="0" r="1" gradientUnits="userSpaceOnUse" gradientTransform="rotate(180 99.5 57) scale(19.8883)"><stop stop-color="#fff"/><stop offset="1"/></radialGradient><radialGradient id="B" cx="0" cy="0" r="1" gradientUnits="userSpaceOnUse" gradientTransform="rotate(180 115.5 54.6) scale(5.89368)"><stop stop-color="#fff"/><stop offset="1"/></radialGradient><radialGradient id="C" cx="0" cy="0" r="1" gradientUnits="userSpaceOnUse" gradientTransform="rotate(180 131.5 52.6) scale(59.6536)"><stop stop-color="#fff"/><stop offset="1"/></radialGradient><radialGradient id="T" cx="0" cy="0" r="1" gradientUnits="userSpaceOnUse" gradientTransform="rotate(180 15.7 133) scale(22.1753)"><stop stop-color="#fff"/><stop offset="1"/></radialGradient><radialGradient id="X" cx="0" cy="0" r="1" gradientUnits="userSpaceOnUse" gradientTransform="rotate(180 24.8 127.8) scale(31.2547)"><stop stop-color="#fff"/><stop offset="1"/></radialGradient><radialGradient id="ac" cx="0" cy="0" r="1" gradientUnits="userSpaceOnUse" gradientTransform="rotate(180 33.8 117.9) scale(44.8284)"><stop stop-color="#fff"/><stop offset="1"/></radialGradient><radialGradient id="ag" cx="0" cy="0" r="1" gradientUnits="userSpaceOnUse" gradientTransform="rotate(180 42.6 129.3) scale(39.003)"><stop stop-color="#fff"/><stop offset="1"/></radialGradient><radialGradient id="ak" cx="0" cy="0" r="1" gradientUnits="userSpaceOnUse" gradientTransform="rotate(180 51.7 146.2) scale(28.5696)"><stop stop-color="#fff"/><stop offset="1"/></radialGradient><radialGradient id="ao" cx="0" cy="0" r="1" gradientUnits="userSpaceOnUse" gradientTransform="matrix(-23.8706 0 0 -23.8705 121.6 313.5)"><stop stop-color="#fff"/><stop offset="1"/></radialGradient><radialGradient id="as" cx="0" cy="0" r="1" gradientUnits="userSpaceOnUse" gradientTransform="rotate(180 70 172.3) scale(15.36)"><stop stop-color="#fff"/><stop offset="1"/></radialGradient></defs></svg>