<svg width="200" height="210" fill="none" xmlns="http://www.w3.org/2000/svg"><mask id="b" style="mask-type:alpha" maskUnits="userSpaceOnUse" x="0" y="0" width="200" height="210"><path fill="url(#a)" d="M0 0h200v210H0z"/></mask><g mask="url(#b)"><g opacity=".4"><circle cx="237.3" cy="16.3" r="174.5" transform="rotate(57 237 16)" stroke="url(#c)" stroke-width="2"/><g filter="url(#d)"><circle cx="79.3" cy="89.6" r="7" transform="rotate(34 79 90)" fill="#fff"/></g><circle cx="79.3" cy="89.6" r="7" transform="rotate(34 79 90)" fill="#fff"/></g><g filter="url(#e)"><circle cx="183.2" cy="34.1" r="6.5" transform="rotate(25 183 34)" fill="#fff"/></g><circle cx="183.2" cy="34.1" r="3.4" transform="rotate(25 183 34)" fill="#fff"/><g filter="url(#f)"><circle cx="38.7" cy="8.7" r="3.5" transform="rotate(25 39 9)" fill="#fff"/></g><circle cx="38.7" cy="8.7" r="1.8" transform="rotate(25 39 9)" fill="#fff"/><circle opacity=".4" cx="268.1" cy="-17" r="135.9" transform="rotate(57 268 -17)" stroke="url(#g)" stroke-width="2"/></g><defs><filter id="d" x="56.3" y="66.6" width="46" height="46" filterUnits="userSpaceOnUse" color-interpolation-filters="sRGB"><feFlood flood-opacity="0" result="BackgroundImageFix"/><feBlend in="SourceGraphic" in2="BackgroundImageFix" result="shape"/><feGaussianBlur stdDeviation="8" result="effect1_foregroundBlur_2_6"/></filter><filter id="e" x="166.7" y="17.5" width="33" height="33" filterUnits="userSpaceOnUse" color-interpolation-filters="sRGB"><feFlood flood-opacity="0" result="BackgroundImageFix"/><feBlend in="SourceGraphic" in2="BackgroundImageFix" result="shape"/><feGaussianBlur stdDeviation="5" result="effect1_foregroundBlur_2_6"/></filter><filter id="f" x="25.2" y="-4.8" width="27" height="27" filterUnits="userSpaceOnUse" color-interpolation-filters="sRGB"><feFlood flood-opacity="0" result="BackgroundImageFix"/><feBlend in="SourceGraphic" in2="BackgroundImageFix" result="shape"/><feGaussianBlur stdDeviation="5" result="effect1_foregroundBlur_2_6"/></filter><radialGradient id="c" cx="0" cy="0" r="1" gradientUnits="userSpaceOnUse" gradientTransform="rotate(90 111 127) scale(175.5)"><stop offset=".1" stop-color="#fff" stop-opacity="0"/><stop offset=".4" stop-color="#fff" stop-opacity="0"/><stop offset="1" stop-color="#fff"/></radialGradient><radialGradient id="g" cx="0" cy="0" r="1" gradientUnits="userSpaceOnUse" gradientTransform="rotate(90 143 126) scale(136.875)"><stop offset="0" stop-color="#fff" stop-opacity="0"/><stop offset=".4" stop-color="#fff" stop-opacity="0"/><stop offset=".8" stop-color="#fff"/></radialGradient><linearGradient id="a" x1="243.7" y1="-29.6" x2="125.2" y2="225.9" gradientUnits="userSpaceOnUse"><stop stop-color="#06F"/><stop offset="1" stop-color="#142269"/></linearGradient></defs></svg>