<svg xmlns="http://www.w3.org/2000/svg" width="320" height="224" fill="none"><mask id="b" width="320" height="224" x="0" y="0" maskUnits="userSpaceOnUse" style="mask-type:alpha"><path fill="url(#a)" d="M0 0h320v224H0z"/></mask><g mask="url(#b)"><path fill="url(#c)" d="M0 0h320v224H0z"/><g opacity=".4"><circle r="174.5" stroke="url(#d)" stroke-width="2" transform="scale(1 -1) rotate(57.46 459.51 236)"/><g filter="url(#e)"><circle r="7" fill="#fff" transform="scale(1 -1) rotate(34.15 460.36 309.78)"/></g><circle r="7" fill="#fff" transform="scale(1 -1) rotate(34.15 460.36 309.78)"/></g><g opacity=".4"><circle cx="10.62" cy="-44.38" r="124.28" stroke="url(#f)" stroke-width="2" transform="rotate(-35.96 10.62 -44.38)"/><g filter="url(#g)"><circle cx="69.6" cy="65.1" r="5" fill="#fff" transform="rotate(-59.27 69.6 65.1)"/></g><circle cx="69.6" cy="65.1" r="5" fill="#fff" transform="rotate(-59.27 69.6 65.1)"/></g></g><defs><radialGradient id="d" cx="0" cy="0" r="1" gradientTransform="rotate(90 0 175.5) scale(175.5)" gradientUnits="userSpaceOnUse"><stop offset=".11" stop-color="#fff" stop-opacity="0"/><stop offset=".39" stop-color="#fff" stop-opacity="0"/><stop offset=".99" stop-color="#fff"/></radialGradient><radialGradient id="f" cx="0" cy="0" r="1" gradientTransform="rotate(90 27.5 -16.88) scale(125.275)" gradientUnits="userSpaceOnUse"><stop offset=".11" stop-color="#fff" stop-opacity="0"/><stop offset=".39" stop-color="#fff" stop-opacity="0"/><stop offset=".99" stop-color="#fff"/></radialGradient><linearGradient id="a" x1="0" x2="482.38" y1="224" y2="185.94" gradientUnits="userSpaceOnUse"><stop offset=".01" stop-color="#001861"/><stop offset=".66" stop-color="#B91484"/><stop offset="1" stop-color="#FF0063"/></linearGradient><linearGradient id="c" x1="0" x2="482.38" y1="224" y2="185.94" gradientUnits="userSpaceOnUse"><stop offset=".01" stop-color="#001861"/><stop offset=".66" stop-color="#B91484"/><stop offset="1" stop-color="#FF0063"/></linearGradient><filter id="e" width="46" height="46" x="230.29" y="182.02" color-interpolation-filters="sRGB" filterUnits="userSpaceOnUse"><feFlood flood-opacity="0" result="BackgroundImageFix"/><feBlend in="SourceGraphic" in2="BackgroundImageFix" result="shape"/><feGaussianBlur result="effect1_foregroundBlur_12_11" stdDeviation="8"/></filter><filter id="g" width="41.99" height="41.99" x="48.6" y="44.1" color-interpolation-filters="sRGB" filterUnits="userSpaceOnUse"><feFlood flood-opacity="0" result="BackgroundImageFix"/><feBlend in="SourceGraphic" in2="BackgroundImageFix" result="shape"/><feGaussianBlur result="effect1_foregroundBlur_12_11" stdDeviation="8"/></filter></defs></svg>