<svg xmlns="http://www.w3.org/2000/svg" width="943" height="224" fill="none"><mask id="b" width="943" height="224" x="0" y="0" maskUnits="userSpaceOnUse" style="mask-type:alpha"><rect width="943" height="224" fill="url(#a)" rx="8"/></mask><g mask="url(#b)"><rect width="943" height="224" fill="url(#c)" rx="8"/><g opacity=".4"><circle cx="881.32" cy="38.32" r="174.5" stroke="url(#d)" stroke-width="2" transform="rotate(57.46 881.32 38.32)"/><g filter="url(#e)"><circle cx="723.29" cy="111.63" r="7" fill="#fff" transform="rotate(34.15 723.3 111.63)"/></g><circle cx="723.29" cy="111.63" r="7" fill="#fff" transform="rotate(34.15 723.3 111.63)"/></g><circle cx="912.11" cy="4.98" r="135.88" stroke="url(#f)" stroke-width="2" opacity=".4" transform="rotate(57.46 912.11 4.98)"/><g opacity=".4"><circle cx="10.62" cy="15.62" r="124.28" stroke="url(#g)" stroke-width="2" transform="rotate(-35.96 10.62 15.62)"/><g filter="url(#h)"><circle cx="69.6" cy="125.1" r="5" fill="#fff" transform="rotate(-59.27 69.6 125.1)"/></g><circle cx="69.6" cy="125.1" r="5" fill="#fff" transform="rotate(-59.27 69.6 125.1)"/></g></g><defs><radialGradient id="d" cx="0" cy="0" r="1" gradientTransform="rotate(90 421.5 459.82) scale(175.5)" gradientUnits="userSpaceOnUse"><stop offset=".11" stop-color="#fff" stop-opacity="0"/><stop offset=".39" stop-color="#fff" stop-opacity="0"/><stop offset=".99" stop-color="#fff"/></radialGradient><radialGradient id="f" cx="0" cy="0" r="1" gradientTransform="rotate(90 453.56 458.55) scale(136.875)" gradientUnits="userSpaceOnUse"><stop offset=".04" stop-color="#fff" stop-opacity="0"/><stop offset=".39" stop-color="#fff" stop-opacity="0"/><stop offset=".84" stop-color="#fff"/></radialGradient><radialGradient id="g" cx="0" cy="0" r="1" gradientTransform="rotate(90 -2.5 13.12) scale(125.275)" gradientUnits="userSpaceOnUse"><stop offset=".11" stop-color="#fff" stop-opacity="0"/><stop offset=".39" stop-color="#fff" stop-opacity="0"/><stop offset=".99" stop-color="#fff"/></radialGradient><linearGradient id="a" x1="0" x2="1357" y1="224" y2="-91.5" gradientUnits="userSpaceOnUse"><stop offset=".01" stop-color="#001861"/><stop offset=".66" stop-color="#B91484"/><stop offset="1" stop-color="#FF0063"/></linearGradient><linearGradient id="c" x1="0" x2="1357" y1="224" y2="-91.5" gradientUnits="userSpaceOnUse"><stop offset=".01" stop-color="#001861"/><stop offset=".66" stop-color="#B91484"/><stop offset="1" stop-color="#FF0063"/></linearGradient><filter id="e" width="46" height="46" x="700.29" y="88.63" color-interpolation-filters="sRGB" filterUnits="userSpaceOnUse"><feFlood flood-opacity="0" result="BackgroundImageFix"/><feBlend in="SourceGraphic" in2="BackgroundImageFix" result="shape"/><feGaussianBlur result="effect1_foregroundBlur_13_16" stdDeviation="8"/></filter><filter id="h" width="41.99" height="41.99" x="48.6" y="104.1" color-interpolation-filters="sRGB" filterUnits="userSpaceOnUse"><feFlood flood-opacity="0" result="BackgroundImageFix"/><feBlend in="SourceGraphic" in2="BackgroundImageFix" result="shape"/><feGaussianBlur result="effect1_foregroundBlur_13_16" stdDeviation="8"/></filter></defs></svg>