<svg width="18" height="15" viewBox="0 0 18 15" fill="none" xmlns="http://www.w3.org/2000/svg">
<path d="M10 1C10 0.447715 9.55228 -2.41411e-08 9 0C8.44772 2.41411e-08 8 0.447715 8 1L10 1ZM8 1L8 8L10 8L10 1L8 1Z" fill="white"/>
<path d="M5 6L9 9L13 6" stroke="white" stroke-width="2" stroke-linecap="round"/>
<path fill-rule="evenodd" clip-rule="evenodd" d="M1 9C0.447715 9 0 9.44772 0 10V12C0 13.6569 1.34315 15 3 15H15C16.6569 15 18 13.6569 18 12V10C18 9.44772 17.5523 9 17 9C16.4477 9 16 9.44772 16 10V12C16 12.5523 15.5523 13 15 13H3C2.44772 13 2 12.5523 2 12V10C2 9.44772 1.55228 9 1 9Z" fill="white"/>
</svg>
