<svg width="52" height="52" fill="none" xmlns="http://www.w3.org/2000/svg">
  <mask id="a" style="mask-type:alpha" maskUnits="userSpaceOnUse" x="0" y="0" width="52" height="52">
    <path fill="#D9D9D9" d="M0 0h52v52H0z"/>
  </mask>
  <g mask="url(#a)" stroke-width="2" stroke-linecap="round">
    <path clip-rule="evenodd" d="M35.923 25.593a1 1 0 0 0 1.154 0l3.69-2.605A10 10 0 0 0 45 14.818v-6.11a1 1 0 0 0-.667-.943l-7.5-2.648a1 1 0 0 0-.666 0l-7.5 2.648a1 1 0 0 0-.667.943v6.11a10 10 0 0 0 4.233 8.17l3.69 2.605Z" stroke="#FF4F13"/>
    <path d="m34 15.5 2.043 2.452a.5.5 0 0 0 .816-.068L40 12.5" stroke="#FF4F13"/>
    <circle cx="19.5" cy="26" r="6" stroke="#142269"/>
    <path d="M12.3 47H9.11a.11.11 0 0 1-.11-.11v0c0-5.74 4.652-10.39 10.39-10.39h.22C25.35 36.5 30 41.151 30 46.89v0a.11.11 0 0 1-.11.11H18.3" stroke="#142269"/>
  </g>
</svg>
