<svg width="52" height="52" fill="none" xmlns="http://www.w3.org/2000/svg">
  <mask id="a" style="mask-type:alpha" maskUnits="userSpaceOnUse" x="0" y="0" width="52" height="52">
    <path fill="#D9D9D9" d="M0 0h52v52H0z"/>
  </mask>
  <g mask="url(#a)">
    <path d="M34 15a1 1 0 1 0 0 2v-2ZM18 35a1 1 0 0 0-2 0h2Zm32-2a1 1 0 0 0-2 0h2Zm-2-5a1 1 0 1 0 2 0h-2Zm-8.83 11H19v2h20.17v-2ZM45 41.5v2.086h2V41.5h-2Zm0 2.086-3.707-3.707-1.415 1.414L43.586 45 45 43.586ZM34 17h13v-2H34v2ZM18 38v-3h-2v3h2Zm30-5v5.5h2V33h-2Zm0-15v10h2V18h-2Zm-3 25.586L43.586 45c1.26 1.26 3.414.368 3.414-1.414h-2ZM47.5 39a2.5 2.5 0 0 0-2.5 2.5h2a.5.5 0 0 1 .5-.5v-2Zm-8.329 2a1 1 0 0 1 .707.293l1.415-1.414A3 3 0 0 0 39.17 39v2ZM19 39a1 1 0 0 1-1-1h-2a3 3 0 0 0 3 3v-2Zm28.5 2a2.5 2.5 0 0 0 2.5-2.5h-2a.5.5 0 0 1-.5.5v2ZM47 17a1 1 0 0 1 1 1h2a3 3 0 0 0-3-3v2Z" fill="#142269"/>
    <path d="M10.457 12.646C6.7 17.42 7.527 24.336 12.3 28.092c4.775 3.756 11.69 2.93 15.447-1.845 3.756-4.774 2.93-11.69-1.845-15.446A11.002 11.002 0 0 0 14 9.699" stroke="#009FE3" stroke-width="2" stroke-linecap="round"/>
    <path d="m10.729 26.856 3.144 2.473-7.42 9.432a2 2 0 0 1-2.808.335v0a2 2 0 0 1-.335-2.808l7.419-9.432Z" stroke="#009FE3" stroke-width="2" stroke-linecap="round"/>
    <path d="M25 16h-7.5a.5.5 0 0 0-.5.5V25m27-3H34m10 6H34" stroke="#142269" stroke-width="2" stroke-linecap="round"/>
  </g>
</svg>
