<svg width="52" height="52" fill="none" xmlns="http://www.w3.org/2000/svg">
  <mask id="a" style="mask-type:alpha" maskUnits="userSpaceOnUse" x="0" y="0" width="52" height="52">
    <path fill="#D9D9D9" d="M0 0h52v52H0z"/>
  </mask>
  <g mask="url(#a)" stroke-width="2" stroke-linecap="round">
    <rect x=".5" y="3" width="12" height="12" rx="2" stroke="#142269"/>
    <rect x=".5" y="37" width="12" height="12" rx="2" stroke="#142269"/>
    <path d="M20.5 6h12m-12 6h8m-8 11h12m-12 6h8m-8 11h12m-12 6h8" stroke="#142269"/>
    <path d="M7.5 20h-5a2 2 0 0 0-2 2v8c0 1.1 1 2 2 2h8a2 2 0 0 0 2-2v-2" stroke="#E80061"/>
    <path d="m4.5 24 2.6 3.4c.2.3.6.3.8 0l4.1-5.9" stroke="#E80061"/>
  </g>
</svg>
