<svg xmlns="http://www.w3.org/2000/svg" width="16" height="17" fill="none"><path fill="#34A853" d="M.32 2.04V14.7l8.76 1.65V.4L.32 2.04Zm5.03 8.99-.73-2.05-.72 1.94h-1l1.17-2.7-1.09-2.66h1.03l.67 1.83.79-1.99.99-.05-1.24 2.84 1.29 2.93-1.16-.1ZM15.29 2.03H9.38v.92h2.22v1.67H9.38v.5h2.22v1.66H9.38v.5h2.22v1.67H9.38v.5h2.22v1.67H9.38v.5h2.22v1.67H9.38v1.07h5.91c.17 0 .3-.15.3-.33V2.36c0-.18-.13-.33-.3-.33Zm-.72 11.26h-2.51v-1.66h2.5v1.66Zm0-2.17h-2.51V9.45h2.5v1.67Zm0-2.17h-2.51V7.28h2.5v1.67Zm0-2.17h-2.51V5.12h2.5v1.66Zm0-2.16h-2.51V2.95h2.5v1.67Z"/></svg>