<svg xmlns="http://www.w3.org/2000/svg" width="36" height="36" fill="none"><rect width="35" height="35" x=".5" y=".5" fill="#fff" stroke="#E4E4E4" rx="3.5"/><path fill="#4280EF" d="M27.6 18.24c0-.68-.06-1.37-.17-2.03h-9.44v3.86h5.4a4.55 4.55 0 0 1-2 3.03l3.23 2.5a9.83 9.83 0 0 0 2.98-7.36Z"/><path fill="#34A353" d="M18 28c2.7 0 4.96-.9 6.62-2.42l-3.23-2.48c-.89.6-2.05.96-3.4.96a6.01 6.01 0 0 1-5.62-4.12l-3.3 2.55A9.99 9.99 0 0 0 17.98 28Z"/><path fill="#F6B704" d="M12.37 19.92a6.07 6.07 0 0 1 0-3.84l-3.3-2.57a10.01 10.01 0 0 0 0 8.98l3.3-2.57Z"/><path fill="#E54335" d="M18 11.97a5.46 5.46 0 0 1 3.83 1.5l2.85-2.88a9.99 9.99 0 0 0-15.62 2.92l3.31 2.57c.81-2.37 3.01-4.11 5.62-4.11Z"/></svg>