<svg xmlns="http://www.w3.org/2000/svg" width="87" height="27" fill="none"><path fill="#04202F" fill-rule="evenodd" d="M71.7 0h6a4.7 4.7 0 1 1 0 9.4h-3.4v4h-2.6V0Zm6 6.7a2 2 0 1 0 0-4h-3.4v4h3.4Z" clip-rule="evenodd"/><path fill="#04202F" fill-rule="evenodd" d="M79.2 8h-3l3.7 6.7-3.8 6.7h3.1l2.3-4 2.2 4h3.1L83 14.7 86.8 8h-3.1l-2.2 4-2.3-4Z" clip-rule="evenodd"/><path fill="#E80061" d="M9.5 18.7 8 26.1H4.1l1.5-7.6L0 4.6h4l4.2 10.5 8.4-10.5h4.2L9.5 18.7Z"/><path fill="#E80061" d="M32.6 22.9c.5 0 1-.1 1.4-.3l-.4 3c-.7.3-1.5.5-2.3.5-1.1 0-2-.3-2.7-.7a3.4 3.4 0 0 1-1.5-2c-.7.9-1.6 1.5-2.6 2-1 .4-2.1.7-3.4.7-1.3 0-2.5-.3-3.6-1-1.1-.5-2-1.3-2.6-2.4-.6-1-1-2.4-1-3.8 0-1.9.4-3.5 1.2-5a9 9 0 0 1 8-4.6c2.7 0 4.5.9 5.6 2.6l.5-2.4H33l-2.2 11-.1.7c0 .5.2 1 .5 1.3.3.3.8.4 1.4.4Zm-10.5-.1a5.4 5.4 0 0 0 4.9-3c.5-1 .7-2 .7-3.2a4 4 0 0 0-1.1-3 4.4 4.4 0 0 0-3.2-1 5.4 5.4 0 0 0-4.9 3c-.5.8-.7 1.9-.7 3a4 4 0 0 0 1.1 3.1c.8.7 1.8 1 3.2 1ZM68 22.9c.5 0 1-.1 1.4-.3l-.4 3c-.7.3-1.5.5-2.4.5-1 0-2-.3-2.7-.7a3.4 3.4 0 0 1-1.4-2c-.8.9-1.6 1.5-2.7 2-1 .4-2 .7-3.3.7-1.4 0-2.6-.3-3.7-1-1-.5-2-1.3-2.6-2.4-.6-1-1-2.4-1-3.8 0-1.9.5-3.5 1.3-5a9 9 0 0 1 8-4.6c2.6 0 4.5.9 5.6 2.6l.4-2.4h3.8l-2.2 11v.7c0 .5.1 1 .4 1.3.4.3.8.4 1.4.4Zm-10.6-.1a5.4 5.4 0 0 0 5-3c.4-1 .7-2 .7-3.2a4 4 0 0 0-1.2-3 4.4 4.4 0 0 0-3.1-1 5.4 5.4 0 0 0-5 3c-.4.8-.7 1.9-.7 3a4 4 0 0 0 1.2 3.1c.7.7 1.8 1 3.1 1ZM37.8 4.7l-3.2 15.8-.1 1.4a4 4 0 0 0 1.1 3c.8.8 2 1.2 3.3 1.2.9 0 1.7-.2 2.4-.4l.4-3-1.5.2c-1.2 0-1.8-.6-1.8-1.7v-.7l3.2-15.8h-3.8Z"/><path fill="#E80061" d="m45.4 4.7-3.2 15.8-.1 1.4a4 4 0 0 0 1.1 3c.8.8 2 1.2 3.3 1.2.9 0 1.7-.2 2.4-.4l.4-3-1.5.2c-1.2 0-1.8-.6-1.8-1.7v-.7l3.2-15.8h-3.8Z"/></svg>