<svg width="432" height="924" fill="none" xmlns="http://www.w3.org/2000/svg">
  <path d="M57.4 1c-6 38.5 27.5 118.5 177 101.5s193 41 192.5 92.5-54.5 110-118 108.5-152-39.1-209-21C34 303.5.4 391.5 60 458a160 160 0 0 0 191.5 39.5c49-25.5 119.7-35.7 156.5 12.5 37 48.5 23.5 104.5-10 118s-60-25-35-52.5 83 3 64 52.5-84 56.5-121.5 41S170 621.5 131 644.5c-41.5 24.5-60.7 66.5-31 104C141.6 801 154 845 87.5 884" stroke="#8292A1" stroke-linecap="round" stroke-dasharray="10 10"/>
  <g filter="url(#a)">
    <circle cx="147" cy="99" r="16" fill="#fff"/>
  </g>
  <circle cx="147" cy="99" r="8" fill="#E80061"/>
  <g filter="url(#b)">
    <circle cx="98" cy="487" r="16" fill="#fff"/>
  </g>
  <circle cx="98" cy="487" r="8" fill="#06F"/>
  <g filter="url(#c)">
    <circle cx="86" cy="708" r="16" fill="#fff"/>
  </g>
  <circle cx="86" cy="708" r="8" fill="#FF4F13"/>
  <g filter="url(#d)">
    <circle cx="67" cy="296" r="16" fill="#fff"/>
  </g>
  <circle cx="67" cy="296" r="8" fill="#009FE3"/>
  <path fill-rule="evenodd" clip-rule="evenodd" d="m31.4 907 52 3.8s4-.5 4-5.2L81 875.2l.4-.2 16 2.6s.2-.8-2-2.5l-13.7-10.6-.8.7v-.6l1.7-16.9s.2-2.6-1.2-3.3c-1.5-.8-3.6 2-3.6 2l-45.5 55.1s-4 4.5-.8 5.5Zm65.7-26.8L84.8 888 82 876l16 2.7c0 1-1 1.6-1 1.6Z" fill="#9ABDEC"/>
  <path d="m31.1 910.9 45.3-.5s3.5-.9 4.4-5.7l-.5-30.8 1.8-10.6 4.4-17.5s.7-2.7-.5-3.3c-1.2-.6-3.5 2.3-3.5 2.3l-49.8 60.4s-4.2 5-1.6 5.7Z" fill="#E0EDFF"/>
  <path d="M96.2 875.2s.4-.9-1.3-2.5L84.3 863l-38.4 35.6s-2.2 2.1-1.2 2.3c0 0 0 .4 1.4-.6l36-26.4" fill="#BAD3F4"/>
  <path d="m84 888.5 12.9-9.2s.9-.7 1-1.8l-14.3-1.4" fill="#9ABDEC"/>
  <defs>
    <filter id="a" x="121" y="73" width="52" height="52" filterUnits="userSpaceOnUse" color-interpolation-filters="sRGB">
      <feFlood flood-opacity="0" result="BackgroundImageFix"/>
      <feColorMatrix in="SourceAlpha" values="0 0 0 0 0 0 0 0 0 0 0 0 0 0 0 0 0 0 127 0" result="hardAlpha"/>
      <feOffset/>
      <feGaussianBlur stdDeviation="5"/>
      <feColorMatrix values="0 0 0 0 0 0 0 0 0 0.348833 0 0 0 0 0.758333 0 0 0 0.1 0"/>
      <feBlend in2="BackgroundImageFix" result="effect1_dropShadow_8199_25906"/>
      <feBlend in="SourceGraphic" in2="effect1_dropShadow_8199_25906" result="shape"/>
    </filter>
    <filter id="b" x="72" y="461" width="52" height="52" filterUnits="userSpaceOnUse" color-interpolation-filters="sRGB">
      <feFlood flood-opacity="0" result="BackgroundImageFix"/>
      <feColorMatrix in="SourceAlpha" values="0 0 0 0 0 0 0 0 0 0 0 0 0 0 0 0 0 0 127 0" result="hardAlpha"/>
      <feOffset/>
      <feGaussianBlur stdDeviation="5"/>
      <feColorMatrix values="0 0 0 0 0 0 0 0 0 0.348833 0 0 0 0 0.758333 0 0 0 0.1 0"/>
      <feBlend in2="BackgroundImageFix" result="effect1_dropShadow_8199_25906"/>
      <feBlend in="SourceGraphic" in2="effect1_dropShadow_8199_25906" result="shape"/>
    </filter>
    <filter id="c" x="60" y="682" width="52" height="52" filterUnits="userSpaceOnUse" color-interpolation-filters="sRGB">
      <feFlood flood-opacity="0" result="BackgroundImageFix"/>
      <feColorMatrix in="SourceAlpha" values="0 0 0 0 0 0 0 0 0 0 0 0 0 0 0 0 0 0 127 0" result="hardAlpha"/>
      <feOffset/>
      <feGaussianBlur stdDeviation="5"/>
      <feColorMatrix values="0 0 0 0 0 0 0 0 0 0.348833 0 0 0 0 0.758333 0 0 0 0.1 0"/>
      <feBlend in2="BackgroundImageFix" result="effect1_dropShadow_8199_25906"/>
      <feBlend in="SourceGraphic" in2="effect1_dropShadow_8199_25906" result="shape"/>
    </filter>
    <filter id="d" x="41" y="270" width="52" height="52" filterUnits="userSpaceOnUse" color-interpolation-filters="sRGB">
      <feFlood flood-opacity="0" result="BackgroundImageFix"/>
      <feColorMatrix in="SourceAlpha" values="0 0 0 0 0 0 0 0 0 0 0 0 0 0 0 0 0 0 127 0" result="hardAlpha"/>
      <feOffset/>
      <feGaussianBlur stdDeviation="5"/>
      <feColorMatrix values="0 0 0 0 0 0 0 0 0 0.348833 0 0 0 0 0.758333 0 0 0 0.1 0"/>
      <feBlend in2="BackgroundImageFix" result="effect1_dropShadow_8199_25906"/>
      <feBlend in="SourceGraphic" in2="effect1_dropShadow_8199_25906" result="shape"/>
    </filter>
  </defs>
</svg>
