<svg width="128" height="140" fill="none" xmlns="http://www.w3.org/2000/svg">
  <g filter="url(#a)">
    <path d="M62 17.2a4 4 0 0 1 4 0l39.3 22.6c1.2.8 2 2 2 3.5v45.4a4 4 0 0 1-2 3.5L66 114.8a4 4 0 0 1-4 0L22.7 92.2a4 4 0 0 1-2-3.5V43.3a4 4 0 0 1 2-3.5L62 17.2Z" fill="url(#b)"/>
  </g>
  <mask id="c" style="mask-type:alpha" maskUnits="userSpaceOnUse" x="20" y="16" width="88" height="100">
    <path d="M62 17.2a4 4 0 0 1 4 0l39.3 22.6c1.2.8 2 2 2 3.5v45.4a4 4 0 0 1-2 3.5L66 114.8a4 4 0 0 1-4 0L22.7 92.2a4 4 0 0 1-2-3.5V43.3a4 4 0 0 1 2-3.5L62 17.2Z" fill="#D9D9D9"/>
  </mask>
  <g mask="url(#c)">
    <circle cx="56" cy="48" r="48" fill="#fff" style="mix-blend-mode:soft-light" opacity=".5"/>
    <circle cx="45.5" cy="37.5" r="37.5" fill="#fff" style="mix-blend-mode:soft-light" opacity=".5"/>
    <g filter="url(#d)">
      <circle cx="87.8" cy="40.8" r="3.6" transform="rotate(25 87.8 40.8)" fill="#fff"/>
    </g>
    <circle cx="87.8" cy="40.8" r="1.9" transform="rotate(25 87.8 40.8)" fill="#fff"/>
    <g filter="url(#e)">
      <circle cx="34.5" cy="90.2" r="2.6" transform="rotate(25 34.5 90.2)" fill="#fff"/>
    </g>
    <circle cx="34.5" cy="90.2" r="1.4" transform="rotate(25 34.5 90.2)" fill="#fff"/>
    <path d="M52.3 80.6v-5c.8-.5 2.3-3.4 2.6-5.9.7 0 1.8-.7 2-3.3.2-1.4-.4-2.2-.8-2.5 1-3.3 3.4-13.7-4.3-14.8C51 47.7 49 47 46.4 47c-10.5.2-11.8 8-9.5 17-.4.2-1 1-.9 2.4.3 2.6 1.4 3.3 2 3.3.4 2.5 2 5.4 2.8 5.9v5c-2.2 5.6-16.2 4-16.8 15l22.4 9.4L69 95.5c-.6-10.8-14.6-9.3-16.7-14.9Z" fill="#fff" style="mix-blend-mode:soft-light"/>
    <path d="M88 84.4c-.2-1.6-.2-2.8-.2-4.2.8-.4 2-2.9 2.3-5 .6 0 1.5-.6 1.7-2.8.2-1.2-.4-1.9-.7-2.1 1-2.8 2.8-11.6-3.6-12.5-.7-1.2-2.4-1.8-4.6-1.8-8.8.2-10 6.7-8 14.3a2 2 0 0 0-.7 2c.2 2.3 1.1 2.9 1.7 3 .2 2 1.6 4.5 2.3 4.9v4.2C76.3 89.2 64.4 87.8 64 97l19 8 19-8c-.5-9.2-12.3-7.8-14-12.6Z" fill="#fff" style="mix-blend-mode:soft-light"/>
    <path d="M52.3 80.6v-5c.8-.5 2.3-3.4 2.6-5.9.7 0 1.8-.7 2-3.3.2-1.4-.4-2.2-.8-2.5 1-3.3 3.4-13.7-4.3-14.8C51 47.7 49 47 46.4 47c-10.5.2-11.8 8-9.5 17-.4.2-1 1-.9 2.4.3 2.6 1.4 3.3 2 3.3.4 2.5 2 5.4 2.8 5.9v5c-2.2 5.6-16.2 4-16.8 15l22.4 9.4L69 95.5c-.6-10.8-14.6-9.3-16.7-14.9Z" fill="#fff" style="mix-blend-mode:soft-light" opacity=".5"/>
    <path d="M88 84.4c-.2-1.6-.2-2.8-.2-4.2.8-.4 2-2.9 2.3-5 .6 0 1.5-.6 1.7-2.8.2-1.2-.4-1.9-.7-2.1 1-2.8 2.8-11.6-3.6-12.5-.7-1.2-2.4-1.8-4.6-1.8-8.8.2-10 6.7-8 14.3a2 2 0 0 0-.7 2c.2 2.3 1.1 2.9 1.7 3 .2 2 1.6 4.5 2.3 4.9v4.2C76.3 89.2 64.4 87.8 64 97l19 8 19-8c-.5-9.2-12.3-7.8-14-12.6Z" fill="#fff" style="mix-blend-mode:soft-light" opacity=".5"/>
    <path d="M71.8 85.3c-.2-2.5-.2-4.3-.2-6.6 1.2-.6 3.3-4.4 3.6-7.7 1 0 2.3-1 2.8-4.4.2-2-.7-3-1.3-3.3 1.5-4.4 4.6-18.1-5.6-19.5-1-1.9-3.8-2.8-7.2-2.8-14 .3-15.7 10.5-12.6 22.3-.6.3-1.5 1.4-1.3 3.3.5 3.4 1.9 4.3 2.8 4.4.3 3.3 2.5 7.1 3.6 7.7 0 2.3.1 4.1-.1 6.6-2.8 7.5-21.4 5.4-22.3 19.7l29.9 12.5L94 105c-.9-14.3-19.4-12.2-22.2-19.7Z" fill="#fff"/>
  </g>
  <defs>
    <filter id="a" x=".7" y=".6" width="126.6" height="138.8" filterUnits="userSpaceOnUse" color-interpolation-filters="sRGB">
      <feFlood flood-opacity="0" result="BackgroundImageFix"/>
      <feColorMatrix in="SourceAlpha" values="0 0 0 0 0 0 0 0 0 0 0 0 0 0 0 0 0 0 127 0" result="hardAlpha"/>
      <feOffset dy="4"/>
      <feGaussianBlur stdDeviation="10"/>
      <feComposite in2="hardAlpha" operator="out"/>
      <feColorMatrix values="0 0 0 0 0.866667 0 0 0 0 0 0 0 0 0 0.235238 0 0 0 0.25 0"/>
      <feBlend in2="BackgroundImageFix" result="effect1_dropShadow_7872_31942"/>
      <feBlend in="SourceGraphic" in2="effect1_dropShadow_7872_31942" result="shape"/>
    </filter>
    <filter id="d" x="74.2" y="27.2" width="27.2" height="27.2" filterUnits="userSpaceOnUse" color-interpolation-filters="sRGB">
      <feFlood flood-opacity="0" result="BackgroundImageFix"/>
      <feBlend in="SourceGraphic" in2="BackgroundImageFix" result="shape"/>
      <feGaussianBlur stdDeviation="5" result="effect1_foregroundBlur_7872_31942"/>
    </filter>
    <filter id="e" x="21.9" y="77.6" width="25.3" height="25.3" filterUnits="userSpaceOnUse" color-interpolation-filters="sRGB">
      <feFlood flood-opacity="0" result="BackgroundImageFix"/>
      <feBlend in="SourceGraphic" in2="BackgroundImageFix" result="shape"/>
      <feGaussianBlur stdDeviation="5" result="effect1_foregroundBlur_7872_31942"/>
    </filter>
    <linearGradient id="b" x1="32.5" y1="103.3" x2="94.3" y2="30.9" gradientUnits="userSpaceOnUse">
      <stop stop-color="#650101"/>
      <stop offset="1" stop-color="#EC0055"/>
    </linearGradient>
  </defs>
</svg>
