<svg xmlns="http://www.w3.org/2000/svg" width="52" height="52" fill="none"><mask id="a" width="52" height="52" x="0" y="0" maskUnits="userSpaceOnUse" style="mask-type:alpha"><path fill="#787878" d="M0 0h52v52H0z"/></mask><g fill="#e80061" mask="url(#a)"><path d="M16.824 20.647c0-.422.342-.765.765-.765h28.294c.422 0 .765.342.765.765v9.941a.765.765 0 1 1-1.53 0v-9.176H18.354v16.824h21.412c.179 0 .352.063.489.177l3.334 2.778V39c0-.422.342-.765.765-.765h.765v-4.206a.765.765 0 1 1 1.53 0V39a.765.765 0 0 1-.765.765h-.765v3.059a.764.764 0 0 1-1.254.587l-4.376-3.646h-21.9a.765.765 0 0 1-.765-.765V20.647zm18.352-9.176a.765.765 0 0 0-.765-.765H17.779a.765.765 0 1 0 0 1.53h15.868v5.353a.765.765 0 1 0 1.53 0v-6.118zm-19.596 0a.765.765 0 0 0-.765-.765h-2.198a.765.765 0 1 0 0 1.53h2.198a.765.765 0 0 0 .765-.765zm-5.448 0a.765.765 0 0 0-.765-.765h-3.25a.765.765 0 0 0-.765.765v19.882c0 .422.342.765.765.765h.765v3.059a.766.766 0 0 0 1.254.588l4.376-3.646h2.017a.765.765 0 1 0 0-1.53h-2.294a.765.765 0 0 0-.489.177l-3.334 2.778v-2.191a.765.765 0 0 0-.765-.765h-.765V12.236h2.485a.765.765 0 0 0 .765-.765zm38.809 16.058c.422 0 .765.342.765.765v4.588a.765.765 0 1 1-1.53 0v-4.588c0-.422.342-.765.765-.765zM21.41 26c0-.422.342-.765.765-.765h19.118a.765.765 0 1 1 0 1.53H22.175A.765.765 0 0 1 21.41 26zm0 4.588c0-.422.342-.765.765-.765h9.941a.765.765 0 1 1 0 1.53h-9.941a.765.765 0 0 1-.765-.765zM9.941 16.823c0-.422.342-.765.765-.765h19.118a.765.765 0 1 1 0 1.53H10.706a.765.765 0 0 1-.765-.765zm0 4.589c0-.422.342-.765.765-.765h3.824a.765.765 0 1 1 0 1.53h-3.824a.765.765 0 0 1-.765-.765zm32.5-11.471c.422 0 .765.342.765.765v5.353a.765.765 0 1 1-1.53 0v-5.353c0-.422.342-.765.765-.765z"/><path d="M39 13.382c0-.422.342-.765.765-.765h5.353a.765.765 0 1 1 0 1.53h-5.353a.765.765 0 0 1-.765-.765zM36.325 3.059a1.15 1.15 0 0 0-1.147 1.147 1.15 1.15 0 0 0 1.147 1.147 1.15 1.15 0 0 0 1.147-1.147 1.15 1.15 0 0 0-1.147-1.147zm-2.676 1.147a2.676 2.676 0 1 1 5.352 0 2.676 2.676 0 0 1-5.352 0zM10.325 41.294a1.15 1.15 0 0 0-1.147 1.147 1.15 1.15 0 0 0 1.147 1.147 1.15 1.15 0 0 0 1.147-1.147 1.15 1.15 0 0 0-1.147-1.147zm-2.676 1.147a2.676 2.676 0 1 1 5.353 0 2.68 2.68 0 0 1-2.677 2.677 2.675 2.675 0 0 1-2.676-2.677zM6.883 8.412c0-.422.342-.765.765-.765h4.588a.765.765 0 1 1 0 1.53H7.648a.765.765 0 0 1-.765-.765z"/></g></svg>