<svg xmlns="http://www.w3.org/2000/svg" width="52" height="52" fill="none">
  <mask id="A" maskUnits="userSpaceOnUse" x="0" y="0" width="52" height="52" style="mask-type:alpha">
    <path fill="#787878" d="M0 0h52v52H0z"/>
  </mask>
  <g mask="url(#A)">
    <path
          d="M7.648 21.412c0-.422.342-.765.765-.765h4.588c.422 0 .765.342.765.765s-.342.765-.765.765H9.178v9.941c0 .422-.342.765-.765.765s-.765-.342-.765-.765V21.412zm30.588 0c0-.422.342-.765.765-.765h4.588c.422 0 .765.342.765.765v22.941c0 .422-.342.765-.765.765H8.413c-.422 0-.765-.342-.765-.765v-8.794c0-.422.342-.765.765-.765s.765.342.765.765v8.029h33.647V22.176h-3.824c-.422 0-.765-.342-.765-.765z"
          fill="#e80061"/>
    <path
          d="M7.785 20.975c.241-.347.718-.432 1.064-.191l17.151 11.932 17.152-11.931c.347-.241.823-.156 1.064.191s.156.823-.191 1.064L26.438 34.275c-.262.183-.611.183-.873 0L7.977 22.04c-.347-.241-.432-.718-.191-1.064z"
          fill="#e80061"/>
    <path
          d="M12.234 10.706c0-.422.342-.765.765-.765h26c.422 0 .765.342.765.765v3.25c0 .422-.342.765-.765.765s-.765-.342-.765-.765v-2.485h-24.47v12.618c0 .422-.342.765-.765.765s-.765-.342-.765-.765V10.706zm26.765 6.404c.422 0 .765.342.765.765v6.213c0 .422-.342.765-.765.765s-.765-.342-.765-.765v-6.213c0-.422.342-.765.765-.765zm-18.8 20.811c.173.385.002.838-.384 1.011l-7.647 3.441c-.385.173-.838.002-1.011-.384s-.002-.838.383-1.011l7.647-3.441c.385-.173.838-.002 1.011.384zm11.602 0c-.173.385-.002.838.383 1.011l7.647 3.441c.385.173.838.002 1.011-.384s.002-.838-.383-1.011l-7.647-3.441c-.385-.173-.838-.002-1.011.384zm-.671-22.785c.299.299.299.783 0 1.081l-9.176 9.176c-.299.299-.783.299-1.082 0s-.299-.783 0-1.081l9.177-9.176c.299-.299.783-.299 1.081 0zm-8.953 1.687c-.422 0-.765.342-.765.765s.342.765.765.765.765-.342.765-.765-.342-.765-.765-.765zm-2.294.765c0-1.267 1.027-2.294 2.294-2.294s2.294 1.027 2.294 2.294-1.027 2.294-2.294 2.294-2.294-1.027-2.294-2.294zm9.177 5.353c-.422 0-.765.342-.765.765s.342.765.765.765.765-.342.765-.765-.342-.765-.765-.765zm-2.294.765c0-1.267 1.027-2.294 2.294-2.294s2.294 1.027 2.294 2.294S30.327 26 29.06 26s-2.294-1.027-2.294-2.294zm15.292-11.471c.422 0 .765.342.765.765v3.059c0 .422-.342.765-.765.765s-.765-.342-.765-.765V13c0-.422.342-.765.765-.765zm2.676-9.941c.422 0 .765.342.765.765v5.353c0 .422-.342.765-.765.765s-.765-.342-.765-.765V3.059c0-.422.342-.765.765-.765z"
          fill="#e80061"/>
    <path
          d="M41.293 5.735c0-.422.342-.765.765-.765h5.353c.422 0 .765.342.765.765s-.342.765-.765.765h-5.353c-.422 0-.765-.342-.765-.765zM5.735 16.059a1.15 1.15 0 0 0-1.147 1.147 1.15 1.15 0 0 0 1.147 1.147c.633 0 1.147-.513 1.147-1.147s-.514-1.147-1.147-1.147zm-2.676 1.147c0-1.478 1.198-2.677 2.676-2.677s2.676 1.198 2.676 2.677-1.198 2.676-2.676 2.676-2.676-1.198-2.676-2.676zm2.296 14.147c.422 0 .765.342.765.765v5.353c0 .422-.342.765-.765.765s-.765-.342-.765-.765v-5.353c0-.422.342-.765.765-.765z"
          fill="#e80061"/>
  </g>
</svg>