<svg xmlns="http://www.w3.org/2000/svg" xmlns:xlink="http://www.w3.org/1999/xlink" width="52" height="52" fill="none"><mask id="a" width="52" height="52" x="0" y="0" maskUnits="userSpaceOnUse" style="mask-type:alpha"><path fill="#787878" d="M0 0h52v52H0z"/></mask><g fill="#e80061" mask="url(#a)"><path d="M46.266 3.059a1.15 1.15 0 0 0-1.147 1.147 1.15 1.15 0 0 0 1.147 1.147 1.15 1.15 0 0 0 1.147-1.147 1.15 1.15 0 0 0-1.147-1.147zM43.59 4.206a2.676 2.676 0 1 1 5.352 0 2.676 2.676 0 0 1-5.352 0zM7.266 45.118a1.15 1.15 0 0 0-1.147 1.147 1.15 1.15 0 0 0 1.147 1.147 1.15 1.15 0 0 0 1.147-1.147 1.15 1.15 0 0 0-1.147-1.147zM4.59 46.265a2.676 2.676 0 1 1 5.352 0 2.676 2.676 0 0 1-5.352 0zM3.059 39a1.53 1.53 0 0 1-1.529 1.529A1.53 1.53 0 0 1 0 39a1.53 1.53 0 0 1 1.529-1.529A1.53 1.53 0 0 1 3.059 39zM4.59 10.706c0-.422.342-.765.765-.765h6.118a.765.765 0 1 1 0 1.53H5.355a.765.765 0 0 1-.765-.765zm9.176 0c0-.422.342-.765.765-.765h23.706a.765.765 0 1 1 0 1.53H14.531a.765.765 0 0 1-.765-.765zm26.765 0c0-.422.342-.765.765-.765h6.118a.765.765 0 1 1 0 1.53h-6.118a.765.765 0 0 1-.765-.765zM4.59 38.235c0-.422.342-.765.765-.765h42.059a.765.765 0 1 1 0 1.53H5.355a.765.765 0 0 1-.765-.765z"/><path d="M26.769 38.235c.422 0 .765.342.765.765v2.294a.765.765 0 1 1-1.53 0V39c0-.422.342-.765.765-.765z"/><path d="M26.767 42.823a.765.765 0 1 0 0 1.53.765.765 0 0 0 0-1.53zm-2.294.765a2.294 2.294 0 1 1 4.588 0 2.294 2.294 0 0 1-4.588 0zM6.882 9.941c.422 0 .765.342.765.765v8.029a.765.765 0 1 1-1.53 0v-8.029c0-.422.342-.765.765-.765zm0 11.088c.422 0 .765.342.765.765v2.294a.765.765 0 1 1-1.53 0v-2.294c0-.422.342-.765.765-.765zm0 5.353c.422 0 .765.342.765.765v10.706a.765.765 0 1 1-1.53 0V27.147c0-.422.342-.765.765-.765zm39-16.058c.422 0 .765.342.765.765v26.382a.765.765 0 1 1-1.53 0V11.088c0-.422.342-.765.765-.765zm-26.385 6.5a7.265 7.265 0 0 0-4.94 12.592.764.764 0 1 1-1.041 1.121 8.77 8.77 0 0 1-2.814-6.448 8.794 8.794 0 0 1 8.794-8.794 8.75 8.75 0 0 1 4.925 1.508.764.764 0 1 1-.858 1.266 7.224 7.224 0 0 0-4.068-1.245zm5.605 1.465a.764.764 0 0 1 1.078.084 8.76 8.76 0 0 1 2.111 5.716 8.794 8.794 0 0 1-8.794 8.794 8.76 8.76 0 0 1-3.87-.895.765.765 0 1 1 .673-1.372 7.23 7.23 0 0 0 3.196.739 7.265 7.265 0 0 0 5.522-11.986.764.764 0 0 1 .084-1.078z"/><path d="M22.443 20.105a.602.602 0 0 0-.307-.424 4.5 4.5 0 0 0-.855-.343 5.58 5.58 0 0 0-1.003-.194v-.792a.765.765 0 1 0-1.53 0v.765a.76.76 0 0 0 .005.083 3.6 3.6 0 0 0-.945.304c-.517.258-.907.607-1.17 1.049a2.803 2.803 0 0 0-.382 1.45c0 .635.144 1.141.431 1.519.296.368.644.64 1.046.815l.415.162 1.253-1.282-.621-.205a1.916 1.916 0 0 1-.677-.414.925.925 0 0 1-.259-.677 1.15 1.15 0 0 1 .456-.953c.312-.239.784-.359 1.416-.359.386 0 .784.064 1.194.193l.357.129a.95.95 0 0 0 .301.069l.874-.894zm-.402 4.116-1.192 1.192a1.54 1.54 0 0 1 .259.221.9.9 0 0 1 .271.677 1.07 1.07 0 0 1-.48.911c-.312.23-.788.345-1.428.345a4.12 4.12 0 0 1-.715-.062l-1.231 1.231a5.98 5.98 0 0 0 1.225.279l-.001.042v.765a.765.765 0 1 0 1.53 0v-.765l-.002-.055a3.74 3.74 0 0 0 1.115-.332c.525-.258.915-.603 1.17-1.036.263-.433.394-.916.394-1.45 0-.626-.148-1.123-.443-1.491a2.75 2.75 0 0 0-.471-.475zm5.264-7.173a.765.765 0 0 1 0 1.082L13.54 31.894a.763.763 0 1 1-1.081-1.081l13.765-13.765a.763.763 0 0 1 1.081 0z"/><use xlink:href="#b"/><use xlink:href="#b" y="10.706"/><use xlink:href="#c"/><use xlink:href="#c" y="10.706"/><path d="M31.356 23.706c0-.422.342-.765.765-.765h2.294a.765.765 0 1 1 0 1.53H32.12a.765.765 0 0 1-.765-.765zm4.589 0c0-.422.342-.765.765-.765h4.588a.765.765 0 1 1 0 1.53H36.71a.765.765 0 0 1-.765-.765z"/><use xlink:href="#d"/><use xlink:href="#d" x="-23.707"/></g><defs><path id="b" d="M31.356 17.588c0-.422.342-.765.765-.765h9.176a.765.765 0 1 1 0 1.53H32.12a.765.765 0 0 1-.765-.765z"/><path id="c" d="M31.356 20.647c0-.422.342-.765.765-.765h4.588a.765.765 0 1 1 0 1.53H32.12a.765.765 0 0 1-.765-.765z"/><path id="d" d="M35.176 7.647c0-.422.342-.765.765-.765h4.588a.765.765 0 1 1 0 1.53h-4.588a.765.765 0 0 1-.765-.765z"/></defs></svg>