<svg xmlns="http://www.w3.org/2000/svg" width="52" height="52" fill="none"><mask id="a" width="52" height="52" x="0" y="0" maskUnits="userSpaceOnUse" style="mask-type:alpha"><path fill="#787878" d="M0 0h52v52H0z"/></mask><g fill="#e80061" mask="url(#a)"><path d="M10.7 6.12c0-.42.35-.77.77-.77h38.24c.42 0 .76.35.76.77v26.76c0 .43-.34.77-.76.77h-4.2a.76.76 0 1 1 0-1.53h3.43V6.88h-36.7v2.4a.76.76 0 1 1-1.53 0V6.13zm29.07 26.76c0-.42.34-.76.76-.76h2.68a.76.76 0 1 1 0 1.53h-2.68a.76.76 0 0 1-.76-.77zM7.65 17.58a5.35 5.35 0 0 1 10.7 0v3.83a5.35 5.35 0 0 1-10.7 0V17.6zM13 13.77a3.82 3.82 0 0 0-3.82 3.83v3.82a3.82 3.82 0 1 0 7.64 0V17.6A3.82 3.82 0 0 0 13 13.76zM3.06 36.32a7.27 7.27 0 0 1 7.26-7.26h23.71a3.44 3.44 0 1 1 0 6.88H22.56v5.35a.76.76 0 1 1-1.53 0v-6.11c0-.43.34-.77.76-.77h12.24a1.91 1.91 0 1 0 0-3.82h-23.7a5.73 5.73 0 0 0-5.74 5.73v11.1a.76.76 0 1 1-1.53 0v-11.1zm18.73 8.03c.43 0 .77.34.77.77v2.3a.76.76 0 1 1-1.53 0v-2.3c0-.42.34-.77.76-.77z"/><path d="M9.94 29.82c0-.42.34-.76.77-.76h4.58c.43 0 .77.34.77.76v.77A3.06 3.06 0 0 1 13 33.65a3.06 3.06 0 0 1-3.06-3.06v-.77zm1.53.77A1.53 1.53 0 0 0 13 32.12a1.53 1.53 0 0 0 1.53-1.53h-3.06z"/><path d="M10.7 32.82c.04-.4.37-.7.77-.7h3.06c.4 0 .73.3.76.7l.77 9.84c.02.26-.1.52-.32.68l-2.3 1.64a.76.76 0 0 1-.88 0l-2.3-1.64a.76.76 0 0 1-.32-.69l.77-9.83zm1.48.83-.68 8.7L13 43.4l1.5-1.07-.68-8.7h-1.64zm30.76-21.23c.32.28.35.77.08 1.08l-8.03 9.18a.76.76 0 0 1-1.04.1l-4.03-3.01-6.41 7.12a.77.77 0 0 1-1.14-1.02l6.88-7.65a.76.76 0 0 1 1.03-.1l4.02 3.02 7.56-8.64a.76.76 0 0 1 1.08-.08z"/><path d="M42.9 12.01c.21.16.33.42.3.68l-.38 4.2a.76.76 0 1 1-1.52-.14l.27-3-3.07 1.12a.76.76 0 1 1-.53-1.44l4.2-1.53a.76.76 0 0 1 .74.11zm-6.2 23.93c0-.42.35-.76.77-.76h7.27a.76.76 0 1 1 0 1.53h-7.27a.76.76 0 0 1-.76-.77zM3.45 5.35c.42 0 .76.35.76.77v5.35a.76.76 0 1 1-1.53 0V6.12c0-.42.35-.77.77-.77z"/><path d="M0 8.8c0-.43.34-.77.77-.77h5.35a.76.76 0 1 1 0 1.53H.76A.76.76 0 0 1 0 8.79zm43.97 31.73c.42 0 .77.34.77.76v5.36a.76.76 0 1 1-1.53 0v-5.36c0-.42.34-.76.76-.76z"/><path d="M40.53 43.97c0-.42.34-.76.77-.76h5.35a.76.76 0 1 1 0 1.53H41.3a.76.76 0 0 1-.77-.77zm-7.26-2.68a1.15 1.15 0 0 0-1.15 1.15 1.15 1.15 0 0 0 1.15 1.15 1.15 1.15 0 0 0 1.14-1.15 1.15 1.15 0 0 0-1.14-1.15zm-2.68 1.15a2.68 2.68 0 1 1 2.68 2.68 2.68 2.68 0 0 1-2.68-2.68z"/></g></svg>