<svg xmlns="http://www.w3.org/2000/svg" width="52" height="52" fill="none"><mask id="a" width="52" height="52" x="0" y="0" maskUnits="userSpaceOnUse" style="mask-type:alpha"><path fill="#787878" d="M0 0h52v52H0z"/></mask><g fill="#e80061" mask="url(#a)"><path d="M45.88 11.47A1.53 1.53 0 0 1 44.35 13a1.53 1.53 0 0 1-1.53-1.53 1.53 1.53 0 0 1 1.53-1.53 1.53 1.53 0 0 1 1.53 1.53zM6.12 40.53a1.53 1.53 0 0 1-1.53 1.53 1.53 1.53 0 0 1-1.53-1.53A1.53 1.53 0 0 1 4.59 39a1.53 1.53 0 0 1 1.53 1.53zM40.15.77c.42 0 .76.34.76.76v5.35a.76.76 0 1 1-1.53 0V1.53c0-.42.35-.77.77-.77z"/><path d="M36.7 4.2c0-.42.35-.76.77-.76h5.36a.76.76 0 1 1 0 1.53h-5.36a.76.76 0 0 1-.76-.76zM26 15.3A10.71 10.71 0 0 0 15.3 26 10.71 10.71 0 0 0 26 36.7 10.71 10.71 0 0 0 36.7 26c0-.6-.04-1.2-.14-1.78a.77.77 0 0 1 1.5-.26 12.31 12.31 0 0 1 .18 2.04A12.24 12.24 0 0 1 26 38.23 12.24 12.24 0 0 1 13.77 26 12.24 12.24 0 0 1 26 13.77c4.84 0 9.03 2.81 11.01 6.89a.77.77 0 0 1-1.37.67A10.7 10.7 0 0 0 26 15.29z"/><path d="M21.89 18.42a6.73 6.73 0 0 0-2.02-1.21l.48-1.45c.8.26 1.7.8 2.52 1.48s1.6 1.55 2.1 2.51.8 2.08.46 3.2c-.33 1.13-1.23 2.09-2.71 2.83-1.04.52-1.42.98-1.58 1.33-.16.35-.18.68-.2 1.18v.24a3.55 3.55 0 0 1-.7 2.13c-.55.72-1.5 1.36-3.03 1.94l-.55-1.42c1.42-.55 2.06-1.05 2.37-1.45.29-.38.35-.75.37-1.28l.01-.2c.02-.48.04-1.14.34-1.78.36-.77 1.06-1.45 2.28-2.06 1.24-.62 1.76-1.3 1.94-1.9.17-.6.05-1.3-.34-2.04s-1.03-1.46-1.74-2.05zm4.27-4.04c.42.09.68.5.59.91-.17.75-.13 1.3 0 1.7s.35.75.64 1.07a.77.77 0 0 1-1.12 1.04c-.4-.43-.78-.96-.99-1.66s-.24-1.52-.03-2.48c.1-.41.5-.67.92-.58zm7.46 6.37c-.27.18-.51.49-.51 1.17 0 .85-.4 1.5-1 1.88-.57.36-1.27.46-1.89.38s-1.27-.34-1.73-.83a2.16 2.16 0 0 1-.52-2.07.68.68 0 0 0-.07-.56.77.77 0 0 1 1.32-.77c.29.48.4 1.05.24 1.7-.08.31 0 .5.14.65.16.17.46.32.81.36s.67-.02.87-.15c.17-.1.3-.27.3-.59 0-1.13.44-1.95 1.19-2.45.69-.46 1.55-.58 2.29-.58a.76.76 0 1 1 0 1.53c-.62 0-1.12.11-1.45.33zm2.71 8.96a10.9 10.9 0 0 0-8.85-2.96c-.2.04-.58.23-1.14.6a.77.77 0 0 1-.84-1.28 5.01 5.01 0 0 1 1.73-.82c1.97-.33 6.7-.11 10.19 3.38a.76.76 0 1 1-1.08 1.08zm-11.96-1.87c.23.35.14.83-.21 1.06-.33.22-.4.34-.42.39-.02.05-.04.14-.03.45a.76.76 0 1 1-1.53.05c-.01-.31-.02-.72.17-1.13.19-.42.52-.74.96-1.03a.77.77 0 0 1 1.06.21zm-1.4 3.3c.42.08.69.49.6.9-.21 1.1-.8 1.95-1.42 2.55s-1.29 1-1.76 1.18a.76.76 0 0 1-.57-1.42c.29-.11.8-.4 1.26-.85s.85-1.04 1-1.76a.77.77 0 0 1 .9-.6zm2.27-23.5c0-.42.34-.76.76-.76 7.2 0 13.47 3.98 16.73 9.86a.76.76 0 1 1-1.34.74C38.4 12.07 32.62 8.4 26 8.4a.76.76 0 0 1-.76-.76z"/><path d="M30.13 5.4c.19.37.03.83-.34 1.02l-2.74 1.37 2.48 1.93a.77.77 0 0 1-.94 1.2l-3.44-2.67a.76.76 0 0 1 .13-1.29l3.82-1.9a.76.76 0 0 1 1.03.33zM10.3 35.54a.77.77 0 0 1-1.04-.3 19.11 19.11 0 0 1 .53-19.4.76.76 0 0 1 1.3.8 17.58 17.58 0 0 0-.49 17.86c.2.37.07.84-.3 1.04z"/><path d="M5.97 32.36a.76.76 0 0 1 1.07-.2l2.52 1.74.49-3.11a.77.77 0 0 1 1.5.24l-.67 4.3a.77.77 0 0 1-1.19.52l-3.52-2.43a.76.76 0 0 1-.2-1.06zm36.33 2.1c.37.21.5.68.28 1.05a19.11 19.11 0 0 1-16.86 9.6.76.76 0 0 1 .02-1.52c6.18.08 12.22-3.1 15.52-8.84a.77.77 0 0 1 1.04-.29z"/><path d="M41.82 39.83a.76.76 0 0 1-.72-.81l.18-3.06-2.91 1.2a.77.77 0 0 1-.58-1.42l4.03-1.65a.76.76 0 0 1 .73.08c.22.15.34.4.32.67l-.24 4.26a.76.76 0 0 1-.8.73zm-31.88.7A1.53 1.53 0 0 1 11.47 39h7.65a1.53 1.53 0 0 1 1.53 1.53v1.53a.76.76 0 1 1-1.53 0v-1.53h-7.65v7.65h7.65v-3.83a.76.76 0 1 1 1.53 0v3.83a1.53 1.53 0 0 1-1.53 1.52h-7.65a1.53 1.53 0 0 1-1.53-1.52v-7.65zm7.72 1.68c.34.26.41.74.16 1.07l-2.3 3.06a.77.77 0 0 1-.55.3.76.76 0 0 1-.6-.22l-1.15-1.14a.76.76 0 1 1 1.08-1.08l.53.52 1.76-2.35a.77.77 0 0 1 1.07-.16zm22.87-20.03a1.53 1.53 0 0 1 1.53-1.53h3.82a.76.76 0 1 1 0 1.53h-3.82v7.64h7.65v-7.64h-1.53a.76.76 0 1 1 0-1.53h1.53a1.53 1.53 0 0 1 1.53 1.53v7.64a1.53 1.53 0 0 1-1.53 1.53h-7.65a1.53 1.53 0 0 1-1.53-1.53v-7.64zm7.72 1.68c.34.25.41.73.16 1.07l-2.3 3.06a.77.77 0 0 1-.55.3.76.76 0 0 1-.6-.22l-1.15-1.15a.76.76 0 1 1 1.09-1.08l.52.53L47.18 24a.77.77 0 0 1 1.08-.15zM10.71 3.82a1.53 1.53 0 0 1 1.53-1.53h7.64a1.53 1.53 0 0 1 1.53 1.53v7.65A1.53 1.53 0 0 1 19.88 13h-7.64a1.53 1.53 0 0 1-1.53-1.53V9.94a.76.76 0 1 1 1.53 0v1.53h7.65V3.82h-7.65v3.83a.76.76 0 1 1-1.53 0V3.82zm7.72 1.69c.34.25.4.73.15 1.07l-2.3 3.06a.77.77 0 0 1-.55.3.76.76 0 0 1-.6-.22L14 8.57a.76.76 0 1 1 1.08-1.08l.53.52 1.76-2.35a.77.77 0 0 1 1.07-.15z"/></g></svg>