<svg xmlns="http://www.w3.org/2000/svg" width="27" height="26" fill="none" xmlns:v="https://vecta.io/nano"><path d="M18.742 18.254c-1.194 0-2.161.95-2.161 2.122s.968 2.122 2.161 2.122 2.161-.95 2.161-2.122-.968-2.122-2.161-2.122zm0 0H8.333c-.538 0-.994-.388-1.07-.911l-.331-2.272m-4.4-11.67h2.702l.309 2.122m0 0h.232 17.29l-3.242 9.548H7.396h-.463M5.543 5.523l1.389 9.548m5.326 5.304c0 1.172-.968 2.122-2.161 2.122s-2.161-.95-2.161-2.122.968-2.122 2.161-2.122 2.161.95 2.161 2.122z" stroke="#fff" stroke-width="1.123" stroke-linecap="round" stroke-linejoin="round"/></svg>