<svg xmlns="http://www.w3.org/2000/svg" width="26" height="26" fill="none" xmlns:v="https://vecta.io/nano"><path d="M5.634 3.401V2.84a.56.56 0 0 0-.562.562h.562zm14.733 19.096v.562a.56.56 0 0 0 .562-.562h-.562zm-14.733 0h-.562a.56.56 0 0 0 .562.562v-.562zm9.471-19.096l.399-.396a.56.56 0 0 0-.399-.166v.562zm5.262 5.304h.562a.56.56 0 0 0-.163-.396l-.399.396zM8.791 17.692a.56.56 0 1 0 0 1.123v-1.123zm8.419 1.123a.56.56 0 1 0 0-1.123v1.123zm-8.419-5.367a.56.56 0 1 0 0 1.123v-1.123zm6.314 1.123a.56.56 0 1 0 0-1.123v1.123zm5.262 7.364H5.634v1.123h14.733v-1.123zm-14.172.562V3.401H5.072v19.096h1.123zM5.634 3.963h9.471V2.84H5.634v1.123zm14.172 4.743v13.791h1.123V8.706h-1.123zm-5.099-4.909l5.262 5.304.797-.791-5.262-5.304-.797.791zm-1.215-.396v4.243h1.123V3.401h-1.123zm2.666 6.927h4.21V9.205h-4.21v1.123zm-2.666-2.683c0 1.478 1.19 2.683 2.666 2.683V9.205c-.848 0-1.543-.694-1.543-1.56h-1.123zm-4.7 11.17h8.419v-1.123H8.791v1.123zm0-4.244h6.314v-1.123H8.791v1.123z" fill="#fff"/></svg>