<svg xmlns="http://www.w3.org/2000/svg" width="24" height="24" fill="none" xmlns:v="https://vecta.io/nano"><path d="M3.47 15.47A.75.75 0 0 0 4.53 16.53L3.47 15.47zM20 16l.53.53a.75.75 0 0 0 .22-.53H20zm0-12h.75a.75.75 0 0 0-1.28-.53L20 4zM4 4l-.53-.53a.75.75 0 0 0-.22.53H4zm-.75 17a.75.75 0 1 0 1.5 0h-1.5zM4 16l.53.531.09-.063c.098-.065.27-.166.534-.271.527-.211 1.431-.446 2.846-.446v-1.5c-1.585 0-2.68.264-3.404.554-.361.144-.626.294-.809.416l-.215.158-.065.056-.022.021-.015.014A48.54 48.54 0 0 0 4 16zm4-.25c1.336 0 2.458.441 3.722.946 1.236.494 2.614 1.054 4.278 1.054v-1.5c-1.335 0-2.458-.441-3.722-.946C11.042 14.809 9.664 14.25 8 14.25v1.5zm8 2c1.584 0 2.68-.264 3.404-.554.361-.144.626-.294.809-.416l.215-.158.064-.056.022-.021.015-.015c0 0 .001-.001-.529-.531l-.53-.531-.09.063c-.098.065-.27.166-.534.271-.527.211-1.431.446-2.846.446v1.5zM20.75 16V4h-1.5v12h1.5zM20 4l-.53-.531-.09.063c-.098.065-.27.166-.534.271-.527.211-1.431.446-2.846.446v1.5c1.584 0 2.68-.264 3.404-.554a4.41 4.41 0 0 0 .809-.416l.215-.158.064-.056.022-.021.015-.014c0 0 .001-.001-.529-.531zm-4 .25c-1.335 0-2.458-.441-3.722-.946C11.042 2.809 9.664 2.25 8 2.25v1.5c1.336 0 2.458.441 3.722.946C12.958 5.191 14.336 5.75 16 5.75v-1.5zm-8-2c-1.585 0-2.68.264-3.404.554-.361.144-.626.294-.809.416l-.215.158-.065.056-.022.021-.015.014c0 0-.001.001.53.531l.53.531.09-.063c.098-.065.27-.166.534-.271C5.68 3.986 6.585 3.75 8 3.75v-1.5zM3.25 4v17h1.5V4h-1.5z" fill="#fff"/></svg>