<svg xmlns="http://www.w3.org/2000/svg" width="26" height="26" fill="none" xmlns:v="https://vecta.io/nano"><path d="M19.314 20.375v-1.061c0-2.344-1.885-4.243-4.209-4.243h-4.209c-2.325 0-4.21 1.9-4.21 4.243v1.061m17.89 0v-1.061c0-2.344-1.885-4.243-4.209-4.243h-.526M1.424 20.375v-1.061c0-2.344 1.885-4.243 4.21-4.243h.526m12.102-3.183c1.744 0 3.157-1.425 3.157-3.183s-1.413-3.183-3.157-3.183M7.738 11.888c-1.744 0-3.157-1.425-3.157-3.183s1.414-3.183 3.157-3.183m8.419 3.183c0 1.758-1.413 3.183-3.157 3.183s-3.157-1.425-3.157-3.183S11.256 5.523 13 5.523s3.157 1.425 3.157 3.183z" stroke="#fff" stroke-width="1.123" stroke-linecap="round" stroke-linejoin="round"/></svg>