<svg xmlns="http://www.w3.org/2000/svg" width="26" height="27" fill="none" xmlns:v="https://vecta.io/nano"><g clip-path="url(#A)"><path d="M21.323 11.494v8.456c0 1.168-.946 2.114-2.113 2.114H6.535c-1.167 0-2.112-.947-2.112-2.114v-8.456m11.619-4.228V6.208c0-1.168-.946-2.114-2.112-2.114h-2.113c-1.167 0-2.112.947-2.112 2.114v1.057m3.169 6.342v4.228m-6.337-2.114H19.21c1.167 0 2.113-.947 2.113-2.114V9.379c0-1.168-.946-2.114-2.113-2.114H6.535c-1.167 0-2.112.947-2.112 2.114v4.228c0 1.168.946 2.114 2.112 2.114z" stroke="#fff" stroke-width="1.123" stroke-linecap="round" stroke-linejoin="round"/></g><defs><clipPath id="A"><path d="M.198 3.923a3 3 0 0 1 3-3h19.35a3 3 0 0 1 3 3v19.369a3 3 0 0 1-3 3H3.198a3 3 0 0 1-3-3V3.923z" fill="#fff"/></clipPath></defs></svg>