<svg xmlns="http://www.w3.org/2000/svg" width="24" height="24" fill="none" stroke="#d3b282" stroke-width="1.5" xmlns:v="https://vecta.io/nano"><path d="M10 4a1 1 0 0 1 1-1h2a1 1 0 0 1 1 1v.569c0 .428.287.799.682.963s.855.102 1.158-.201l.402-.402a1 1 0 0 1 1.414 0l1.414 1.414a1 1 0 0 1 0 1.414l-.402.402c-.303.303-.365.763-.201 1.158s.536.682.964.682H20a1 1 0 0 1 1 1v2a1 1 0 0 1-1 1h-.569c-.428 0-.799.287-.963.682s-.102.855.201 1.158l.402.402a1 1 0 0 1 0 1.414l-1.414 1.414a1 1 0 0 1-1.414 0l-.402-.402c-.303-.303-.763-.365-1.158-.201s-.682.536-.682.963V20a1 1 0 0 1-1 1h-2a1 1 0 0 1-1-1v-.569c0-.428-.287-.8-.682-.964s-.856-.102-1.158.201l-.402.402a1 1 0 0 1-1.414 0l-1.414-1.414a1 1 0 0 1 0-1.414l.402-.402c.303-.303.365-.763.201-1.158S4.997 14 4.569 14H4a1 1 0 0 1-1-1v-2a1 1 0 0 1 1-1h.569c.428 0 .799-.287.964-.682s.102-.855-.201-1.158l-.402-.402a1 1 0 0 1 0-1.414l1.414-1.414a1 1 0 0 1 1.414 0l.402.402c.303.303.763.365 1.158.201S10 4.997 10 4.569V4z"/><path d="M14 12a2 2 0 1 1-4 0 2 2 0 1 1 4 0z"/></svg>