<svg xmlns="http://www.w3.org/2000/svg" width="26" height="26" fill="none" xmlns:v="https://vecta.io/nano"><g clip-path="url(#A)" stroke="#fff" stroke-width="1.123"><path d="M10.76 4.374c0-.584.473-1.057 1.056-1.057h2.113c.583 0 1.056.473 1.056 1.057v.601c0 .452.303.845.721 1.018s.904.107 1.223-.213l.425-.425c.413-.413 1.081-.413 1.494 0l1.494 1.495a1.06 1.06 0 0 1 0 1.495l-.425.425c-.32.32-.386.806-.212 1.224s.566.721 1.018.721h.601c.583 0 1.056.473 1.056 1.057v2.114c0 .584-.473 1.057-1.056 1.057h-.601c-.452 0-.844.303-1.018.721s-.107.904.212 1.224l.425.425a1.06 1.06 0 0 1 0 1.495l-1.494 1.495c-.412.413-1.081.413-1.494 0l-.425-.425c-.32-.32-.806-.386-1.223-.213s-.721.566-.721 1.018v.601c0 .584-.473 1.057-1.056 1.057h-2.113c-.583 0-1.056-.473-1.056-1.057v-.601c0-.452-.303-.845-.721-1.018s-.904-.107-1.223.212l-.425.425c-.412.413-1.081.413-1.494 0L5.404 18.81a1.06 1.06 0 0 1 0-1.495l.425-.425c.32-.32.386-.806.212-1.224s-.566-.721-1.018-.721h-.601c-.583 0-1.056-.473-1.056-1.057v-2.114c0-.584.473-1.057 1.056-1.057h.601c.452 0 .844-.303 1.018-.721s.107-.904-.212-1.224l-.425-.425a1.06 1.06 0 0 1 0-1.495l1.494-1.495c.412-.413 1.081-.413 1.494 0l.425.425c.32.32.806.386 1.223.213s.721-.566.721-1.018v-.601z"/><path d="M14.985 12.831c0 1.168-.946 2.114-2.113 2.114s-2.112-.947-2.112-2.114.946-2.114 2.112-2.114 2.113.947 2.113 2.114z"/></g><defs><clipPath id="A"><path d="M.198 3.146a3 3 0 0 1 3-3h19.35a3 3 0 0 1 3 3v19.369a3 3 0 0 1-3 3H3.198a3 3 0 0 1-3-3V3.146z" fill="#fff"/></clipPath></defs></svg>