<svg xmlns="http://www.w3.org/2000/svg" width="93" height="42" fill="none">
  <g clip-path="url(#a)">
    <path stroke="url(#b)" stroke-width="1.165" d="M1.082 30.461V.582h90.836v29.88H1.082Z"/>
    <path fill="url(#c)" d="m74.696 20.772-.553 3.89h-.23l-.31-3.776-.598-17.234h-1.666l1.379 23.74h2.41l2.283-23.74h-1.907l-.808 17.12ZM62.662 3.652H59.38v23.74h3.164c1.818 0 2.356-1.06 2.356-2.74V6.178c0-1.682-.419-2.526-2.237-2.526Zm.397 21.422c0 1.208.055 1.404-.92 1.404h-.92V4.565h.92c.975 0 .92.198.92 1.404v19.105Zm3.68 2.317h3.68v-.913h-1.84v-11.87h1.234v-.912h-1.234v-9.13h1.84v-.914h-3.68v23.74ZM17.059 3.652l-1.84 23.74h1.403l.677-7.305h1.6l.208 7.305h1.91L19.68 3.652h-2.622Zm.306 15.522.551-10.724.274-2.881h.525l.184 2.881v10.724h-1.534ZM40.06 3.652h-1.84v23.74h3.68v-.914h-1.84V3.652Zm2.76 23.74h3.68v-.914h-1.84v-11.87h1.22v-.912h-1.22v-9.13h1.83v-.914h-3.67v23.74ZM28.755 4.564h1.532V27.39H32V4.566h1.472v-.913h-4.717v.913Zm5.431 20.945c-.615 0-1.11.486-1.11 1.087 0 .605.495 1.09 1.11 1.09.614 0 1.109-.485 1.109-1.09 0-.6-.494-1.087-1.109-1.087ZM51.751 3.652h-4.332v23.74h3.625c1.149 0 1.88-.915 1.895-1.912v-9.382c0-1.145-.202-1.432-.613-1.663v-.515c.507-.252.613-.508.613-1.309V5.097c0-.842-.32-1.445-1.188-1.445Zm-.652 22.008c-.011.63-.053.76-.561.76h-1.291l.012-11.811h1.293c.507 0 .547.275.547 1.298v9.753Zm0-13.205c0 .996.026 1.19-.507 1.24h-1.333l-.013-9.13h1.331c.429 0 .522.198.522.724v7.166ZM25.885 3.652H22.58v23.74h1.84V16.434h1.224c.561 0 .616.257.616.913v10.044h1.84l-.01-9.03c0-1.302.067-1.64-.666-2.063v-.55c.486-.053.676-.115.676-1.4V6.39c0-1.681-.41-2.739-2.214-2.739Zm.374 10.957c0 .735.017.913-.585.913h-1.255V4.565l.772-.014c.96.014 1.068.633 1.068 1.84v8.218Zm28.52 12.783h3.68v-.914h-1.84v-11.87h1.229v-.912h-1.23v-9.13h1.84v-.914h-3.68v23.74Z"/>
    <path fill="url(#d)" d="m19.52 34.732.107.51-1.82 2.222c1.358 0 1.85.697 1.85 1.618 0 1.266-.816 1.947-2.05 1.947-.488 0-1.093-.23-1.549-.569l.257-.493c.447.271.87.395 1.242.395.912 0 1.398-.235 1.398-1.223 0-.923-.552-1.067-1.215-1.067-.224 0-.455.033-.67.074l-.208-.518 1.729-2.214H16.29v-.682h3.23ZM3.224 36.378c0-.674-.004-.986-1.01-.986-.447 0-.92.238-1.276.526l-.373-.452c.43-.477 1.135-.756 1.764-.756.902 0 1.756.518 1.756 1.668 0 1.406-1.631 2.96-2.568 3.815H4.17v.723H.5v-.592c.91-.938 2.725-2.515 2.725-3.946Zm4.525 4.678c-1.714 0-2.196-1.793-2.196-3.174 0-1.38.48-3.173 2.196-3.173 1.714 0 2.195 1.792 2.195 3.173s-.48 3.174-2.195 3.174Zm0-5.73c-1.168 0-1.383 1.678-1.383 2.557 0 .88.215 2.565 1.383 2.565s1.383-1.685 1.383-2.565c0-.88-.215-2.557-1.383-2.557Zm6.086 1.007c0-.66-.097-.941-1.028-.941-.447 0-.92.238-1.276.526l-.373-.452c.43-.477 1.134-.756 1.764-.756.902 0 1.756.518 1.756 1.668 0 1.406-1.631 2.96-2.568 3.815h2.65v.723h-3.668v-.592c.912-.938 2.743-2.56 2.743-3.99Z"/>
  </g>
  <defs>
    <linearGradient id="b" x1="-16.7" x2="90.645" y1="-2.668" y2="31.022" gradientUnits="userSpaceOnUse">
      <stop stop-color="#005EFF"/>
      <stop offset=".266" stop-color="#0044B8"/>
      <stop offset=".62" stop-color="#005DE8"/>
      <stop offset="1" stop-color="#003FA9"/>
    </linearGradient>
    <linearGradient id="c" x1="3.592" x2="77.737" y1="1.587" y2="21.905" gradientUnits="userSpaceOnUse">
      <stop stop-color="#005EFF"/>
      <stop offset=".266" stop-color="#0044B8"/>
      <stop offset=".62" stop-color="#005DE8"/>
      <stop offset="1" stop-color="#003FA9"/>
    </linearGradient>
    <linearGradient id="d" x1="-3.082" x2="19.196" y1="34.164" y2="41.285" gradientUnits="userSpaceOnUse">
      <stop stop-color="#005EFF"/>
      <stop offset=".266" stop-color="#0044B8"/>
      <stop offset=".62" stop-color="#005DE8"/>
      <stop offset="1" stop-color="#003FA9"/>
    </linearGradient>
    <clipPath id="a">
      <path fill="#fff" d="M.5 0h92v42H.5z"/>
    </clipPath>
  </defs>
</svg>
