<svg xmlns="http://www.w3.org/2000/svg" width="127" height="36" fill="none">
  <path fill="#000" fill-rule="evenodd" d="m40.77 2.79-.008 5.806-.074 1.157.748-.991L48.7 1.17c.978-1.041 2.61-1.472 3.943-.944 1.044.415 1.673 1.392 1.668 2.563l.008 21.55-20.627.008-6.343 6.157 26.97.016-.003 5.165h-33.59c-1.008 0-2.047-.503-2.453-1.505-.468-1.156.17-2.345.977-3.155l10.448-10.48c.989-.926 2.16-1.496 3.536-1.496h15.935l.01-10.908-8.111 8.2c-.9.858-2.32 1.294-3.46.798-.948-.412-1.65-1.472-1.65-2.543l.007-6.743L7.984 35.685H.5l34.663-34.52c.978-1.038 2.61-1.466 3.938-.939 1.044.415 1.668 1.392 1.669 2.563Zm77.785 26.46h3.945v2.181c0 3.046-1.682 4.569-5.045 4.569-1.514 0-2.677-.325-3.49-.974-1.004-.804-1.507-2.087-1.507-3.85v-7.515c0-1.747.503-3.023 1.507-3.827.828-.665 1.992-.997 3.49-.997 1.626 0 2.829.286 3.61.858.956.696 1.435 1.879 1.435 3.549v1.809h-3.945V22.78c0-.387-.08-.7-.243-.94-.159-.24-.443-.359-.845-.359-.37 0-.637.12-.797.36-.163.24-.243.552-.243.939v9.277c0 .402.076.719.231.951.152.232.422.348.809.348.402 0 .686-.12.845-.36.163-.24.243-.552.243-.939v-2.806Zm-7.181 6.425h-3.251V22.153l-2.606 13.522h-5.045V19.162h3.252l.008 11.736 2.192-11.736h5.45v16.513ZM93.315 21.527v4.36h.646c.51 0 .86-.108 1.052-.324.27-.309.406-.927.406-1.855 0-.866-.104-1.43-.31-1.693-.271-.326-.87-.488-1.794-.488Zm0 6.703v5.08c.096.015.24.023.43.023.75 0 1.236-.255 1.459-.766.143-.34.215-.997.215-1.97 0-1.114-.135-1.803-.406-2.065-.207-.201-.774-.302-1.698-.302Zm-3.968 7.445V19.162h4.016c2.63 0 4.303.324 5.02.974.67.603 1.005 1.616 1.005 3.038 0 1.052-.183 1.871-.55 2.458-.446.728-1.204 1.137-2.271 1.23v.162c1.163 0 1.952.387 2.366 1.16.303.557.455 1.484.455 2.783 0 2.103-.478 3.456-1.435 4.059-.701.433-2.231.65-4.59.65h-4.016ZM82.49 21.527v5.404h.622c.654 0 1.076-.2 1.267-.602.144-.31.215-1.006.215-2.088 0-.835-.031-1.4-.095-1.693-.143-.68-.606-1.02-1.387-1.02h-.621Zm0 14.148h-3.968V19.162h4.853c1.722 0 2.98.232 3.777.695.941.557 1.412 1.508 1.412 2.853v3.015c0 1.176-.47 2.08-1.412 2.714-.844.572-1.912.858-3.203.858h-1.458v6.378Zm-4.971 0h-8.224V19.162h8.224v2.505h-4.256v3.618h2.906v2.504h-2.906v5.381h4.256v2.505ZM64.011 29.25h3.945v2.181c0 3.046-1.682 4.569-5.045 4.569-1.514 0-2.677-.325-3.49-.974-1.004-.804-1.506-2.087-1.506-3.85v-7.515c0-1.747.502-3.023 1.506-3.827.828-.665 1.992-.997 3.49-.997 1.626 0 2.83.286 3.61.858.957.696 1.435 1.879 1.435 3.549v1.809H64.01V22.78c0-.387-.08-.7-.243-.94-.16-.24-.443-.359-.845-.359-.37 0-.637.12-.796.36-.164.24-.244.552-.244.939v9.277c0 .402.076.719.232.951.151.232.422.348.808.348.402 0 .686-.12.845-.36.163-.24.243-.552.243-.939v-2.806ZM99.98 13.588c.574 0 .945-.205 1.1-.96.11-.538.167-1.77.167-3.689V3.683c.01-2.2 1.012-3.348 3.104-3.345h6.602v16.514h-3.968V2.843h-2.104V8.94c0 2.039-.059 3.42-.167 4.129-.193 1.267-.618 2.187-1.268 2.76-.749.661-1.904.997-3.466.997V13.59Zm-6.407-3.3h1.434l-.693-7.353-.741 7.353Zm-1.53-9.95h5.45l2.2 16.514h-3.945l-.454-4.06h-2.151l-.646 4.06H89.15L92.043.338ZM61.07 16.852h-3.179V.338h5.845l1.673 11.74L67.12.338h5.713v16.514h-3.586V2.936l-2.343 13.916h-3.49L61.118 2.936l-.048 13.916Zm20.967 0h-8.224V.338h16.795v2.505h-2.773v14.009h-3.968V2.843H77.78v3.618h2.906v2.505H77.78v5.38h4.256v2.506Zm29.49-.027V13.59c.574 0 .945-.206 1.1-.962.11-.537.167-1.77.167-3.688V3.683c.01-2.2 1.012-3.348 3.104-3.345h6.602v16.514h-3.968V2.843h-2.104V8.94c0 2.039-.059 3.42-.167 4.129-.193 1.267-.618 2.187-1.268 2.76-.749.661-1.904.997-3.466.997Z" clip-rule="evenodd"/>
</svg>
