<svg xmlns="http://www.w3.org/2000/svg" width="209" height="57" fill="none">
  <path fill="#000" fill-rule="evenodd" d="m63.764 4.395-.013 9.148-.116 1.824 1.175-1.563L76.22 1.843c1.54-1.64 4.104-2.32 6.196-1.486 1.64.652 2.629 2.192 2.62 4.038l.013 33.952-32.404.012-9.966 9.7 42.37.025-.004 8.138H32.274c-1.582-.002-3.215-.793-3.852-2.371-.737-1.822.267-3.696 1.534-4.971L46.37 32.367c1.552-1.458 3.392-2.355 5.554-2.355h25.033l.016-17.186-12.742 12.92c-1.414 1.35-3.646 2.038-5.436 1.257-1.49-.65-2.593-2.32-2.591-4.007l.01-10.623-43.958 43.849H.5L54.955 1.835C56.492.2 59.055-.475 61.143.357c1.639.653 2.62 2.192 2.62 4.038Zm122.199 41.689h6.197v3.435c0 4.8-2.642 7.199-7.925 7.199-2.378 0-4.206-.512-5.483-1.535-1.577-1.267-2.366-3.289-2.366-6.066v-11.84c0-2.752.789-4.762 2.366-6.028 1.302-1.048 3.13-1.572 5.483-1.572 2.554 0 4.445.451 5.672 1.352 1.502 1.096 2.253 2.96 2.253 5.591v2.85h-6.197v-3.58c0-.61-.125-1.103-.382-1.48-.25-.379-.695-.567-1.327-.567-.581 0-1.001.188-1.251.566-.257.378-.383.871-.383 1.48v14.616c0 .634.119 1.133.364 1.499.238.365.663.547 1.27.547.632 0 1.077-.188 1.327-.565.257-.378.382-.871.382-1.48v-4.422Zm-11.281 10.122h-5.108V34.902l-4.093 21.304h-7.925V30.189h5.108l.012 18.49 3.444-18.49h8.563l-.001 26.017Zm-28.37-22.29v6.87h1.014c.802 0 1.352-.171 1.652-.512.427-.487.639-1.461.639-2.923 0-1.364-.163-2.253-.488-2.667-.425-.513-1.365-.768-2.817-.768Zm0 10.56v8.003c.15.025.376.037.676.037 1.177 0 1.94-.402 2.291-1.207.225-.535.338-1.57.338-3.105 0-1.754-.212-2.839-.639-3.253-.325-.317-1.214-.474-2.666-.474Zm-6.234 11.73V30.189h6.31c4.131 0 6.76.511 7.886 1.534 1.051.95 1.578 2.546 1.578 4.788 0 1.656-.288 2.947-.864 3.873-.701 1.145-1.891 1.79-3.568 1.937v.255c1.828 0 3.067.61 3.718 1.827.475.877.714 2.34.714 4.385 0 3.313-.751 5.445-2.254 6.395-1.101.682-3.506 1.023-7.21 1.023h-6.31Zm-10.771-22.29v8.514h.976c1.027 0 1.69-.316 1.991-.95.225-.487.338-1.583.338-3.288 0-1.316-.05-2.205-.15-2.668-.225-1.072-.952-1.608-2.179-1.608h-.976Zm0 22.29h-6.234V30.189h7.623c2.705 0 4.683.366 5.934 1.096 1.478.877 2.217 2.375 2.217 4.495v4.75c0 1.852-.739 3.277-2.217 4.275-1.326.901-3.004 1.352-5.032 1.352h-2.291v10.049Zm-7.811 0h-12.92V30.189h12.92v3.947h-6.685v5.7h4.565v3.946h-4.565v8.477h6.685v3.947Zm-21.221-10.122h6.198v3.435c0 4.8-2.642 7.199-7.925 7.199-2.38 0-4.207-.512-5.484-1.535-1.577-1.267-2.366-3.289-2.366-6.066v-11.84c0-2.752.79-4.762 2.367-6.028 1.301-1.048 3.13-1.572 5.483-1.572 2.553 0 4.444.451 5.671 1.352 1.502 1.096 2.254 2.96 2.254 5.591v2.85h-6.198v-3.58c0-.61-.125-1.103-.381-1.48-.25-.379-.696-.567-1.328-.567-.581 0-1 .188-1.25.566-.258.378-.384.871-.384 1.48v14.616c0 .634.12 1.133.364 1.499.238.365.663.547 1.27.547.632 0 1.078-.188 1.328-.565.256-.378.381-.871.381-1.48v-4.422Zm56.508-24.675c.901 0 1.484-.325 1.727-1.515.173-.847.263-2.789.263-5.81V5.803c.015-3.466 1.59-5.276 4.877-5.27h10.371V26.55h-6.234V4.48h-3.305v9.604c0 3.211-.093 5.387-.263 6.504-.302 1.996-.97 3.445-1.991 4.349-1.178 1.041-2.992 1.571-5.445 1.571v-5.1Zm-10.067-5.201h2.254l-1.089-11.583-1.165 11.583ZM144.313.533h8.563l3.455 26.017h-6.197l-.713-6.395h-3.38l-1.015 6.395h-5.257L144.313.533ZM95.655 26.55h-4.994V.533h9.182l2.629 18.496L105.157.533h8.976V26.55H108.5V4.625l-3.681 21.925h-5.483L95.731 4.625l-.076 21.925Zm32.939 0h-12.92V.533h26.386v3.946h-4.357v22.07h-6.234V4.48h-9.56v5.7h4.565v3.947h-4.565v8.477h6.685v3.947Zm46.329-.042v-5.1c.901 0 1.484-.324 1.727-1.514.173-.847.263-2.789.263-5.81V5.803c.015-3.466 1.59-5.276 4.877-5.27h10.371V26.55h-6.234V4.48h-3.305v9.604c0 3.211-.093 5.387-.263 6.504-.302 1.996-.97 3.445-1.991 4.349-1.177 1.041-2.992 1.571-5.445 1.571Z" clip-rule="evenodd"/>
</svg>
