<svg width="68" height="68" fill="none" xmlns="http://www.w3.org/2000/svg"><mask id="a" style="mask-type:alpha" maskUnits="userSpaceOnUse" x="0" y="0" width="68" height="68"><path fill="#D9D9D9" d="M0 0h68v68H0z"/></mask><g mask="url(#a)" stroke-width="2" stroke-linecap="round"><path d="M39 60H10l-1-1v-2l1-1h48l1 1v2l-1 1H47M28 28h-6l-1 1v26l1 1h24l1-1V29l-1-1h-5" stroke="#142269"/><rect x="25" y="32" width="4" height="4" rx="1" stroke="#142269"/><rect x="25" y="39" width="4" height="4" rx="1" stroke="#142269"/><rect x="32" y="32" width="4" height="4" rx="1" stroke="#142269"/><rect x="32" y="39" width="4" height="4" rx="1" stroke="#142269"/><rect x="39" y="32" width="4" height="4" rx="1" stroke="#142269"/><rect x="39" y="39" width="4" height="4" rx="1" stroke="#142269"/><rect x="29" y="46" width="10" height="10" rx="1" stroke="#142269"/><path d="M37 26a10 10 0 1 0-6 0l2 2h2l2-2Z" stroke="#E80061"/><path d="m36 11-1-1h-2l-1 1v3h-3l-1 1v2l1 1h3v3l1 1h2l1-1v-3h3l1-1v-2l-1-1h-3v-3Z" stroke="#E80061"/><rect x="13" y="37" width="8" height="19" rx="1" stroke="#142269"/><rect x="47" y="37" width="8" height="19" rx="1" stroke="#142269"/><path d="M34 46v10" stroke="#142269"/></g></svg>