<svg width="68" height="68" fill="none" xmlns="http://www.w3.org/2000/svg"><mask id="a" style="mask-type:alpha" maskUnits="userSpaceOnUse" x="0" y="0" width="68" height="68"><path fill="#D9D9D9" d="M0 0h68v68H0z"/></mask><g mask="url(#a)"><path d="M46 32v-6.5a1 1 0 0 0-.7-1L33.8 21a1 1 0 0 0-.6 0l-11.6 3.6a1 1 0 0 0-.7 1v15.2c0 .4.3.8.7 1l11.5 4c.2.2.5.2.7 0l11.5-4c.4-.2.7-.6.7-1v-3.5" stroke="#142269" stroke-width="2" stroke-linecap="round"/><path d="m21 24.8 12.5 4.5L46 24.8m-12.5 4.5V46" stroke="#142269" stroke-width="2" stroke-linecap="round"/><path d="M33.7 12.1v-8" stroke="#E80061" stroke-width="2" stroke-linecap="round"/><path d="M30.1 6.3a1 1 0 0 0 1.5 1.3l-1.5-1.3Zm5.8 1.3a1 1 0 1 0 1.5-1.3l-1.5 1.3Zm-4.3 0 2.8-3.3L32.8 3l-2.7 3.3 1.5 1.3Zm1.5-3.3L36 7.6l1.5-1.3L34.7 3 33 4.3Zm1.3 0c-.4.4-1 .4-1.3 0L34.7 3c-.5-.5-1.4-.5-1.9 0l1.6 1.3Z" fill="#E80061"/><path d="M12.1 33.8h-8" stroke="#E80061" stroke-width="2" stroke-linecap="round"/><path d="M6.3 37.4a1 1 0 0 0 1.3-1.5l-1.3 1.5Zm1.3-5.8a1 1 0 0 0-1.3-1.5l1.3 1.5Zm0 4.3L4.3 33 3 34.7l3.3 2.7 1.3-1.5Zm-3.3-1.5 3.3-2.8-1.3-1.5L3 32.8l1.3 1.6Zm0-1.3c.4.4.4 1 0 1.3L3 32.8c-.5.5-.5 1.4 0 1.9L4.3 33Z" fill="#E80061"/><path d="m18.5 18.5-5.7-5.7" stroke="#E80061" stroke-width="2" stroke-linecap="round"/><path d="M11.8 17a1 1 0 1 0 2-.2l-2 .1Zm5-3.2a1 1 0 0 0 .1-2l-.1 2Zm-3 3-.4-4.3-2 .2.4 4.2 2-.1Zm-1.3-3.4 4.3.4.1-2-4.2-.4-.2 2Zm.9-.9c0 .5-.4 1-.9.9l.2-2c-.8 0-1.4.5-1.3 1.3l2-.2Z" fill="#E80061"/><path d="M55.4 33.8h8" stroke="#E80061" stroke-width="2" stroke-linecap="round"/><path d="M61.2 30.1a1 1 0 0 0-1.3 1.5l1.3-1.5Zm-1.3 5.8a1 1 0 0 0 1.3 1.5l-1.3-1.5Zm0-4.3 3.3 2.8 1.3-1.6-3.3-2.7-1.3 1.5Zm3.3 1.5L59.9 36l1.3 1.5 3.3-2.7-1.3-1.6Zm0 1.3a.8.8 0 0 1 0-1.3l1.3 1.6c.5-.5.5-1.4 0-1.9l-1.3 1.6Z" fill="#E80061"/><path d="m49 49 5.7 5.7" stroke="#E80061" stroke-width="2" stroke-linecap="round"/><path d="M55.7 50.6a1 1 0 1 0-2 .1l2-.1Zm-5 3.1a1 1 0 0 0-.1 2l.1-2Zm3-3 .4 4.3 2-.2-.4-4.2-2 .1Zm1.3 3.4-4.3-.4-.1 2 4.2.4.2-2Zm-.9.9c0-.5.4-1 .9-.9l-.2 2c.8 0 1.4-.5 1.3-1.3l-2 .2Z" fill="#E80061"/><path d="M33.8 55.4v8" stroke="#E80061" stroke-width="2" stroke-linecap="round"/><path d="M37.4 61.2a1 1 0 0 0-1.5-1.3l1.5 1.3Zm-5.8-1.3a1 1 0 0 0-1.5 1.3l1.5-1.3Zm4.3 0L33 63.2l1.6 1.3 2.7-3.3-1.5-1.3Zm-1.5 3.3-2.8-3.3-1.5 1.3 2.7 3.3 1.6-1.3Zm-1.3 0c.4-.4 1-.4 1.3 0l-1.6 1.3c.5.5 1.4.5 1.9 0L33 63.2Z" fill="#E80061"/><path d="m49 18.5 5.7-5.7" stroke="#E80061" stroke-width="2" stroke-linecap="round"/><path d="M50.6 11.8a1 1 0 1 0 .1 2l-.1-2Zm3.1 5a1 1 0 0 0 2 .1l-2-.1Zm-3-3 4.3-.4-.2-2-4.2.4.1 2Zm3.4-1.3-.4 4.3 2 .1.4-4.2-2-.2Zm.9.9c-.5 0-1-.4-.9-.9l2 .2c0-.8-.5-1.4-1.3-1.3l.2 2Z" fill="#E80061"/><path d="m18.5 49-5.7 5.7" stroke="#E80061" stroke-width="2" stroke-linecap="round"/><path d="M17 55.7a1 1 0 1 0-.2-2l.1 2Zm-3.2-5a1 1 0 0 0-2-.1l2 .1Zm3 3-4.3.4.2 2 4.2-.4-.1-2ZM13.4 55l.4-4.3-2-.1-.4 4.2 2 .2Zm-.9-.9c.5 0 1 .4.9.9l-2-.2c0 .8.5 1.4 1.3 1.3l-.2-2Z" fill="#E80061"/></g></svg>