<svg width="68" height="68" fill="none" xmlns="http://www.w3.org/2000/svg"><mask id="a" style="mask-type:alpha" maskUnits="userSpaceOnUse" x="0" y="0" width="68" height="68"><path fill="#D9D9D9" d="M0 0h68v68H0z"/></mask><g mask="url(#a)"><path d="M19 43.8c0-.5.2-1 .5-1.4l2.1-2.4c.4-.4.1-1-.4-1v0c-.7 0-1.2-.5-1.2-1.2v-.3c0-.8.7-1.5 1.5-1.5h9c.8 0 1.5.7 1.5 1.5v.3c0 .7-.5 1.2-1.2 1.2v0c-.5 0-.8.6-.4 1l2.1 2.4c.3.4.5.9.5 1.4V49a2 2 0 0 1-2 2H21a2 2 0 0 1-2-2v-5.2Zm19 0c0-.5.2-1 .5-1.4l2.1-2.4c.4-.4.1-1-.4-1v0c-.7 0-1.2-.5-1.2-1.2v-.3c0-.8.7-1.5 1.5-1.5h9c.8 0 1.5.7 1.5 1.5v.3c0 .7-.5 1.2-1.2 1.2v0c-.5 0-.8.6-.4 1l2.1 2.4c.3.4.5.9.5 1.4V49a2 2 0 0 1-2 2H40a2 2 0 0 1-2-2v-5.2Z" stroke="#E80061" stroke-width="2" stroke-linecap="round"/><path d="M56 51H17a5 5 0 0 0-5 5v0a5 5 0 0 0 5 5h23m16 0h-9" stroke="#142269" stroke-width="2" stroke-linecap="round"/><circle cx="17" cy="56" r="2" stroke="#142269" stroke-width="2" stroke-linecap="round"/><path d="M22 56h34" stroke="#142269" stroke-width="2" stroke-linecap="round"/><circle cx="26" cy="11" r="5" stroke="#142269" stroke-width="2" stroke-linecap="round"/><circle cx="26" cy="11" r="2" fill="#142269"/><path d="M30 8h16m0 6H30m-8 0v5h-2.6a1 1 0 0 0-.7 1.7L24 26m6-12v5h2.6a1 1 0 0 1 .7 1.7L28 26" stroke="#142269" stroke-width="2" stroke-linecap="round"/><rect x="24" y="22" width="4" height="8" rx="2" stroke="#142269" stroke-width="2" stroke-linecap="round"/></g></svg>