<svg width="68" height="68" fill="none" xmlns="http://www.w3.org/2000/svg"><mask id="a" style="mask-type:alpha" maskUnits="userSpaceOnUse" x="0" y="0" width="68" height="68"><path fill="#D9D9D9" d="M0 0h68v68H0z"/></mask><g mask="url(#a)"><path d="M36 16c0-1.1.9-2 2-2h12a2 2 0 0 1 2 2v5c0 .6-.4 1-1 1H37a1 1 0 0 1-1-1v-5Zm19 16H35.5M55 46h-8m5-28h-6" stroke="#142269" stroke-width="2" stroke-linecap="round"/><path d="M42 52h11a2 2 0 0 0 2-2v-5.5M33 29v-1c0-1.1.9-2 2-2h.5a3 3 0 0 0 3-3v-1h11v1a3 3 0 0 0 3 3h.5a2 2 0 0 1 2 2v11" stroke="#142269" stroke-width="2" stroke-linecap="round"/><rect x="15" y="38" width="32" height="14" rx="7" stroke="#E80061" stroke-width="2" stroke-linecap="round"/><path d="M25 41h-2.5C20 41 18 43 18 45.5" stroke="#E80061" stroke-width="2"/><path d="M31 38v14m-9.7-14-4.2-4a7 7 0 0 1-.3-10v0a7 7 0 0 1 10-.2L41.5 38" stroke="#E80061" stroke-width="2" stroke-linecap="round"/><path d="M26.8 28 25 26.4a4.5 4.5 0 0 0-6.3.2" stroke="#E80061" stroke-width="2"/><path d="m33.2 30-7.5 8" stroke="#E80061" stroke-width="2" stroke-linecap="round"/><circle cx="36.5" cy="42.5" r="1.5" fill="#E80061"/><circle cx="41.5" cy="45.5" r="1.5" fill="#E80061"/><circle cx="37.5" cy="48.5" r="1.5" fill="#E80061"/></g></svg>