<svg width="68" height="68" fill="none" xmlns="http://www.w3.org/2000/svg"><mask id="a" style="mask-type:alpha" maskUnits="userSpaceOnUse" x="0" y="0" width="68" height="68"><path fill="#787878" d="M0 0h68v68H0z"/></mask><g mask="url(#a)" stroke-width="2" stroke-linecap="round"><path d="M14.3 44C8.2 32.5 12 18.7 22.9 13.4a22.6 22.6 0 0 1 23.8 3m7 8.5c6.1 11.6 2.3 25.4-8.6 30.7a22.4 22.4 0 0 1-22.6-2.2M53.2 21.9l-1.4 4.8M58.2 23.6l-4.9-1.9M14.7 47l-4.9-1.8M16.2 42.1 14.8 47" stroke="#142269"/><circle cx="22.2" cy="39.1" r="2.2" stroke="#E80061"/><circle cx="37.5" cy="36.9" r="2.2" stroke="#E80061"/><circle cx="30.9" cy="30.4" r="2.2" stroke="#E80061"/><circle cx="46.2" cy="28.2" r="2.2" stroke="#E80061"/><path d="m24.4 37 4.9-5M39.6 34.7l5-4.9M32.5 32l3.3 3.3" stroke="#E80061"/></g></svg>