<svg width="68" height="68" fill="none" xmlns="http://www.w3.org/2000/svg"><mask id="a" style="mask-type:alpha" maskUnits="userSpaceOnUse" x="0" y="0" width="68" height="68"><path fill="#787878" d="M0 0h68v68H0z"/></mask><g mask="url(#a)" stroke-width="2" stroke-linecap="round"><path d="M11 41.52V45c0 .5523.4477 1 1 1h25.5M11 37.04V34.8m0-4.48V19c0-.5523.4477-1 1-1h40c.5523 0 1 .4477 1 1v13" stroke="#142269"/><circle cx="19.7287" cy="37.6369" r="2.1818" stroke="#142269"/><circle cx="34.9982" cy="35.4553" r="2.1818" stroke="#142269"/><circle cx="28.4553" cy="28.9084" r="2.1818" stroke="#142269"/><circle cx="43.7287" cy="26.7267" r="2.1818" stroke="#142269"/><path d="m21.9102 35.454 4.909-4.9091M37.1836 33.2724l4.9091-4.9091M30.0898 30.5449l3.2728 3.2727M15.3633 22.3633h6.5454M15.3633 25.6367h4.3636" stroke="#142269"/><circle cx="52" cy="47" r="11" stroke="#E80061"/><path d="m48 46.5 3.4228 3.3277a.2.2 0 0 0 .3087-.037L56 43" stroke="#E80061"/></g></svg>