<svg width="35" height="40" viewBox="0 0 35 40" fill="none" xmlns="http://www.w3.org/2000/svg">
<g filter="url(#filter0_d)">
<path d="M8 4H26.0141V28L17.007 22L8 28V4Z" fill="#C10033"/>
</g>
<path d="M11.7656 9.8125C11.7656 9.10938 11.9948 8.54167 12.4531 8.10938C12.9115 7.67708 13.526 7.46094 14.2969 7.46094C15.0781 7.46094 15.6953 7.67708 16.1484 8.10938C16.6016 8.53646 16.8281 9.11719 16.8281 9.85156V10.4141C16.8281 11.1172 16.6016 11.6823 16.1484 12.1094C15.6953 12.5365 15.0833 12.75 14.3125 12.75C13.5469 12.75 12.9297 12.5391 12.4609 12.1172C11.9974 11.6901 11.7656 11.1068 11.7656 10.3672V9.8125ZM13.4609 10.4141C13.4609 10.6849 13.5365 10.9062 13.6875 11.0781C13.8385 11.2448 14.0469 11.3281 14.3125 11.3281C14.8594 11.3281 15.1328 10.9792 15.1328 10.2812V9.8125C15.1328 9.54167 15.0599 9.32031 14.9141 9.14844C14.7682 8.97135 14.5625 8.88281 14.2969 8.88281C14.0417 8.88281 13.8385 8.96875 13.6875 9.14062C13.5365 9.30729 13.4609 9.53646 13.4609 9.82812V10.4141ZM17.1719 16.2109C17.1719 15.5026 17.401 14.9349 17.8594 14.5078C18.3229 14.0807 18.9375 13.8672 19.7031 13.8672C20.4792 13.8672 21.0964 14.0781 21.5547 14.5C22.013 14.9219 22.2422 15.5104 22.2422 16.2656V16.8125C22.2422 17.5208 22.0156 18.0885 21.5625 18.5156C21.1094 18.9427 20.4948 19.1562 19.7188 19.1562C18.9531 19.1562 18.3359 18.9453 17.8672 18.5234C17.4036 18.0964 17.1719 17.513 17.1719 16.7734V16.2109ZM18.8594 16.8125C18.8594 17.0573 18.9427 17.2734 19.1094 17.4609C19.276 17.6432 19.4792 17.7344 19.7188 17.7344C20.224 17.7344 20.4974 17.4948 20.5391 17.0156L20.5469 16.2109C20.5469 15.9349 20.4714 15.7135 20.3203 15.5469C20.1693 15.375 19.9635 15.2891 19.7031 15.2891C19.4531 15.2891 19.2526 15.3698 19.1016 15.5312C18.9505 15.6875 18.8698 15.901 18.8594 16.1719V16.8125ZM14.8125 18.1484L13.5859 17.5312L19.1406 8.64062L20.3672 9.25781L14.8125 18.1484Z" fill="white"/>
<defs>
<filter id="filter0_d" x="0" y="0" width="34.0141" height="40" filterUnits="userSpaceOnUse" color-interpolation-filters="sRGB">
<feFlood flood-opacity="0" result="BackgroundImageFix"/>
<feColorMatrix in="SourceAlpha" type="matrix" values="0 0 0 0 0 0 0 0 0 0 0 0 0 0 0 0 0 0 127 0"/>
<feOffset dy="4"/>
<feGaussianBlur stdDeviation="4"/>
<feColorMatrix type="matrix" values="0 0 0 0 0 0 0 0 0 0 0 0 0 0 0 0 0 0 0.4 0"/>
<feBlend mode="normal" in2="BackgroundImageFix" result="effect1_dropShadow"/>
<feBlend mode="normal" in="SourceGraphic" in2="effect1_dropShadow" result="shape"/>
</filter>
</defs>
</svg>
