<svg xmlns="http://www.w3.org/2000/svg" width="52" height="52" fill="none"><mask id="A" maskUnits="userSpaceOnUse" x="0" y="0" width="52" height="52" style="mask-type:alpha"><circle cx="26" cy="26" r="26" fill="#d81f05"/></mask><g mask="url(#A)"><circle cx="26" cy="26" r="26" fill="#fff"/><path d="M31.485 30.112c.107-.107 4.515-3.97 4.515-3.97l-.751-.322c-.429-.21-.318-.494-.215-.748l.863-2.892-2.476.537c-.322.103-.429-.107-.537-.322l-.644-1.392-2.365 2.677c-.429.322-.863 0-.755-.43 0-.43 1.185-5.569 1.185-5.569l-1.721.962c-.322.215-.541.215-.755-.215-.219-.322-1.833-3.429-1.833-3.429l-1.824 3.429c-.215.43-.429.43-.755.215l-1.721-.962 1.185 5.569c.107.43-.322.752-.755.43-.107-.107-2.365-2.677-2.365-2.677l-.644 1.388c-.107.215-.215.425-.537.322l-2.476-.537.863 2.892c.103.258.215.537-.215.748l-.751.327 4.515 3.97c.219.215.429.322.219.967l-.433 1.508 4.519-.971c.373-.039.785.107.785.537S25.356 37 25.356 37h1.288l-.249-4.847c0-.434.408-.576.79-.537l4.515.971-.429-1.508c-.215-.645 0-.752.215-.967h0zM-2 0h12v52H-2zm44 0h12v52H42z" fill="#d81f05"/></g></svg>