<svg xmlns="http://www.w3.org/2000/svg" width="52" height="52" fill="none"><mask id="A" maskUnits="userSpaceOnUse" x="0" y="0" width="52" height="52" style="mask-type:alpha"><circle cx="26" cy="26" r="26" fill="#c4c4c4"/></mask><g mask="url(#A)"><circle cx="26" cy="26" r="26" fill="#d81f05"/><path d="M18 6l.449 1.382h1.453l-1.176.854.449 1.382L18 8.764l-1.176.854.449-1.382-1.176-.854h1.453L18 6zm5 3.5l.449 1.382h1.453l-1.176.854.449 1.382L23 12.264l-1.176.854.449-1.382-1.176-.854h1.453L23 9.5zm0 6l.449 1.382h1.453l-1.176.854.449 1.382L23 18.264l-1.176.854.449-1.382-1.176-.854h1.453L23 15.5zm-5 4l.449 1.382h1.453l-1.176.854.449 1.382L18 22.264l-1.176.854.449-1.382-1.176-.854h1.453L18 19.5zm-7-9l1.123 3.455h3.633l-2.939 2.135 1.123 3.455L11 17.41l-2.939 2.135 1.123-3.455-2.939-2.135h3.633L11 10.5z" fill="#f7c410"/></g></svg>