<svg xmlns="http://www.w3.org/2000/svg" width="52" height="52" fill="none"><mask id="a" width="52" height="52" x="0" y="0" maskUnits="userSpaceOnUse" style="mask-type:alpha"><circle cx="26" cy="26" r="26" fill="#d81f05"/></mask><g mask="url(#a)"><circle cx="26" cy="26" r="26" fill="#d81f05"/><path fill="#009e49" d="M0 35h52v17H0z"/><path fill="#fff" d="M16 17h36v18H16z"/><path fill="#010101" d="M0 0h52v17H0z"/><path fill="#d81f05" d="M0 0v52l52-26L0 0Z"/><path fill="#fff" d="m14 21 1 3.1 3.3-.6-2.1 2.5 2.1 2.5-3.2-.6L14 31l-1-3.1-3.3.6 2.1-2.5-2.1-2.5 3.2.6L14 21z"/></g></svg>