<svg xmlns="http://www.w3.org/2000/svg" width="52" height="52" fill="none"><mask id="A" maskUnits="userSpaceOnUse" x="0" y="0" width="52" height="52" style="mask-type:alpha"><circle cx="26" cy="26" r="26" fill="#c4c4c4"/></mask><g mask="url(#A)"><circle cx="26" cy="26" r="26" fill="#3baee3"/><path d="M34.926 28.114l.038-.114-.038.114z" fill="#ffdd2a"/><path d="M34.768 28.581l.158-.467a4.49 4.49 0 0 1-.337.727 12.95 12.95 0 0 1-1.757 2.034c-1.705 1.436-4.189 2.559-6.832 2.635-2.644-.077-5.127-1.199-6.832-2.635a12.94 12.94 0 0 1-1.757-2.034 4.73 4.73 0 0 1-.283-.585L17.036 28l.092.256.131.365-.4-.621H13.7h-2.644c-.464 2.063 2.089 3.667 3.714 3.667-.232 2.063 2.089 3.896 3.714 3.667 0 2.267 1.878 3.422 2.256 3.632l.01.035h10.501l.012-.036c.382-.212 2.254-1.367 2.254-3.631 1.625.229 3.946-1.604 3.714-3.667 1.625 0 4.178-1.604 3.714-3.667h-2.644-3.159l-.373.581zM26 13l1.414 3.648 3.288-2.12-1 3.782 3.906.218L30.576 21l3.032 2.472-3.906.218 1 3.782-3.288-2.12L26 29l-1.414-3.648-3.288 2.12 1-3.782-3.906-.218L21.424 21l-3.032-2.472 3.906-.218-1-3.782 3.288 2.12L26 13z" fill="#ffdd2a"/></g></svg>