<svg xmlns="http://www.w3.org/2000/svg" width="52" height="52" fill="none"><mask id="a" width="52" height="52" x="0" y="0" maskUnits="userSpaceOnUse" style="mask-type:alpha"><circle cx="26" cy="26" r="26" fill="#c4c4c4"/></mask><g mask="url(#a)"><circle cx="26" cy="26" r="26" fill="#009e49"/><path fill="#fff" d="M15.6 16h-3v8.7c0 .7-.8 2-2.6 2v2.9c3 0 5.6-2.2 5.6-4.9V16zm26.4.2h-3V25c0 .7-.8 2-2.6 2v2.8c3 0 5.6-2.2 5.6-4.8v-8.8zm-23.8 0h3V20.8a1 1 0 0 0 .5.4h.5l.7-.4V16.2h2.9v4.4a.7.7 0 0 0 0 .2 1.2 1.2 0 0 0 .6.4h.7l.8-.6v-4.4h3V24c0 3.2-2.6 5-5.3 5.5l-.6-2.8c2-.4 3-1.5 3-2.7a3.9 3.9 0 0 1-3.7-.7l-1.2.6a3.7 3.7 0 0 1-2.4 0c-1.4-.5-2.5-1.9-2.5-3.3v-4.4zm4.6 10.2H18v3h4.8v-3zm10.5-3.9v-6.3h2.9v6.3h-3zM14 33h24v1.5a4.7 4.7 0 0 1-4.7 4.8h-2.8c-1 0-2-.9-2-2a.8.8 0 0 0-.7-.7H17.8c-2 0-3.7-1.6-3.7-3.6z"/></g></svg>