<svg xmlns="http://www.w3.org/2000/svg" width="52" height="52" fill="none"><mask id="a" width="52" height="52" x="0" y="0" maskUnits="userSpaceOnUse" style="mask-type:alpha"><circle cx="26" cy="26" r="26" fill="#c4c4c4"/></mask><g mask="url(#a)"><circle cx="26" cy="26" r="26" fill="#d81f05"/><path fill="#fff" d="M27.2 19.5a8 8 0 0 0-2.7-.5c-4.1 0-7.5 3.1-7.5 7s3.4 7 7.5 7a8 8 0 0 0 2.7-.5A9 9 0 0 1 21 35a9 9 0 1 1 0-18 9 9 0 0 1 6.2 2.5z"/><path fill="#fff" d="m29.7 22 1.5 2.3 2.6-.7-1.7 2.1 1.5 2.3-2.6-1-1.7 2.2.1-2.7-2.5-1 2.6-.8.2-2.7z"/></g></svg>