<svg xmlns="http://www.w3.org/2000/svg" width="52" height="52" fill="none"><mask id="A" maskUnits="userSpaceOnUse" x="0" y="0" width="52" height="52" style="mask-type:alpha"><circle cx="26" cy="26" r="26" fill="#c4c4c4"/></mask><g mask="url(#A)"><circle cx="26" cy="26" r="26" fill="#d81f05"/><path fill="#fff" d="M0 4h52v4H0zm0 32h52v4H0zm0-16h52v4H0zm0-8h52v4H0zm0 32h52v4H0zm0-16h52v4H0z"/><path fill="#243c67" d="M0 0h26v28H0z"/><path d="M21 3l.449 1.382h1.453l-1.176.854.449 1.382L21 5.764l-1.176.854.449-1.382-1.176-.854h1.453L21 3zM9 3l.449 1.382h1.453l-1.176.854.449 1.382L9 5.764l-1.176.854.449-1.382-1.176-.854H8.55L9 3zm12 6l.449 1.382h1.453l-1.176.854.449 1.382L21 11.764l-1.176.854.449-1.382-1.176-.854h1.453L21 9zM9 9l.449 1.382h1.453l-1.176.854.449 1.382L9 11.764l-1.176.854.449-1.382-1.176-.854H8.55L9 9zm6-3l.449 1.382h1.453l-1.176.854.449 1.382L15 8.764l-1.176.854.449-1.382-1.176-.854h1.453L15 6zM3 6l.449 1.382h1.453l-1.176.854.449 1.382L3 8.764l-1.176.854.449-1.382-1.176-.854H2.55L3 6zm18 9l.449 1.382h1.453l-1.176.854.449 1.382L21 17.764l-1.176.854.449-1.382-1.176-.854h1.453L21 15zM9 15l.449 1.382h1.453l-1.176.854.449 1.382L9 17.764l-1.176.854.449-1.382-1.176-.854H8.55L9 15zm6-3l.449 1.382h1.453l-1.176.854.449 1.382L15 14.764l-1.176.854.449-1.382-1.176-.854h1.453L15 12zM3 12l.449 1.382h1.453l-1.176.854.449 1.382L3 14.764l-1.176.854.449-1.382-1.176-.854H2.55L3 12zm18 9l.449 1.382h1.453l-1.176.854.449 1.382L21 23.764l-1.176.854.449-1.382-1.176-.854h1.453L21 21zM9 21l.449 1.382h1.453l-1.176.854.449 1.382L9 23.764l-1.176.854.449-1.382-1.176-.854H8.55L9 21zm6-3l.449 1.382h1.453l-1.176.854.449 1.382L15 20.764l-1.176.854.449-1.382-1.176-.854h1.453L15 18zM3 18l.449 1.382h1.453l-1.176.854.449 1.382L3 20.764l-1.176.854.449-1.382-1.176-.854H2.55L3 18z" fill="#fff"/></g></svg>