<svg width="68" height="68" viewBox="0 0 68 68" fill="none" xmlns="http://www.w3.org/2000/svg">
<mask id="mask0_130_14544" style="mask-type:alpha" maskUnits="userSpaceOnUse" x="0" y="0" width="68" height="68">
<rect width="68" height="68" fill="#D9D9D9"/>
</mask>
<g mask="url(#mask0_130_14544)">
<path d="M45.9998 31.9945V25.5192C45.9998 25.0802 45.7135 24.6926 45.2939 24.5635L33.7552 21.0131C33.5635 20.9541 33.3586 20.9541 33.167 21.0131L21.6283 24.5635C21.2087 24.6926 20.9224 25.0802 20.9224 25.5192V40.7954C20.9224 41.2175 21.1873 41.5941 21.5845 41.7366L33.1232 45.8787C33.3416 45.9571 33.5805 45.9571 33.7989 45.8787L45.3376 41.7366C45.7348 41.5941 45.9998 41.2175 45.9998 40.7954V37.3194" stroke="#142269" stroke-width="2" stroke-linecap="round"/>
<path d="M20.9224 24.7803L33.4611 29.2813L45.9998 24.7803" stroke="#142269" stroke-width="2" stroke-linecap="round"/>
<path d="M33.4604 29.2822V46.0005" stroke="#142269" stroke-width="2" stroke-linecap="round"/>
<path d="M33.75 12.1428V4.07617" stroke="#E80061" stroke-width="2" stroke-linecap="round"/>
<path d="M30.1009 6.31696C29.7474 6.74124 29.8047 7.3718 30.229 7.72536C30.6532 8.07893 31.2838 8.0216 31.6374 7.59733L30.1009 6.31696ZM35.8628 7.59733C36.2164 8.0216 36.847 8.07893 37.2712 7.72536C37.6955 7.3718 37.7528 6.74124 37.3993 6.31696L35.8628 7.59733ZM31.6374 7.59733L34.3647 4.32456L32.8282 3.04419L30.1009 6.31696L31.6374 7.59733ZM33.1355 4.32456L35.8628 7.59733L37.3993 6.31696L34.672 3.04419L33.1355 4.32456ZM34.3647 4.32456C34.0448 4.70836 33.4553 4.70836 33.1355 4.32456L34.672 3.04419C34.1922 2.46849 33.308 2.46848 32.8282 3.04419L34.3647 4.32456Z" fill="#E80061"/>
<path d="M12.1428 33.75H4.07617" stroke="#E80061" stroke-width="2" stroke-linecap="round"/>
<path d="M6.31696 37.3991C6.74124 37.7526 7.3718 37.6953 7.72536 37.271C8.07893 36.8468 8.0216 36.2162 7.59733 35.8626L6.31696 37.3991ZM7.59733 31.6372C8.0216 31.2836 8.07893 30.653 7.72536 30.2288C7.3718 29.8045 6.74124 29.7472 6.31696 30.1007L7.59733 31.6372ZM7.59733 35.8626L4.32456 33.1353L3.04419 34.6718L6.31696 37.3991L7.59733 35.8626ZM4.32456 34.3645L7.59733 31.6372L6.31696 30.1007L3.04419 32.828L4.32456 34.3645ZM4.32456 33.1353C4.70836 33.4552 4.70836 34.0447 4.32456 34.3645L3.04419 32.828C2.46849 33.3078 2.46848 34.192 3.04419 34.6718L4.32456 33.1353Z" fill="#E80061"/>
<path d="M18.4716 18.4708L12.7676 12.7668" stroke="#E80061" stroke-width="2" stroke-linecap="round"/>
<path d="M11.7719 16.9316C11.8219 17.4816 12.3083 17.8869 12.8583 17.8369C13.4084 17.7869 13.8137 17.3005 13.7637 16.7505L11.7719 16.9316ZM16.7516 13.7627C17.3016 13.8127 17.788 13.4073 17.838 12.8573C17.888 12.3073 17.4826 11.8209 16.9326 11.7709L16.7516 13.7627ZM13.7637 16.7505L13.378 12.5078L11.3862 12.6889L11.7719 16.9316L13.7637 16.7505ZM12.5089 13.377L16.7516 13.7627L16.9326 11.7709L12.6899 11.3852L12.5089 13.377ZM13.378 12.5078C13.4232 13.0054 13.0064 13.4222 12.5089 13.377L12.6899 11.3852C11.9436 11.3173 11.3184 11.9426 11.3862 12.6889L13.378 12.5078Z" fill="#E80061"/>
<path d="M55.3572 33.75H63.4238" stroke="#E80061" stroke-width="2" stroke-linecap="round"/>
<path d="M61.183 30.1009C60.7588 29.7474 60.1282 29.8047 59.7746 30.229C59.4211 30.6532 59.4784 31.2838 59.9027 31.6374L61.183 30.1009ZM59.9027 35.8628C59.4784 36.2164 59.4211 36.847 59.7746 37.2712C60.1282 37.6955 60.7588 37.7528 61.183 37.3993L59.9027 35.8628ZM59.9027 31.6374L63.1754 34.3647L64.4558 32.8282L61.183 30.1009L59.9027 31.6374ZM63.1754 33.1355L59.9027 35.8628L61.183 37.3993L64.4558 34.672L63.1754 33.1355ZM63.1754 34.3647C62.7916 34.0448 62.7916 33.4553 63.1754 33.1355L64.4558 34.672C65.0315 34.1922 65.0315 33.308 64.4558 32.8282L63.1754 34.3647Z" fill="#E80061"/>
<path d="M49.0284 49.0292L54.7324 54.7332" stroke="#E80061" stroke-width="2" stroke-linecap="round"/>
<path d="M55.7281 50.5684C55.6781 50.0184 55.1917 49.6131 54.6417 49.6631C54.0916 49.7131 53.6863 50.1995 53.7363 50.7495L55.7281 50.5684ZM50.7484 53.7373C50.1984 53.6873 49.712 54.0927 49.662 54.6427C49.612 55.1927 50.0174 55.6791 50.5674 55.7291L50.7484 53.7373ZM53.7363 50.7495L54.122 54.9922L56.1138 54.8111L55.7281 50.5684L53.7363 50.7495ZM54.9911 54.123L50.7484 53.7373L50.5674 55.7291L54.8101 56.1148L54.9911 54.123ZM54.122 54.9922C54.0768 54.4946 54.4936 54.0778 54.9911 54.123L54.8101 56.1148C55.5564 56.1827 56.1816 55.5574 56.1138 54.8111L54.122 54.9922Z" fill="#E80061"/>
<path d="M33.75 55.3572V63.4238" stroke="#E80061" stroke-width="2" stroke-linecap="round"/>
<path d="M37.3991 61.183C37.7526 60.7588 37.6953 60.1282 37.271 59.7746C36.8468 59.4211 36.2162 59.4784 35.8626 59.9027L37.3991 61.183ZM31.6372 59.9027C31.2836 59.4784 30.653 59.4211 30.2288 59.7746C29.8045 60.1282 29.7472 60.7588 30.1007 61.183L31.6372 59.9027ZM35.8626 59.9027L33.1353 63.1754L34.6718 64.4558L37.3991 61.183L35.8626 59.9027ZM34.3645 63.1754L31.6372 59.9027L30.1007 61.183L32.828 64.4558L34.3645 63.1754ZM33.1353 63.1754C33.4552 62.7916 34.0447 62.7916 34.3645 63.1754L32.828 64.4558C33.3078 65.0315 34.192 65.0315 34.6718 64.4558L33.1353 63.1754Z" fill="#E80061"/>
<path d="M49.0289 18.4713L54.7329 12.7673" stroke="#E80061" stroke-width="2" stroke-linecap="round"/>
<path d="M50.5684 11.7717C50.0184 11.8217 49.6131 12.3081 49.6631 12.8581C49.7131 13.4081 50.1995 13.8135 50.7495 13.7635L50.5684 11.7717ZM53.7373 16.7513C53.6873 17.3013 54.0927 17.7877 54.6427 17.8377C55.1927 17.8877 55.6791 17.4824 55.7291 16.9324L53.7373 16.7513ZM50.7495 13.7635L54.9922 13.3778L54.8111 11.386L50.5684 11.7717L50.7495 13.7635ZM54.123 12.5086L53.7373 16.7513L55.7291 16.9324L56.1148 12.6897L54.123 12.5086ZM54.9922 13.3778C54.4946 13.423 54.0778 13.0062 54.123 12.5086L56.1148 12.6897C56.1827 11.9434 55.5574 11.3181 54.8111 11.386L54.9922 13.3778Z" fill="#E80061"/>
<path d="M18.4711 49.0287L12.7671 54.7327" stroke="#E80061" stroke-width="2" stroke-linecap="round"/>
<path d="M16.9316 55.7283C17.4816 55.6783 17.8869 55.1919 17.8369 54.6419C17.7869 54.0919 17.3005 53.6865 16.7505 53.7365L16.9316 55.7283ZM13.7627 50.7487C13.8127 50.1987 13.4073 49.7123 12.8573 49.6623C12.3073 49.6123 11.8209 50.0176 11.7709 50.5676L13.7627 50.7487ZM16.7505 53.7365L12.5078 54.1222L12.6889 56.114L16.9316 55.7283L16.7505 53.7365ZM13.377 54.9914L13.7627 50.7487L11.7709 50.5676L11.3852 54.8103L13.377 54.9914ZM12.5078 54.1222C13.0054 54.077 13.4222 54.4938 13.377 54.9914L11.3852 54.8103C11.3173 55.5566 11.9426 56.1819 12.6889 56.114L12.5078 54.1222Z" fill="#E80061"/>
</g>
</svg>
