<svg width="68" height="68" viewBox="0 0 68 68" fill="none" xmlns="http://www.w3.org/2000/svg">
<mask id="mask0_130_14580" style="mask-type:alpha" maskUnits="userSpaceOnUse" x="0" y="0" width="68" height="68">
<rect width="68" height="68" fill="#D9D9D9"/>
</mask>
<g mask="url(#mask0_130_14580)">
<path d="M39 60H10C9.44772 60 9 59.5523 9 59V57C9 56.4477 9.44772 56 10 56H58C58.5523 56 59 56.4477 59 57V59C59 59.5523 58.5523 60 58 60H46.5" stroke="#142269" stroke-width="2" stroke-linecap="round"/>
<path d="M27.5 28H22C21.4477 28 21 28.4477 21 29V55C21 55.5523 21.4477 56 22 56H46C46.5523 56 47 55.5523 47 55V29C47 28.4477 46.5523 28 46 28H40.5" stroke="#142269" stroke-width="2" stroke-linecap="round"/>
<rect x="25" y="32" width="4" height="4" rx="1" stroke="#142269" stroke-width="2" stroke-linecap="round"/>
<rect x="25" y="39" width="4" height="4" rx="1" stroke="#142269" stroke-width="2" stroke-linecap="round"/>
<rect x="32" y="32" width="4" height="4" rx="1" stroke="#142269" stroke-width="2" stroke-linecap="round"/>
<rect x="32" y="39" width="4" height="4" rx="1" stroke="#142269" stroke-width="2" stroke-linecap="round"/>
<rect x="39" y="32" width="4" height="4" rx="1" stroke="#142269" stroke-width="2" stroke-linecap="round"/>
<rect x="39" y="39" width="4" height="4" rx="1" stroke="#142269" stroke-width="2" stroke-linecap="round"/>
<rect x="29" y="46" width="10" height="10" rx="1" stroke="#142269" stroke-width="2" stroke-linecap="round"/>
<path d="M36.565 25.668C40.845 24.5354 44 20.6361 44 16C44 10.4772 39.5228 6 34 6C28.4772 6 24 10.4772 24 16C24 20.6361 27.155 24.5354 31.435 25.668L33.2076 27.9706C33.6079 28.4906 34.3921 28.4906 34.7924 27.9706L36.565 25.668Z" stroke="#E80061" stroke-width="2" stroke-linecap="round"/>
<path d="M36 11C36 10.4477 35.5523 10 35 10H33C32.4477 10 32 10.4477 32 11V14H29C28.4477 14 28 14.4477 28 15V17C28 17.5523 28.4477 18 29 18H32V21C32 21.5523 32.4477 22 33 22H35C35.5523 22 36 21.5523 36 21V18H39C39.5523 18 40 17.5523 40 17V15C40 14.4477 39.5523 14 39 14H36V11Z" stroke="#E80061" stroke-width="2" stroke-linecap="round"/>
<rect x="13" y="37" width="8" height="19" rx="1" stroke="#142269" stroke-width="2" stroke-linecap="round"/>
<rect x="47" y="37" width="8" height="19" rx="1" stroke="#142269" stroke-width="2" stroke-linecap="round"/>
<path d="M34 46V56" stroke="#142269" stroke-width="2" stroke-linecap="round"/>
</g>
</svg>
