<svg xmlns="http://www.w3.org/2000/svg" width="18" height="18" fill="none"><mask id="a" width="18" height="18" x="0" y="0" maskUnits="userSpaceOnUse" style="mask-type:alpha"><path fill="#C4C4C4" d="M0 0h18v18H0z"/></mask><g mask="url(#a)"><path stroke="#AEBED6" stroke-width="2" d="M4 6h10v9c0 .6-.4 1-1 1H5a1 1 0 0 1-1-1V6ZM1 6h16"/><rect width="2" height="4" x="6" y="9" fill="#AEBED6" rx="1"/><rect width="2" height="4" x="10" y="9" fill="#AEBED6" rx="1"/><path stroke="#AEBED6" stroke-width="2" d="M5 3c0-.6.4-1 1-1h6c.6 0 1 .4 1 1v3H5V3Z"/></g></svg>