<svg width="24" height="24" fill="none" xmlns="http://www.w3.org/2000/svg"><g clip-path="url(#a)" fill="#324F5E"><path d="M9.4 21.6a3 3 0 1 1-5.2-3l5.2 3Z"/><path fill-rule="evenodd" clip-rule="evenodd" d="M17.3 3.4a1 1 0 0 0-1.4.3l-.5 1-.7-.2A6 6 0 0 0 8 7.3l-3.2 5.5-2.2.6L16 21l-.6-2.2 3.2-5.5a6 6 0 0 0-.8-7.1l-.6-.6.6-.9a1 1 0 0 0-.4-1.3Zm-1.3-2a3 3 0 0 1 3.6 4 8 8 0 0 1 .6 8.9L17.4 19l.8 2.8-1.2 2L-.4 14l1.2-2 2.8-.8 2.8-4.8a8 8 0 0 1 8-4 3 3 0 0 1 1.6-1Z"/></g><defs><clipPath id="a"><path fill="#fff" d="M0 0h24v24H0z"/></clipPath></defs></svg>