<svg width="215" height="170" fill="none" xmlns="http://www.w3.org/2000/svg"><g opacity=".4" filter="url(#a)"><path d="M93.3214 33.8381c-4.3426 32.7157-5.6198 33.4825-34.9957 47.54-1.6178 1.0223-5.8752 3.9871-9.9623 7.6676-5.1088 4.6006-19.6691 30.1593 9.9623 49.3293 29.6314 19.169 94.5143 16.358 126.4443-21.47 31.93-37.8273 15.304-69.5368-6.897-87.1563-22.201-17.6195-80.2091-28.62619-84.5516 4.0894Z" fill="url(#b)"/></g><path d="M93.3214 32.3723c-4.3426 32.7157-5.6198 33.4825-34.9957 47.54-1.6178 1.0223-5.8752 3.9871-9.9623 7.6676-5.1088 4.6006-19.6691 30.1601 9.9623 49.3291 29.6314 19.169 94.5143 16.358 126.4443-21.47 31.93-37.8272 15.304-69.5366-6.897-87.1561-22.201-17.6195-80.2091-28.6262-84.5516 4.0894Z" fill="url(#c)"/><mask id="d" style="mask-type:alpha" maskUnits="userSpaceOnUse" x="40" y="11" width="163" height="138"><path d="M93.3214 32.3724c-4.3426 32.7156-5.6198 33.4824-34.9957 47.5399-1.6178 1.0223-5.8752 3.9871-9.9623 7.6676-5.1088 4.6007-19.6691 30.1601 9.9623 49.3291 29.6314 19.169 94.5143 16.358 126.4443-21.47 31.93-37.8271 15.304-69.5366-6.897-87.1561-22.201-17.6195-80.2091-28.62617-84.5516 4.0895Z" fill="#D9D9D9"/></mask><g mask="url(#d)"><path d="M104.013 21.3244c12.804-25.44983 84.264 6.3322 98.04 12.7538 1.417.6605 2.275 2.091 2.238 3.654l-2.002 84.3948c-.069 2.923.001 3.685-2.603 2.354-12.934-6.618-57.389-20.246-64.059-50.2467-.44-1.9798-2.14-3.528-4.1-4.0505-13.029-3.4737-40.3742-23.2964-27.514-48.8594Z" fill="url(#e)"/><path opacity=".3" d="M233.174 2.83227C216.429-34.7095 173.725-51.2148 137.808-34.0781c-35.917 17.1366-51.4936 61.449-34.748 98.9907 16.745 37.5414 59.449 54.0474 95.366 36.9104 35.917-17.1366 51.493-61.449 34.748-98.99073Z" stroke="url(#f)" stroke-opacity=".8"/><path opacity=".3" d="M321.862-27.7697C292.313-94.0148 216.948-123.157 153.544-92.906 90.1402-62.6546 62.6597 15.558 92.208 81.8031c29.548 66.2449 104.914 95.3879 168.318 65.1359 63.403-30.251 90.884-108.4636 61.336-174.7087Z" stroke="url(#g)" stroke-opacity=".8"/><g opacity=".3" filter="url(#h)"><circle r="5.97071" transform="matrix(-.68607 -.72754 -.69797 .71613 97.0977 45.4895)" fill="#fff" fill-opacity=".3"/></g><g opacity=".2" filter="url(#i)"><circle r="5.42016" transform="matrix(-.68607 -.72754 -.69797 .71613 102.475 101.604)" fill="#fff" fill-opacity=".3"/></g><circle transform="matrix(-.68607 -.72754 -.69797 .71613 96.8118 45.5483)" fill="#86AEE9" r="1.48084"/><circle opacity=".8" r="1.11587" transform="matrix(-.68607 -.72754 -.69797 .71613 102.653 101.528)" fill="#6E8EBC"/><path d="M162.88 38.2171c-43.712-9.6462-15.56-15.4486-14.446-19.7951l15.002-7.7745c13.547 7.6996 49.259 14.679 49.259 15.2751 0 .5961-13.945 51.5351-17.471 62.712-5.938 1.7386-23.214-15.3966-37.912-18.3771-14.697-2.9805.455-12.13 4.166-17.4701 3.341-1.1176 10.203-12.628 1.402-14.5703Z" fill="url(#j)"/><path d="M137.821 17.6555c8.391.2463 28.176-26.76977 43.472 22.112 6.155 19.669 10.433 46.398 13.14 63.2315 5.163 1.224 11.056 2.861 17.759 5.196 31.304 10.909-13.118 3.337-14.342 10.194-.492 2.755-1.6-4.086-3.417-15.39-18.952-4.4942-28.062-3.4323-31.233-10.9885-4.034-9.6148.069-12.7732-.554-20.2222-2.184-26.1655-34.406-1.31-42.752-43.0526-3.243-16.2204 16.146-13.5966 17.927-11.0802Z" fill="url(#k)"/><path d="M172.05 41.3839c-18.774-22.1631-41.275-27.874-49.078-26.042-2.431-2.296-16.775-3.6698-9.263 13.6186 9.389 21.6104 26.365 7.1216 35.592 21.8923 9.226 14.7707.795 18.0264 15.277 26.9028 14.482 8.8763-.902 18.563 21.653 28.4644 22.554 9.901-9.769 31.727-11.741 37.086-1.971 5.358 13.813-9.617 23.041-13.825 2.035-2.651-1.73-60.0589-25.481-88.0971Z" fill="url(#l)"/></g><path d="M80.248 14.8389h20.138l-5.0345 5.8735 5.0345 5.8736H80.248V14.8389Z" fill="#E80061"/><path fill="#D10058" d="M79.4082 14h1.67816v29.3678H79.4082z"/><path d="M77.8457 105c-16.5 17.5-49.5 6.5-47-9.5s19.0004-9.8783 19.0004 4c0 13.878-9.0004 22.904-25.5001 21-27.00013-3.116-35-46 0-59.5S68.8457 23.5 72.3457 8" stroke="url(#m)" stroke-linecap="round" stroke-dasharray="4 4"/><path fill="url(#n)" d="M121.846 109h14v61h-14z"/><g filter="url(#o)"><path d="M89.4785 37.4941h68.3675c18.778 0 34 15.2224 34 34v38.1609H89.4785V37.4941Z" fill="#E0EDFF"/></g><path d="M65.1445 66.4424c0-15.9877 12.9606-28.9483 28.9483-28.9483 15.9882 0 28.9482 12.9606 28.9482 28.9483v37.3386H65.1445V66.4424Z" fill="#BAD3F4"/><path d="M67.6621 66.4427c0-14.5974 11.8336-26.431 26.431-26.431 14.5979 0 26.4309 11.8336 26.4309 26.431v37.3393H67.6621V66.4427Z" fill="#7CA4D9"/><path d="M49.8457 104.781c0-.552.4477-1 1-1h72.1953v5.874H50.8457c-.5523 0-1-.448-1-1v-3.874Z" fill="#BAD3F4"/><g filter="url(#p)"><path d="M77.8457 76c0-1.1046.8954-2 2-2h41.0003v30H79.8457c-1.1046 0-2-.895-2-2V76Z" fill="#fff"/></g><path d="M82.8457 80h16M82.8457 87h38.0003M82.8457 93h38.0003M82.8457 99h38.0003" stroke="#E1E3E6" stroke-width="2"/><path d="M137.331 78.148h4.718v1.764h-4.718v-1.764Zm.168 4.032h5.334V84h-7.588v-9.8h7.406v1.82h-5.152v6.16Zm7.139 1.82v-9.8h1.876l4.172 6.916h-.994l4.102-6.916h1.862l.028 9.8h-2.128l-.014-6.538h.392l-3.276 5.502h-1.022l-3.346-5.502h.476V84h-2.128Zm12.083 0 4.368-9.8h2.24l4.382 9.8h-2.38l-3.584-8.652h.896L159.045 84h-2.324Zm2.184-2.1.602-1.722h5.04l.616 1.722h-6.258Zm9.822 2.1v-9.8h2.268V84h-2.268Zm4.594 0v-9.8h2.268v7.952h4.914V84h-7.182Z" fill="#7CA4D9"/><defs><linearGradient id="b" x1="46.0369" y1="138.368" x2="167.256" y2="122.251" gradientUnits="userSpaceOnUse"><stop stop-color="#112AAD"/><stop offset="1" stop-color="#142269"/></linearGradient><linearGradient id="c" x1="46.0017" y1="136.91" x2="166.504" y2="120.976" gradientUnits="userSpaceOnUse"><stop stop-color="#112AAD"/><stop offset="1" stop-color="#142269"/></linearGradient><linearGradient id="e" x1="117.781" y1="42.601" x2="187.823" y2="127.571" gradientUnits="userSpaceOnUse"><stop stop-color="#0251C8"/><stop offset="1" stop-color="#0251C8" stop-opacity="0"/></linearGradient><linearGradient id="f" x1="70.6845" y1="72.9918" x2="205.11" y2="85.0602" gradientUnits="userSpaceOnUse"><stop stop-color="#fff"/><stop offset="1" stop-color="#fff" stop-opacity="0"/></linearGradient><linearGradient id="g" x1="95.5292" y1="61.9765" x2="94.664" y2="115.245" gradientUnits="userSpaceOnUse"><stop stop-color="#fff"/><stop offset="1" stop-color="#fff" stop-opacity="0"/></linearGradient><linearGradient id="j" x1="183.707" y1="46.5344" x2="186.147" y2="91.5316" gradientUnits="userSpaceOnUse"><stop stop-color="#06F"/><stop offset="1" stop-color="#06F" stop-opacity="0"/></linearGradient><linearGradient id="k" x1="162.564" y1="32.438" x2="210.584" y2="118.687" gradientUnits="userSpaceOnUse"><stop stop-color="#142269"/><stop offset="1" stop-color="#142269" stop-opacity="0"/></linearGradient><linearGradient id="l" x1="149.272" y1="39.1699" x2="212.258" y2="104.234" gradientUnits="userSpaceOnUse"><stop stop-color="#649AEB"/><stop offset="1" stop-color="#649AEB" stop-opacity="0"/></linearGradient><linearGradient id="m" x1="72.8457" y1="109" x2="24.7885" y2="57.0529" gradientUnits="userSpaceOnUse"><stop stop-color="#fff"/><stop offset="1" stop-color="#485FD1"/></linearGradient><linearGradient id="n" x1="128.846" y1="109" x2="128.846" y2="155" gradientUnits="userSpaceOnUse"><stop stop-color="#14226C"/><stop offset=".49072" stop-color="#878EB4" stop-opacity=".88"/><stop offset="1" stop-color="#fff"/></linearGradient><filter id="a" x="28.2617" y=".83008" width="186.268" height="161.17" filterUnits="userSpaceOnUse" color-interpolation-filters="sRGB"><feFlood flood-opacity="0" result="BackgroundImageFix"/><feBlend in="SourceGraphic" in2="BackgroundImageFix" result="shape"/><feGaussianBlur stdDeviation="6" result="effect1_foregroundBlur_1_36"/></filter><filter id="h" x="85.2541" y="33.3943" width="23.687" height="24.1905" filterUnits="userSpaceOnUse" color-interpolation-filters="sRGB"><feFlood flood-opacity="0" result="BackgroundImageFix"/><feBlend in="SourceGraphic" in2="BackgroundImageFix" result="shape"/><feGaussianBlur stdDeviation="3" result="effect1_foregroundBlur_1_36"/></filter><filter id="i" x="91.1702" y="90.0705" width="22.6094" height="23.0664" filterUnits="userSpaceOnUse" color-interpolation-filters="sRGB"><feFlood flood-opacity="0" result="BackgroundImageFix"/><feBlend in="SourceGraphic" in2="BackgroundImageFix" result="shape"/><feGaussianBlur stdDeviation="3" result="effect1_foregroundBlur_1_36"/></filter><filter id="o" x="89.4785" y="37.4941" width="102.368" height="72.1609" filterUnits="userSpaceOnUse" color-interpolation-filters="sRGB"><feFlood flood-opacity="0" result="BackgroundImageFix"/><feBlend in="SourceGraphic" in2="BackgroundImageFix" result="shape"/><feColorMatrix in="SourceAlpha" values="0 0 0 0 0 0 0 0 0 0 0 0 0 0 0 0 0 0 127 0" result="hardAlpha"/><feOffset dx="-2"/><feComposite in2="hardAlpha" operator="arithmetic" k2="-1" k3="1"/><feColorMatrix values="0 0 0 0 0.729412 0 0 0 0 0.827451 0 0 0 0 0.956863 0 0 0 1 0"/><feBlend in2="shape" result="effect1_innerShadow_1_36"/></filter><filter id="p" x="76.8457" y="74" width="44" height="30" filterUnits="userSpaceOnUse" color-interpolation-filters="sRGB"><feFlood flood-opacity="0" result="BackgroundImageFix"/><feColorMatrix in="SourceAlpha" values="0 0 0 0 0 0 0 0 0 0 0 0 0 0 0 0 0 0 127 0" result="hardAlpha"/><feOffset dx="-1"/><feComposite in2="hardAlpha" operator="out"/><feColorMatrix values="0 0 0 0 0 0 0 0 0 0 0 0 0 0 0 0 0 0 0.15 0"/><feBlend in2="BackgroundImageFix" result="effect1_dropShadow_1_36"/><feBlend in="SourceGraphic" in2="effect1_dropShadow_1_36" result="shape"/></filter></defs></svg>