<svg xmlns="http://www.w3.org/2000/svg" width="185" height="157" fill="none"><g filter="url(#a)" opacity=".4"><path fill="url(#b)" d="M97.2 21.9a53 53 0 0 0-67.3 4.7c-16 15.2-18.7 28-17.7 38.7C13.3 78.8 28.7 93 24 103.5c-4.7 10.5-12.4 37 18.3 41 30.7 4.2 30.7-22.2 72-23.4 41.3-1.2 56.1-4.7 58.5-20 2.3-15.2-13-20-42.5-24.6-29.6-4.7-9-38.2-33.1-54.6Z"/></g><path fill="url(#c)" d="M97.2 19.9a53 53 0 0 0-67.3 4.7c-16 15.2-18.7 28-17.7 38.7C13.3 76.8 28.7 91 24 101.5c-4.7 10.5-12.4 37 18.3 41 30.7 4.2 30.7-22.2 72-23.4 41.3-1.2 56.1-4.7 58.5-20 2.3-15.2-13-20-42.5-24.6-29.6-4.7-9-38.2-33.1-54.6Z"/><mask id="d" width="161" height="133" x="12" y="10" maskUnits="userSpaceOnUse" style="mask-type:alpha"><path fill="#D9D9D9" d="M97.2 19.9a53 53 0 0 0-67.3 4.7c-16 15.2-18.7 28-17.7 38.7C13.3 76.8 28.7 91 24 101.5c-4.7 10.5-12.4 37 18.3 41 30.7 4.2 30.7-22.2 72-23.4 41.3-1.2 56.1-4.7 58.5-20 2.3-15.2-13-20-42.5-24.6-29.6-4.7-9-38.2-33.1-54.6Z"/></mask><g mask="url(#d)"><path fill="url(#e)" d="M104.8 88c8.7 27.2-64.6 54.4-79 59.5-1.5.5-3 0-4.1-1L-36 84.6c-2-2.2-2.6-2.7.2-3.5 13.9-4.3 55.2-25.7 81-8.9 1.7 1.1 4 1 5.7 0 11.8-6.6 45.2-11.5 53.8 15.8Z"/><path stroke="url(#f)" stroke-opacity=".8" d="M25.4 191.6a71 71 0 0 0 94-40.3 75.6 75.6 0 0 0-44.3-95 71 71 0 0 0-94 40.2 75.6 75.6 0 0 0 44.3 95Z" opacity=".3"/><path stroke="url(#g)" stroke-opacity=".8" d="M-16.6 275.5c67.4 26.7 141.7-5.2 165.9-71.1 24.2-66-10.9-141.1-78.3-167.8-67.4-26.7-141.7 5-165.9 71-24.2 66 10.8 141.1 78.3 167.9Z" opacity=".3"/><g filter="url(#h)" opacity=".3"><circle r="6" fill="#fff" fill-opacity=".3" transform="matrix(.99917 .04075 -.0014 -1 92.9 66)"/></g><g filter="url(#i)" opacity=".2"><circle r="5.4" fill="#fff" fill-opacity=".3" transform="matrix(.99917 .04075 -.0014 -1 49.8 29.6)"/></g><circle r="1.5" fill="#86AEE9" transform="matrix(.99917 .04075 -.0014 -1 93 65.7)"/><circle r="1.1" fill="#6E8EBC" opacity=".8" transform="matrix(.99917 .04075 -.0014 -1 49.8 29.8)"/><path fill="url(#j)" d="M51 117.1c38-23.6 21.9.2 24.1 4.1l-5.3 16c-15 4-45.5 24-45.9 23.6-.4-.5-26-46.6-31.3-57.1 3-5.4 27.3-5.2 40-13.4 12.5-8.1 8 9 9.2 15.4-1.7 3.2 1.5 16.2 9.1 11.4Z"/><path fill="url(#k)" d="M83.2 114.3c-6.1 5.7-1.4 38.9-46.5 14.6-18.2-9.8-40-25.9-53.6-36a179 179 0 0 1-16.3 8.7c-30 14 7-11.6 3-17.3-1.5-2.4 4 1.8 13.3 8.6 16.7-10 22.5-17.2 30-14 9.6 4 8.9 9.2 14.5 14 19.9 17.3 25.6-23 60.7 1 13.7 9.3-2 21-5 20.4Z"/><path fill="url(#l)" d="M42.2 121.3c28.9 2.7 49-9 53.3-15.7 3.3 0 14.5-9-3-16.2-21.7-8.9-23.8 13.3-40.7 9.2-17-4.1-13.2-12.3-29.7-8.5-16.6 3.7-12.3-14-35.4-5.3-23 8.7-15.2-29.5-17.5-34.7-2.4-5.2-3.2 16.5-6.8 26 .4 3.3 43.2 41.7 79.8 45.2Z"/></g><path fill="#9ABDEC" d="M38 61.5a7 7 0 0 1 7.1-7l95.2 1.6a4 4 0 0 1 4 4v59.5a4 4 0 0 1-4 4L45.1 125a7 7 0 0 1-7.1-7V61.5Z"/><path fill="#E0EDFF" d="M39.6 61.7a8 8 0 0 1 8.1-8l92.6 1.6a4 4 0 0 1 4 4v59.5a4 4 0 0 1-4 4l-92.6 1.5a8 8 0 0 1-8-8V61.7Z"/><path fill="#fff" d="M46 62.5a4 4 0 0 1 4-4l87.5.8a2 2 0 0 1 2 2v50.6a2 2 0 0 1-2 2l-87.4.9a4 4 0 0 1-4-4V62.5Z"/><g filter="url(#m)"><circle cx="96" cy="119.6" r="2.4" fill="#BAD3F4"/></g><path fill="#E1E3E5" d="M116.4 102.5a1 1 0 0 0-1-1H98.2a1 1 0 0 0-1 1v6.7a1 1 0 0 0 1 1h17.2a1 1 0 0 0 1-1v-6.7Zm2.6 6.7a1 1 0 0 0 1 1h16.3a1 1 0 0 0 1-1v-6.7a1 1 0 0 0-1-1H120a1 1 0 0 0-1 1v6.7Zm-44.4-6.7a1 1 0 0 1 1-1h18a1 1 0 0 1 1 1v6.7a1 1 0 0 1-1 1h-18a1 1 0 0 1-1-1v-6.7Zm-2.6 0a1 1 0 0 0-1-1H50.3a1 1 0 0 0-1 1v6.7a1 1 0 0 0 1 1H71a1 1 0 0 0 1-1v-6.7ZM122.5 64a1 1 0 0 0-1-1l-8.4-.2a1 1 0 0 0-1 1V66a1 1 0 0 0 1 1l8.4.1a1 1 0 0 0 1-1V64Zm2.6 2.3a1 1 0 0 0 1 1h9.8a1 1 0 0 0 1-1v-2a1 1 0 0 0-1-1l-9.8-.2a1 1 0 0 0-1 1v2.2Zm-29.6-2.8a1 1 0 0 1 1-1l12 .2a1 1 0 0 1 1 1V66a1 1 0 0 1-1 1l-12-.2a1 1 0 0 1-1-1v-2.4Zm-2.6 0a1 1 0 0 0-1-1L79.5 62a1 1 0 0 0-1 1v2.5a1 1 0 0 0 1 1l12.4.1a1 1 0 0 0 1-1v-2.3Zm-35.5-.8a1 1 0 0 0-1-1l-6.5-.1a1 1 0 0 0-1 1v2.4a1 1 0 0 0 1 1l6.5.1a1 1 0 0 0 1-1v-2.4Z"/><mask id="n" width="94" height="57" x="46" y="58" maskUnits="userSpaceOnUse" style="mask-type:alpha"><path fill="#fff" d="M46 62.5a4 4 0 0 1 4-4l87.5.8a2 2 0 0 1 2 2v50.6a2 2 0 0 1-2 2l-87.4.9a4 4 0 0 1-4-4V62.5Z"/></mask><g mask="url(#n)"><path fill="#E1E3E5" d="m44.1 69.3 95.8.8v26.2H44.1v-27Z"/></g><ellipse cx="129.2" cy="68.8" fill="#E80061" rx="19.8" ry="21.3"/><path fill="#fff" d="M140 61.4 129.4 79l-9.7-9.7 3.3-3.5 5.5 5.5 7.5-12.5 4 2.6Z"/><path fill="#E0EDFF" d="m40 40 1.4 3.6L45 45l-3.6 1.4L40 50l-1.4-3.6L35 45l3.6-1.4L40 40Zm-9.5 9 1 2.6 2.5.9-2.6 1-.9 2.5-1-2.6-2.5-.9 2.6-1 .9-2.5Z"/><defs><linearGradient id="b" x1="17.7" x2="137.9" y1="133.7" y2="117.4" gradientUnits="userSpaceOnUse"><stop stop-color="#112AAD"/><stop offset="1" stop-color="#142269"/></linearGradient><linearGradient id="c" x1="17.7" x2="137.2" y1="131.7" y2="115.6" gradientUnits="userSpaceOnUse"><stop stop-color="#142269"/><stop offset="1" stop-color="#112AAD"/></linearGradient><linearGradient id="e" x1="80.1" x2="-29.4" y1="82.5" y2="70.7" gradientUnits="userSpaceOnUse"><stop stop-color="#0251C8"/><stop offset="1" stop-color="#0251C8" stop-opacity="0"/></linearGradient><linearGradient id="f" x1="92.6" x2="-12" y1="27.8" y2="113.2" gradientUnits="userSpaceOnUse"><stop stop-color="#fff"/><stop offset="1" stop-color="#fff" stop-opacity="0"/></linearGradient><linearGradient id="g" x1="82.5" x2="45.9" y1="53.1" y2="14.4" gradientUnits="userSpaceOnUse"><stop stop-color="#fff"/><stop offset="1" stop-color="#fff" stop-opacity="0"/></linearGradient><linearGradient id="j" x1="30.2" x2="-3" y1="125.8" y2="95.3" gradientUnits="userSpaceOnUse"><stop stop-color="#06F"/><stop offset="1" stop-color="#06F" stop-opacity="0"/></linearGradient><linearGradient id="k" x1="55.2" x2="-39.4" y1="121.1" y2="92.9" gradientUnits="userSpaceOnUse"><stop stop-color="#142269"/><stop offset="1" stop-color="#142269" stop-opacity="0"/></linearGradient><linearGradient id="l" x1="60" x2="-30.5" y1="107" y2="104.4" gradientUnits="userSpaceOnUse"><stop stop-color="#649AEB"/><stop offset="1" stop-color="#649AEB" stop-opacity="0"/></linearGradient><filter id="a" width="185" height="157" x="0" y="0" color-interpolation-filters="sRGB" filterUnits="userSpaceOnUse"><feFlood flood-opacity="0" result="BackgroundImageFix"/><feBlend in="SourceGraphic" in2="BackgroundImageFix" result="shape"/><feGaussianBlur result="effect1_foregroundBlur_3_41" stdDeviation="6"/></filter><filter id="h" width="23.9" height="24" x="80.9" y="54" color-interpolation-filters="sRGB" filterUnits="userSpaceOnUse"><feFlood flood-opacity="0" result="BackgroundImageFix"/><feBlend in="SourceGraphic" in2="BackgroundImageFix" result="shape"/><feGaussianBlur result="effect1_foregroundBlur_3_41" stdDeviation="3"/></filter><filter id="i" width="22.8" height="22.8" x="38.4" y="18.2" color-interpolation-filters="sRGB" filterUnits="userSpaceOnUse"><feFlood flood-opacity="0" result="BackgroundImageFix"/><feBlend in="SourceGraphic" in2="BackgroundImageFix" result="shape"/><feGaussianBlur result="effect1_foregroundBlur_3_41" stdDeviation="3"/></filter><filter id="m" width="4.8" height="4.8" x="93.6" y="117.2" color-interpolation-filters="sRGB" filterUnits="userSpaceOnUse"><feFlood flood-opacity="0" result="BackgroundImageFix"/><feBlend in="SourceGraphic" in2="BackgroundImageFix" result="shape"/><feColorMatrix in="SourceAlpha" result="hardAlpha" values="0 0 0 0 0 0 0 0 0 0 0 0 0 0 0 0 0 0 127 0"/><feOffset dx="-1"/><feComposite in2="hardAlpha" k2="-1" k3="1" operator="arithmetic"/><feColorMatrix values="0 0 0 0 0.662917 0 0 0 0 0.775884 0 0 0 0 0.925 0 0 0 1 0"/><feBlend in2="shape" result="effect1_innerShadow_3_41"/></filter></defs></svg>