<svg xmlns="http://www.w3.org/2000/svg" width="24" height="24" fill="none"><g clip-path="url(#a)"><mask id="b" fill="#fff"><path d="M12 15c-2.5 0-4.2.6-6 2.6 3.2 3.4 9.3 3 12 0-1.4-1.9-3.5-2.6-6-2.6Z"/></mask><path fill="#FC0F68" d="M6 17.6-1.4 11l-6.3 7 6.5 6.6L6 17.6Zm12 0 7.5 6.7 5.4-6.1-4.9-6.5-8 6Zm-4.6 6.7c.1-.1.1 0 0 0l-.8.5c-.7.3-1.1.2-.6.2V5c-2 0-4.5.2-7 1.3A17.7 17.7 0 0 0-1.5 11l14.8 13.4ZM12 25c.3 0 0 0-.4-.2a4 4 0 0 1-1.6-1.2l16-12A17 17 0 0 0 12 5v20Zm-1.5-14c.5-.6 1-.8 1.2-1h.6l1 .7-14.5 13.8c4 4.2 9.2 5.6 13.6 5.5a18 18 0 0 0 13-5.7L10.6 11Z" mask="url(#b)"/><mask id="c" fill="#fff"><path d="M24 12a12 12 0 1 1-24 0 12 12 0 0 1 24 0ZM2 12a10 10 0 1 0 20 0 10 10 0 0 0-20 0Z"/></mask><path fill="#142269" stroke="#324F5E" stroke-linecap="round" stroke-linejoin="round" stroke-width="4" d="M24 12a12 12 0 1 1-24 0 12 12 0 0 1 24 0ZM2 12a10 10 0 1 0 20 0 10 10 0 0 0-20 0Z" mask="url(#c)"/><circle cx="12" cy="9" r="4" stroke="#324F5E" stroke-width="2"/></g><defs><clipPath id="a"><path fill="#fff" d="M0 0h24v24H0z"/></clipPath></defs></svg>