<svg xmlns="http://www.w3.org/2000/svg" width="18" height="18" fill="none"><mask id="a" width="18" height="18" x="0" y="0" maskUnits="userSpaceOnUse" style="mask-type:alpha"><path fill="#C4C4C4" d="M0 0h18v18H0z"/></mask><g mask="url(#a)"><circle cx="13" cy="13" r="4" stroke="#AEBED6" stroke-width="2"/><path fill="#AEBED6" fill-rule="evenodd" d="M8 7a2 2 0 1 0 0-4 2 2 0 0 0 0 4Zm4-2a4 4 0 0 1-.7 2.2A6 6 0 0 0 7.8 10 4 4 0 0 0 4 14h3v2H2v-2a6 6 0 0 1 3.9-5.6A4 4 0 1 1 12 5Z" clip-rule="evenodd"/><path stroke="#AEBED6" stroke-width="2" d="m16 10-6 6"/></g></svg>