<svg width="405" height="376" fill="none" xmlns="http://www.w3.org/2000/svg"><g clip-path="url(#a)"><mask id="b" style="mask-type:alpha" maskUnits="userSpaceOnUse" x="-944" y="0" width="1354" height="441"><path fill="#D9D9D9" d="M-944 0H410v441H-944z"/></mask><g mask="url(#b)"><g filter="url(#c)"><ellipse rx="8.3" ry="8.5" transform="matrix(.67635 .75873 -.6932 .6987 226 20)" fill="#fff"/></g><ellipse rx="4.3" ry="4.4" transform="matrix(.67635 .75873 -.6932 .6987 226 20)" fill="#fff"/><g filter="url(#d)"><ellipse rx="4.5" ry="4.6" transform="matrix(.67635 .75873 -.6932 .6987 173 347)" fill="#fff"/></g><ellipse rx="2.3" ry="2.4" transform="matrix(.67635 .75873 -.6932 .6987 173 347)" fill="#fff"/><g filter="url(#e)"><ellipse rx="4.5" ry="4.6" transform="matrix(.67635 .75873 -.6932 .6987 207 200)" fill="#fff"/></g><ellipse rx="2.3" ry="2.4" transform="matrix(.67635 .75873 -.6932 .6987 207 200)" fill="#fff"/><g opacity=".4"><path d="M340 253C221 277 107 194 83 68 60-58 137-180 256-204c118-24 232 58 256 184 23 127-54 248-172 273Z" stroke="url(#f)" stroke-width="2"/><g filter="url(#g)"><ellipse rx="9" ry="9.1" transform="matrix(.55098 .85797 -.7938 .57576 80 38)" fill="#fff"/></g><ellipse rx="9" ry="9.1" transform="matrix(.55098 .85797 -.7938 .57576 80 38)" fill="#fff"/></g><path opacity=".4" d="M382 176c-92 19-182-45-200-144-18-98 42-193 134-212s181 46 199 144c18 99-41 193-133 212Z" stroke="url(#h)" stroke-width="2"/></g></g><defs><filter id="c" x="208.3" y="1.3" width="36.3" height="37.3" filterUnits="userSpaceOnUse" color-interpolation-filters="sRGB"><feFlood flood-opacity="0" result="BackgroundImageFix"/><feBlend in="SourceGraphic" in2="BackgroundImageFix" result="shape"/><feGaussianBlur stdDeviation="5" result="effect1_foregroundBlur_24_25"/></filter><filter id="d" x="159.1" y="332.4" width="28.8" height="29.4" filterUnits="userSpaceOnUse" color-interpolation-filters="sRGB"><feFlood flood-opacity="0" result="BackgroundImageFix"/><feBlend in="SourceGraphic" in2="BackgroundImageFix" result="shape"/><feGaussianBlur stdDeviation="5" result="effect1_foregroundBlur_24_25"/></filter><filter id="e" x="192.9" y="185.3" width="28.8" height="29.4" filterUnits="userSpaceOnUse" color-interpolation-filters="sRGB"><feFlood flood-opacity="0" result="BackgroundImageFix"/><feBlend in="SourceGraphic" in2="BackgroundImageFix" result="shape"/><feGaussianBlur stdDeviation="5" result="effect1_foregroundBlur_24_25"/></filter><filter id="g" x="55.4" y="12.6" width="49.5" height="50.6" filterUnits="userSpaceOnUse" color-interpolation-filters="sRGB"><feFlood flood-opacity="0" result="BackgroundImageFix"/><feBlend in="SourceGraphic" in2="BackgroundImageFix" result="shape"/><feGaussianBlur stdDeviation="8" result="effect1_foregroundBlur_24_25"/></filter><radialGradient id="f" cx="0" cy="0" r="1" gradientUnits="userSpaceOnUse" gradientTransform="matrix(-215.00612 44.17353 -46.9252 -228.39937 298 24)"><stop offset=".1" stop-color="#fff" stop-opacity="0"/><stop offset=".4" stop-color="#fff" stop-opacity="0"/><stop offset="1" stop-color="#fff"/></radialGradient><radialGradient id="h" cx="0" cy="0" r="1" gradientUnits="userSpaceOnUse" gradientTransform="matrix(-167.4922 34.24414 -36.47558 -178.40642 349 -2)"><stop offset="0" stop-color="#fff" stop-opacity="0"/><stop offset=".4" stop-color="#fff" stop-opacity="0"/><stop offset=".8" stop-color="#fff"/></radialGradient><clipPath id="a"><rect width="405" height="376" rx="5" fill="#fff"/></clipPath></defs></svg>