<svg xmlns="http://www.w3.org/2000/svg" width="52" height="52" fill="none"><mask id="a" width="52" height="52" x="0" y="0" maskUnits="userSpaceOnUse" style="mask-type:alpha"><path fill="#868686" d="M0 0h52v52H0z"/></mask><g stroke-width="2" mask="url(#a)"><path stroke="#142269" stroke-linecap="round" d="M45.5 43.9h1.3a2 2 0 0 0 2-2V10a2 2 0 0 0-2-2H5.3a2 2 0 0 0-2 2V42c0 1 .8 2 2 2h14.2m8.1 0h-2.4M3.3 14.6h45.5M6.5 11.4h2.4M6.5 20.3h13.8M6.5 38.2h9M6.5 25.2h8.1M6.5 30h4.9"/><path stroke="#E80061" stroke-linecap="round" d="M28 21.3a10.2 10.2 0 1 1-4 3.3"/><path stroke="#E80061" stroke-linecap="round" d="M37 34.9a6.5 6.5 0 1 1 1.6-3"/><path stroke="#E80061" d="m34.6 40.7 3.7-1.8 4.3 9.3a2 2 0 1 1-3.7 1.7l-4.3-9.2Z"/></g></svg>