<svg width="85" height="29" viewBox="0 0 85 29" fill="none" xmlns="http://www.w3.org/2000/svg">
<path d="M4.12692 2.10767C4.12692 3.27171 3.20308 4.21533 2.06346 4.21533C0.923839 4.21533 0 3.27171 0 2.10767C0 0.943636 0.923839 0 2.06346 0C3.20308 0 4.12692 0.943636 4.12692 2.10767Z" fill="#0066FF"/>
<path d="M4.12692 7.37698C4.12692 8.541 3.20308 9.48464 2.06346 9.48464C0.923839 9.48464 0 8.541 0 7.37698C0 6.21294 0.923839 5.2693 2.06346 5.2693C3.20308 5.2693 4.12692 6.21294 4.12692 7.37698Z" fill="#0066FF"/>
<path d="M4.12692 12.6475C4.12692 13.8116 3.20308 14.7552 2.06346 14.7552C0.923839 14.7552 0 13.8116 0 12.6475C0 11.4836 0.923839 10.5399 2.06346 10.5399C3.20308 10.5399 4.12692 11.4836 4.12692 12.6475Z" fill="#0066FF"/>
<path d="M9.28122 2.10767C9.28122 3.27171 8.35737 4.21533 7.21776 4.21533C6.07814 4.21533 5.1543 3.27171 5.1543 2.10767C5.1543 0.943636 6.07814 0 7.21776 0C8.35737 0 9.28122 0.943636 9.28122 2.10767Z" fill="#0066FF"/>
<path d="M9.28122 7.37698C9.28122 8.541 8.35737 9.48464 7.21776 9.48464C6.07814 9.48464 5.1543 8.541 5.1543 7.37698C5.1543 6.21294 6.07814 5.2693 7.21776 5.2693C8.35737 5.2693 9.28122 6.21294 9.28122 7.37698Z" fill="#0066FF"/>
<path d="M19.3729 2.84196C20.4113 2.84196 21.3127 3.0168 22.0772 3.36645C22.8532 3.71611 23.4466 4.2173 23.8573 4.86999C24.2681 5.52269 24.4735 6.29777 24.4735 7.19522C24.4735 8.08103 24.2681 8.8561 23.8573 9.52046C23.4466 10.1732 22.8532 10.6743 22.0772 11.024C21.3127 11.3737 20.4113 11.5484 19.3729 11.5484H16.6685V15.08H14.4434V2.84196H19.3729ZM19.2702 9.62535C20.2402 9.62535 20.9761 9.41556 21.4781 8.99597C21.9803 8.57638 22.2313 7.97613 22.2313 7.19522C22.2313 6.41432 21.9803 5.81407 21.4781 5.39448C20.9761 4.97489 20.2402 4.76509 19.2702 4.76509H16.6685V9.62535H19.2702Z" fill="#04202F"/>
<path d="M31.5924 5.63946C32.7449 5.63946 33.6692 5.98329 34.3653 6.67095C35.0614 7.35861 35.4094 8.37846 35.4094 9.73046V15.0802H33.2698V10.0102C33.2698 9.19432 33.0816 8.58242 32.7049 8.17448C32.3284 7.7549 31.7921 7.5451 31.096 7.5451C30.3087 7.5451 29.6868 7.78987 29.2303 8.27939C28.774 8.75725 28.5457 9.45074 28.5457 10.3599V15.0802H26.4062V2.10791H28.5457V6.8283C28.8994 6.44367 29.3331 6.15229 29.8465 5.95415C30.3715 5.74436 30.9534 5.63946 31.5924 5.63946Z" fill="#04202F"/>
<path d="M47.0199 5.74467V15.0805H44.983V13.8743C44.6293 14.3171 44.19 14.6493 43.6651 14.8708C43.1515 15.0922 42.5811 15.203 41.9535 15.203C41.0634 15.203 40.2646 15.0048 39.5572 14.6085C38.8611 14.2123 38.3134 13.6528 37.914 12.9302C37.5261 12.2076 37.332 11.3683 37.332 10.4126C37.332 9.45688 37.5261 8.62352 37.914 7.91255C38.3134 7.18993 38.8611 6.63048 39.5572 6.23419C40.2646 5.83791 41.0634 5.63977 41.9535 5.63977C42.5469 5.63977 43.0888 5.74467 43.5795 5.95447C44.0815 6.16426 44.5152 6.47313 44.8803 6.88106V5.74467H47.0199ZM42.193 13.3323C42.9804 13.3323 43.6308 13.0642 44.1444 12.5281C44.6578 11.9919 44.9146 11.2868 44.9146 10.4126C44.9146 9.53846 44.6578 8.83331 44.1444 8.29718C43.6308 7.76103 42.9804 7.49296 42.193 7.49296C41.4057 7.49296 40.7553 7.76103 40.2418 8.29718C39.7398 8.83331 39.4887 9.53846 39.4887 10.4126C39.4887 11.2868 39.7398 11.9919 40.2418 12.5281C40.7553 13.0642 41.4057 13.3323 42.193 13.3323Z" fill="#04202F"/>
<path d="M51.1911 7.10834C51.8073 6.12929 52.8913 5.63977 54.4432 5.63977V7.72024C54.2607 7.68527 54.0951 7.6678 53.9469 7.6678C53.1138 7.6678 52.4634 7.91838 51.9956 8.41956C51.5277 8.90908 51.2937 9.62006 51.2937 10.5525V15.0805H49.1543V5.74467H51.1911V7.10834Z" fill="#04202F"/>
<path d="M67.841 5.63977C68.9934 5.63977 69.9063 5.98361 70.5795 6.67127C71.2528 7.34728 71.5894 8.36711 71.5894 9.73078V15.0805H69.4499V10.0105C69.4499 9.19463 69.273 8.58274 68.9193 8.1748C68.5656 7.7552 68.0577 7.54541 67.3959 7.54541C66.6771 7.54541 66.1008 7.79017 65.6672 8.27969C65.2335 8.75756 65.0168 9.44522 65.0168 10.3427V15.0805H62.8773V10.0105C62.8773 9.19463 62.7003 8.58274 62.3466 8.1748C61.9929 7.7552 61.4852 7.54541 60.8234 7.54541C60.093 7.54541 59.511 7.78434 59.0774 8.26221C58.6553 8.74007 58.4443 9.43357 58.4443 10.3427V15.0805H56.3047V5.74467H58.3415V6.93351C58.6838 6.51392 59.1117 6.1934 59.6252 5.97194C60.1386 5.75049 60.7092 5.63977 61.3368 5.63977C62.0214 5.63977 62.6262 5.77381 63.1511 6.04187C63.6875 6.29829 64.1096 6.68292 64.4177 7.19575C64.7943 6.70623 65.2793 6.32743 65.8726 6.05936C66.4659 5.77963 67.1221 5.63977 67.841 5.63977Z" fill="#04202F"/>
<path d="M83.0549 5.74467V15.0805H81.0182V13.8743C80.6644 14.3171 80.225 14.6493 79.7002 14.8708C79.1867 15.0922 78.6161 15.203 77.9885 15.203C77.0984 15.203 76.2997 15.0048 75.5923 14.6085C74.8961 14.2123 74.3485 13.6528 73.949 12.9302C73.5611 12.2076 73.3672 11.3683 73.3672 10.4126C73.3672 9.45687 73.5611 8.62352 73.949 7.91255C74.3485 7.18993 74.8961 6.63046 75.5923 6.23419C76.2997 5.83791 77.0984 5.63977 77.9885 5.63977C78.5819 5.63977 79.124 5.74467 79.6146 5.95447C80.1167 6.16426 80.5502 6.47313 80.9154 6.88106V5.74467H83.0549ZM78.2282 13.3323C79.0155 13.3323 79.6659 13.0642 80.1794 12.5281C80.6929 11.9919 80.9496 11.2868 80.9496 10.4126C80.9496 9.53846 80.6929 8.83331 80.1794 8.29718C79.6659 7.76103 79.0155 7.49296 78.2282 7.49296C77.4408 7.49296 76.7904 7.76103 76.2769 8.29718C75.7748 8.83331 75.5237 9.53846 75.5237 10.4126C75.5237 11.2868 75.7748 11.9919 76.2769 12.5281C76.7904 13.0642 77.4408 13.3323 78.2282 13.3323Z" fill="#04202F"/>
<path d="M19.5073 28.9881C18.2685 28.9881 17.1466 28.7188 16.1415 28.1799C15.1482 27.6295 14.3653 26.8741 13.7925 25.9137C13.2317 24.9533 12.9512 23.8698 12.9512 22.6635C12.9512 21.4571 13.2375 20.3737 13.8101 19.4133C14.3827 18.4529 15.1658 17.7032 16.1591 17.1645C17.1641 16.614 18.286 16.3388 19.5248 16.3388C20.5298 16.3388 21.4473 16.5145 22.277 16.8659C23.1067 17.2172 23.8079 17.7267 24.3805 18.3943L22.908 19.7821C22.0199 18.8217 20.9272 18.3416 19.6299 18.3416C18.7886 18.3416 18.0348 18.529 17.3687 18.9038C16.7025 19.2668 16.1825 19.7763 15.8084 20.4323C15.4345 21.0881 15.2476 21.8318 15.2476 22.6635C15.2476 23.495 15.4345 24.2388 15.8084 24.8946C16.1825 25.5505 16.7025 26.0659 17.3687 26.4406C18.0348 26.8038 18.7886 26.9853 19.6299 26.9853C20.9272 26.9853 22.0199 26.4992 22.908 25.5271L24.3805 26.9325C23.8079 27.6002 23.1009 28.1097 22.2594 28.4611C21.4297 28.8125 20.5124 28.9881 19.5073 28.9881Z" fill="#04202F"/>
<path d="M30.9413 28.9349C29.9946 28.9349 29.1416 28.7298 28.3819 28.32C27.6223 27.9101 27.0263 27.342 26.5939 26.6157C26.1732 25.8779 25.9629 25.0463 25.9629 24.121C25.9629 23.1958 26.1732 22.3701 26.5939 21.6439C27.0263 20.9178 27.6223 20.3497 28.3819 19.9398C29.1416 19.5298 29.9946 19.3248 30.9413 19.3248C31.8995 19.3248 32.7585 19.5298 33.5181 19.9398C34.2777 20.3497 34.8679 20.9178 35.2886 21.6439C35.721 22.3701 35.9372 23.1958 35.9372 24.121C35.9372 25.0463 35.721 25.8779 35.2886 26.6157C34.8679 27.342 34.2777 27.9101 33.5181 28.32C32.7585 28.7298 31.8995 28.9349 30.9413 28.9349ZM30.9413 27.055C31.7476 27.055 32.4137 26.7856 32.9396 26.2469C33.4656 25.7081 33.7285 24.9995 33.7285 24.121C33.7285 23.2426 33.4656 22.534 32.9396 21.9953C32.4137 21.4565 31.7476 21.1871 30.9413 21.1871C30.1349 21.1871 29.4688 21.4565 28.9429 21.9953C28.4287 22.534 28.1716 23.2426 28.1716 24.121C28.1716 24.9995 28.4287 25.7081 28.9429 26.2469C29.4688 26.7856 30.1349 27.055 30.9413 27.055Z" fill="#04202F"/>
<path d="M46.9631 19.4308V28.8124H44.8771V27.6177C44.5264 28.0394 44.0882 28.3673 43.5623 28.6016C43.0365 28.8242 42.4697 28.9355 41.8619 28.9355C40.6115 28.9355 39.624 28.5899 38.8995 27.8989C38.1865 27.1961 37.8301 26.1596 37.8301 24.7892V19.4308H40.0213V24.4906C40.0213 25.3339 40.2083 25.9663 40.5823 26.3879C40.968 26.7979 41.5114 27.0029 42.2126 27.0029C42.9955 27.0029 43.6149 26.7628 44.0707 26.2825C44.5382 25.7906 44.7719 25.0879 44.7719 24.1743V19.4308H46.9631Z" fill="#04202F"/>
<path d="M51.2715 20.8006C51.9026 19.8167 53.0128 19.3248 54.6022 19.3248V21.4155C54.4152 21.3803 54.2458 21.3628 54.0939 21.3628C53.2408 21.3628 52.5746 21.6146 52.0954 22.1183C51.6163 22.6102 51.3768 23.3247 51.3768 24.2616V28.8119H49.1855V19.4303H51.2715V20.8006Z" fill="#04202F"/>
<path d="M59.9441 28.9349C59.1845 28.9349 58.4424 28.8353 57.7178 28.6362C56.9933 28.437 56.4149 28.1853 55.9824 27.8807L56.8238 26.2117C57.2446 26.4928 57.747 26.7212 58.3314 26.8969C58.9274 27.0608 59.5117 27.1428 60.0844 27.1428C61.3932 27.1428 62.0477 26.7974 62.0477 26.1064C62.0477 25.7784 61.8782 25.55 61.5393 25.4212C61.2121 25.2923 60.6804 25.1694 59.9441 25.0522C59.1728 24.9351 58.5418 24.8004 58.0509 24.6481C57.5717 24.4958 57.151 24.2323 56.7888 23.8576C56.4381 23.471 56.2629 22.9381 56.2629 22.2588C56.2629 21.3687 56.631 20.66 57.3672 20.1329C58.1151 19.5942 59.1202 19.3248 60.3823 19.3248C61.0251 19.3248 61.6679 19.401 62.3107 19.5532C62.9534 19.6938 63.4793 19.887 63.8883 20.1329L63.0469 21.802C62.2521 21.3335 61.3582 21.0993 60.3648 21.0993C59.7221 21.0993 59.2313 21.1988 58.8923 21.3979C58.5651 21.5854 58.4015 21.8372 58.4015 22.1534C58.4015 22.5048 58.5768 22.7565 58.9274 22.9088C59.2897 23.0493 59.8448 23.184 60.5927 23.3129C61.3406 23.43 61.9542 23.5648 62.4333 23.7169C62.9125 23.8692 63.3215 24.127 63.6604 24.49C64.0111 24.853 64.1863 25.3684 64.1863 26.036C64.1863 26.9145 63.8065 27.6172 63.0469 28.1443C62.2873 28.6714 61.253 28.9349 59.9441 28.9349Z" fill="#04202F"/>
<path d="M71.0423 27.0726C72.059 27.0726 72.9063 26.733 73.5841 26.0536L74.7411 27.4064C74.332 27.9101 73.8062 28.2907 73.1634 28.5483C72.5206 28.806 71.7961 28.9349 70.9896 28.9349C69.9613 28.9349 69.0556 28.7298 68.2725 28.32C67.4896 27.9101 66.8819 27.342 66.4495 26.6157C66.0288 25.8779 65.8184 25.0463 65.8184 24.121C65.8184 23.2074 66.0229 22.3877 66.4319 21.6615C66.8526 20.9236 67.4253 20.3497 68.1499 19.9398C68.8861 19.5298 69.7158 19.3248 70.6391 19.3248C71.5156 19.3248 72.3103 19.5181 73.0231 19.9046C73.7477 20.2794 74.3203 20.8241 74.7411 21.5385C75.1617 22.2412 75.3721 23.0669 75.3721 24.0157L68.2025 25.4212C68.4245 25.9599 68.7809 26.3698 69.2718 26.6509C69.7626 26.9321 70.3528 27.0726 71.0423 27.0726ZM70.6391 21.0817C69.8327 21.0817 69.1782 21.3452 68.6758 21.8723C68.1849 22.3993 67.9394 23.1079 67.9394 23.9981V24.0157L73.2334 22.9967C73.0815 22.4227 72.7718 21.9601 72.3044 21.6088C71.8487 21.2574 71.2935 21.0817 70.6391 21.0817Z" fill="#04202F"/>
<path d="M80.7403 28.6965C79.9775 28.6965 79.2322 28.5988 78.5046 28.4035C77.7769 28.2081 77.196 27.9611 76.7617 27.6623L77.6067 26.025C78.0292 26.3007 78.5339 26.5248 79.1207 26.6972C79.7193 26.858 80.3061 26.9384 80.8812 26.9384C82.1957 26.9384 82.8529 26.5995 82.8529 25.9216C82.8529 25.5998 82.6827 25.3758 82.3424 25.2494C82.0137 25.123 81.4797 25.0023 80.7403 24.8874C79.9657 24.7725 79.332 24.6404 78.8391 24.491C78.3579 24.3417 77.9354 24.0831 77.5715 23.7154C77.2194 23.3363 77.0434 22.8135 77.0434 22.147C77.0434 21.2738 77.4131 20.5786 78.1525 20.0615C78.9036 19.533 79.9129 19.2687 81.1805 19.2687C81.826 19.2687 82.4715 19.3434 83.117 19.4928C83.7625 19.6307 84.2906 19.8203 84.7014 20.0615L83.8564 21.6989C83.0583 21.2393 82.1604 21.0095 81.1629 21.0095C80.5174 21.0095 80.0244 21.1072 79.6841 21.3025C79.3555 21.4863 79.1911 21.7334 79.1911 22.0436C79.1911 22.3883 79.3672 22.6354 79.7193 22.7847C80.0831 22.9226 80.6406 23.0548 81.3917 23.1811C82.1428 23.296 82.759 23.4282 83.2402 23.5776C83.7214 23.7269 84.1322 23.9797 84.4725 24.3359C84.8246 24.6921 85.0006 25.1977 85.0006 25.8526C85.0006 26.7144 84.6192 27.4038 83.8564 27.9209C83.0935 28.4379 82.0548 28.6965 80.7403 28.6965Z" fill="#04202F"/>
<path d="M80.7403 28.6965C79.9775 28.6965 79.2322 28.5988 78.5046 28.4035C77.7769 28.2081 77.196 27.9611 76.7617 27.6623L77.6067 26.025C78.0292 26.3007 78.5339 26.5248 79.1207 26.6972C79.7193 26.858 80.3061 26.9384 80.8812 26.9384C82.1957 26.9384 82.8529 26.5995 82.8529 25.9216C82.8529 25.5998 82.6827 25.3758 82.3424 25.2494C82.0137 25.123 81.4797 25.0023 80.7403 24.8874C79.9657 24.7725 79.332 24.6404 78.8391 24.491C78.3579 24.3417 77.9354 24.0831 77.5715 23.7154C77.2194 23.3363 77.0434 22.8135 77.0434 22.147C77.0434 21.2738 77.4131 20.5786 78.1525 20.0615C78.9036 19.533 79.9129 19.2687 81.1805 19.2687C81.826 19.2687 82.4715 19.3434 83.117 19.4928C83.7625 19.6307 84.2906 19.8203 84.7014 20.0615L83.8564 21.6989C83.0583 21.2393 82.1604 21.0095 81.1629 21.0095C80.5174 21.0095 80.0244 21.1072 79.6841 21.3025C79.3555 21.4863 79.1911 21.7334 79.1911 22.0436C79.1911 22.3883 79.3672 22.6354 79.7193 22.7847C80.0831 22.9226 80.6406 23.0548 81.3917 23.1811C82.1428 23.296 82.759 23.4282 83.2402 23.5776C83.7214 23.7269 84.1322 23.9797 84.4725 24.3359C84.8246 24.6921 85.0006 25.1977 85.0006 25.8526C85.0006 26.7144 84.6192 27.4038 83.8564 27.9209C83.0935 28.4379 82.0548 28.6965 80.7403 28.6965Z" fill="#04202F"/>
</svg>
