<svg width="16" height="16" fill="none" xmlns="http://www.w3.org/2000/svg"><path d="M8.12692 2.10767c0 1.16404-.92384 2.10766-2.06346 2.10766S4 3.27171 4 2.10767C4 .943636 4.92384 0 6.06346 0s2.06346.943636 2.06346 2.10767ZM8.12692 7.3772c0 1.16403-.92384 2.10767-2.06346 2.10767S4 8.54123 4 7.3772c0-1.16403.92384-2.10767 2.06346-2.10767s2.06346.94364 2.06346 2.10767ZM8.12692 12.6467c0 1.1641-.92384 2.1077-2.06346 2.1077S4 13.8108 4 12.6467c0-1.1639.92384-2.1076 2.06346-2.1076s2.06346.9437 2.06346 2.1076ZM13.2812 2.10767c0 1.16404-.9238 2.10766-2.0634 2.10766-1.1397 0-2.0635-.94362-2.0635-2.10766C9.1543.943636 10.0781 0 11.2178 0c1.1396 0 2.0634.943636 2.0634 2.10767ZM13.2812 7.3772c0 1.16403-.9238 2.10767-2.0634 2.10767-1.1397 0-2.0635-.94364-2.0635-2.10767 0-1.16403.9238-2.10767 2.0635-2.10767 1.1396 0 2.0634.94364 2.0634 2.10767Z" fill="#06F"/></svg>