<svg xmlns="http://www.w3.org/2000/svg" width="20" height="20" fill="none" xmlns:v="https://vecta.io/nano"><path d="M10 1.803l4.042.058c2.71.123 3.976 1.409 4.099 4.099l.058 4.041-.058 4.041c-.124 2.687-1.387 3.976-4.099 4.099L10 18.199c-2.67 0-2.987-.01-4.041-.058-2.717-.124-3.976-1.416-4.099-4.1L1.802 10l.058-4.041C1.984 3.27 3.247 1.983 5.959 1.86L10 1.803zM10 0L5.878.06C2.246.227.228 2.242.061 5.877L0 10l.06 4.123c.167 3.632 2.182 5.65 5.817 5.817L10 20l4.123-.06c3.628-.167 5.652-2.182 5.816-5.817L20 10l-.06-4.122c-.163-3.628-2.181-5.65-5.816-5.817L10 0h0zm0 4.865c-2.836 0-5.135 2.299-5.135 5.135S7.164 15.136 10 15.136s5.135-2.299 5.135-5.136S12.836 4.865 10 4.865zm0 8.468c-1.841 0-3.333-1.492-3.333-3.333S8.159 6.667 10 6.667 13.333 8.159 13.333 10 11.841 13.333 10 13.333zm5.338-9.871a1.2 1.2 0 1 0 0 2.4 1.2 1.2 0 1 0 0-2.4z" fill="#d3b282"/></svg>