<svg xmlns="http://www.w3.org/2000/svg" width="20" height="20" fill="none" xmlns:v="https://vecta.io/nano"><g clip-path="url(#A)"><path d="M18.52 1.002c-.259.012-.502.087-.718.171h-.003l-2.846 1.19-5.68 2.392L1.19 8.161l.048-.018s-.277.09-.565.289a1.56 1.56 0 0 0-.451.436 1.28 1.28 0 0 0-.213.854c.069.556.43.89.688 1.073a2.28 2.28 0 0 0 .511.274h.006l3.757 1.265 1.38 4.49c.138.442.274.718.442.929.081.108.177.198.292.27.045.027.093.048.141.066.015.009.03.012.048.015l-.039-.009c.012.003.021.012.03.015.03.009.051.012.09.018.595.18 1.073-.189 1.073-.189l.027-.021 2.218-2.02 3.718 2.852.084.036c.775.34 1.56.15 1.975-.183s.58-.766.58-.766l.027-.069 2.873-14.718c.081-.364.102-.703.012-1.034a1.39 1.39 0 0 0-.601-.805 1.44 1.44 0 0 0-.82-.207zm-.078 1.578c-.003.048.006.042-.015.135v.009L15.58 17.288c-.012.021-.033.066-.09.111s-.108.078-.358-.021l-4.547-3.486-2.747 2.504.577-3.685 7.43-6.925c.307-.286.204-.346.204-.346.021-.349-.463-.102-.463-.102l-9.368 5.804-.003-.015-4.49-1.512v-.003l.036-.024.024-.009L9.87 6.174l5.677-2.392 2.816-1.178c.063-.024.033-.024.078-.024z" fill="#d3b282"/></g><defs><clipPath id="A"><path fill="#fff" d="M0 0h20v20H0z"/></clipPath></defs></svg>