<svg xmlns="http://www.w3.org/2000/svg" width="20" height="20" fill="none" xmlns:v="https://vecta.io/nano"><path d="M.047 20l1.406-5.136A9.89 9.89 0 0 1 .131 9.909C.133 4.446 4.579 0 10.042 0c2.651.001 5.139 1.033 7.011 2.907s2.901 4.363 2.9 7.012c-.003 5.464-4.448 9.91-9.911 9.91-1.658-.001-3.293-.417-4.74-1.207L.047 20zm5.497-3.172c1.397.829 2.73 1.326 4.493 1.327 4.54 0 8.238-3.695 8.241-8.238.002-4.552-3.679-8.242-8.234-8.243-4.543 0-8.239 3.695-8.241 8.237-.001 1.854.543 3.242 1.455 4.695l-.832 3.04 3.118-.817zm9.489-4.553c-.062-.103-.227-.165-.475-.289s-1.465-.723-1.693-.806-.392-.124-.557.124-.64.806-.784.971-.289.186-.537.062-1.046-.385-1.992-1.229c-.736-.657-1.233-1.468-1.378-1.716s-.015-.382.108-.505c.112-.111.248-.289.372-.434s.167-.247.25-.412.042-.31-.021-.434-.558-1.343-.763-1.838c-.202-.483-.406-.418-.558-.425l-.475-.008c-.165 0-.433.062-.66.31s-.867.847-.867 2.066.888 2.397 1.011 2.562 1.746 2.667 4.23 3.739a14.34 14.34 0 0 0 1.412.522c.593.188 1.133.162 1.56.098.476-.071 1.465-.599 1.672-1.178s.207-1.075.144-1.178z" fill="#d3b282"/></svg>