<svg xmlns="http://www.w3.org/2000/svg" width="28" height="28" fill="none"><rect width="28" height="28" fill="#AEBED6" rx="14"/><mask id="b" width="28" height="28" x="0" y="0" maskUnits="userSpaceOnUse" style="mask-type:alpha"><rect width="28" height="28" fill="url(#a)" rx="14"/></mask><g mask="url(#b)"><rect width="28" height="28" fill="url(#c)" rx="14"/><circle cx="20.5" cy="6.5" r="11.5" fill="#0054D2"/><g opacity=".4"><circle cx="10.5" cy="8.5" r="15" stroke="url(#d)"/><circle cx="19" cy="21" r="3" fill="#fff"/></g><g filter="url(#e)"><path fill="#fff" d="M10 19V7.8h4.6c1 0 1.8.2 2.6.5.7.3 1.2.8 1.6 1.4.4.6.6 1.3.6 2a3.7 3.7 0 0 1-2.2 3.5c-.8.4-1.6.6-2.6.6h-3.4l.9-1V19H10Zm2-4-.8-1h3.3c1 0 1.6-.2 2-.6.5-.4.8-1 .8-1.6a2 2 0 0 0-.7-1.7c-.5-.3-1.2-.5-2-.5h-3.4l.9-1V15Z"/></g></g><defs><linearGradient id="a" x1="-1.7" x2="34.1" y1="30.7" y2="10.9" gradientUnits="userSpaceOnUse"><stop stop-color="#F2003D"/><stop offset="1" stop-color="#06F"/></linearGradient><linearGradient id="c" x1="21.5" x2="5.5" y1="4.5" y2="23.5" gradientUnits="userSpaceOnUse"><stop stop-color="#06F"/><stop offset="1" stop-color="#005BE5"/></linearGradient><linearGradient id="d" x1="18.8" x2="4.4" y1="20.7" y2="21.8" gradientUnits="userSpaceOnUse"><stop stop-color="#fff"/><stop offset="1" stop-color="#fff" stop-opacity="0"/></linearGradient><filter id="e" width="12.4" height="14.2" x="7" y="7.8" color-interpolation-filters="sRGB" filterUnits="userSpaceOnUse"><feFlood flood-opacity="0" result="BackgroundImageFix"/><feColorMatrix in="SourceAlpha" result="hardAlpha" values="0 0 0 0 0 0 0 0 0 0 0 0 0 0 0 0 0 0 127 0"/><feOffset dx="-2" dy="2"/><feGaussianBlur stdDeviation=".5"/><feColorMatrix values="0 0 0 0 0 0 0 0 0 0.164667 0 0 0 0 0.316667 0 0 0 0.2 0"/><feBlend in2="BackgroundImageFix" result="effect1_dropShadow_7923_1550"/><feBlend in="SourceGraphic" in2="effect1_dropShadow_7923_1550" result="shape"/></filter></defs></svg>