<svg xmlns="http://www.w3.org/2000/svg" width="28" height="28" fill="none"><g clip-path="url(#a)"><mask id="b" width="28" height="28" x="0" y="0" maskUnits="userSpaceOnUse" style="mask-type:alpha"><path fill="#152785" d="M0 14a14 14 0 1 1 28 0 14 14 0 0 1-28 0Z"/></mask><g mask="url(#b)"><rect width="28" height="28" fill="#142269" rx="13"/><path fill="#152785" stroke="url(#c)" stroke-width="3" d="M31.5-20.5a19 19 0 1 1 0 38 19 19 0 1 1 0-38Z"/><circle r="24" stroke="url(#d)" opacity=".8" transform="scale(-1 1) rotate(75 -14 -17.7)"/></g><g filter="url(#e)"><circle r="2.8" fill="#fff" fill-opacity=".3" transform="matrix(.02933 -.99957 -.99992 .01284 6.2 11.9)"/></g><circle r=".7" fill="#98C2FF" transform="matrix(.02933 -.99957 -.99992 .01284 6 11.8)"/><g filter="url(#f)"><path fill="#fff" d="M12.8 20v-9.4H9V8.8h9.5v1.8h-3.7V20h-2.1Z"/></g></g><defs><linearGradient id="c" x1="56" x2="27" y1="21.5" y2="-30.8" gradientUnits="userSpaceOnUse"><stop stop-color="#F2003D"/><stop offset="1" stop-color="#E80061"/></linearGradient><linearGradient id="d" x1="33.6" x2="7.7" y1="48.5" y2="24.3" gradientUnits="userSpaceOnUse"><stop stop-color="#9FC6FF"/><stop offset=".9" stop-color="#E0EDFF" stop-opacity="0"/></linearGradient><filter id="e" width="17.5" height="17.5" x="-2.6" y="3.1" color-interpolation-filters="sRGB" filterUnits="userSpaceOnUse"><feFlood flood-opacity="0" result="BackgroundImageFix"/><feBlend in="SourceGraphic" in2="BackgroundImageFix" result="shape"/><feGaussianBlur result="effect1_foregroundBlur_7923_1563" stdDeviation="3"/></filter><filter id="f" width="12.5" height="14.2" x="6.1" y="8.8" color-interpolation-filters="sRGB" filterUnits="userSpaceOnUse"><feFlood flood-opacity="0" result="BackgroundImageFix"/><feColorMatrix in="SourceAlpha" result="hardAlpha" values="0 0 0 0 0 0 0 0 0 0 0 0 0 0 0 0 0 0 127 0"/><feOffset dx="-2" dy="2"/><feGaussianBlur stdDeviation=".5"/><feColorMatrix values="0 0 0 0 0 0 0 0 0 0.164667 0 0 0 0 0.316667 0 0 0 0.29 0"/><feBlend in2="BackgroundImageFix" result="effect1_dropShadow_7923_1563"/><feBlend in="SourceGraphic" in2="effect1_dropShadow_7923_1563" result="shape"/></filter><clipPath id="a"><path fill="#fff" d="M0 0h28v28H0z"/></clipPath></defs></svg>