<svg xmlns="http://www.w3.org/2000/svg" width="28" height="28" fill="none"><rect width="28" height="28" fill="#E80061" rx="13"/><rect width="28" height="28" fill="#E80061" rx="13"/><mask id="b" width="28" height="28" x="0" y="0" maskUnits="userSpaceOnUse" style="mask-type:alpha"><rect width="28" height="28" fill="url(#a)" rx="13"/></mask><g stroke-linejoin="round" stroke-width="2" mask="url(#b)"><path fill="#FFC767" stroke="#FFC767" d="m32.5 18.74-8-1.34a3 3 0 0 0-3.5 2.96v19.95a3 3 0 0 0 2.5 2.95l8 1.34a3 3 0 0 0 3.5-2.96V21.69a3 3 0 0 0-2.5-2.95Z"/><path fill="#700036" stroke="#700036" d="m26.5 23.74-8-1.34a3 3 0 0 0-3.5 2.96v19.95a3 3 0 0 0 2.5 2.95l8 1.34a3 3 0 0 0 3.5-2.96V26.69a3 3 0 0 0-2.5-2.95Z"/></g><g filter="url(#c)"><path fill="#fff" d="M17.53 19.22v-7.2l-2.81 5.25h-1.37l-2.88-5.25v7.2H8.62V8.45h1.85l3.56 6.7 3.5-6.7h1.85v10.77h-1.85Z"/></g><defs><linearGradient id="a" x1="-1.74" x2="34.05" y1="30.72" y2="10.94" gradientUnits="userSpaceOnUse"><stop stop-color="#F2003D"/><stop offset="1" stop-color="#E80061"/></linearGradient><filter id="c" width="13.77" height="13.77" x="5.62" y="8.45" color-interpolation-filters="sRGB" filterUnits="userSpaceOnUse"><feFlood flood-opacity="0" result="BackgroundImageFix"/><feColorMatrix in="SourceAlpha" result="hardAlpha" values="0 0 0 0 0 0 0 0 0 0 0 0 0 0 0 0 0 0 127 0"/><feOffset dx="-2" dy="2"/><feGaussianBlur stdDeviation=".5"/><feColorMatrix values="0 0 0 0 0 0 0 0 0 0.164667 0 0 0 0 0.316667 0 0 0 0.29 0"/><feBlend in2="BackgroundImageFix" result="effect1_dropShadow_6986_12229"/><feBlend in="SourceGraphic" in2="effect1_dropShadow_6986_12229" result="shape"/></filter></defs></svg>