<svg xmlns="http://www.w3.org/2000/svg" width="28" height="28" fill="none"><mask id="a" width="28" height="28" x="0" y="0" maskUnits="userSpaceOnUse" style="mask-type:alpha"><rect width="28" height="28" fill="#152785" rx="14"/></mask><g mask="url(#a)"><rect width="28" height="28" fill="#142269" rx="14"/><path fill="#EE014A" d="M-7 15V2L11-.5 13.9 4l5.9 6 1.6 6-1.6 6.5-8.2 5.7h-.2.2l1.8-1.5c1-1-.2-2.3-1-4.8-.8-2.6 3.9-3 1.8-5.8-2.1-3-3-.7-8.2.3-5.1 1-4.2-2.2-8.2-3.5-3.2-1-4.5 1-4.8 2Z"/><path fill="#06F" d="M14.2 11.4C10.3 9.2 9.3 3 9-1l18 3v6.5l.3 9.7-6 4c-1.8 2-6.1 6-9.9 6 3.3 0 4-3.1 4-5.9 0-2.7 3.3-3.7 4-6 .9-2.5-1.4-2.6-5.2-4.9Z"/><path fill="#0251C8" d="M22.2 12.7c-2.7-3.4-2-7.2 1-10.6h7.7c0 3.6.2 11.6 0 15.6-.4 5-4.2 7-7.4 6.2-3.2-.8-4.4.7-6 3-1.2 1.7-4.7 1.6-6.2 1.4.8 0 2.8-.5 4.6-2 2.3-1.7.8-4.1 5-5.7 4.2-1.6 4-4.5 1.3-7.9Z"/></g><g filter="url(#b)"><path fill="#fff" d="M10 19V7.8h4.6c1 0 1.8.2 2.6.5.7.3 1.2.8 1.6 1.4.4.6.6 1.3.6 2a3.7 3.7 0 0 1-2.2 3.5c-.8.4-1.6.6-2.6.6h-3.4l.9-1V19H10Zm2-4-.8-1h3.3c1 0 1.6-.2 2-.6.5-.4.8-1 .8-1.6a2 2 0 0 0-.7-1.7c-.5-.3-1.2-.5-2-.5h-3.4l.9-1V15Z"/></g><defs><filter id="b" width="12.4" height="14.2" x="7" y="7.8" color-interpolation-filters="sRGB" filterUnits="userSpaceOnUse"><feFlood flood-opacity="0" result="BackgroundImageFix"/><feColorMatrix in="SourceAlpha" result="hardAlpha" values="0 0 0 0 0 0 0 0 0 0 0 0 0 0 0 0 0 0 127 0"/><feOffset dx="-2" dy="2"/><feGaussianBlur stdDeviation=".5"/><feColorMatrix values="0 0 0 0 0 0 0 0 0 0.164667 0 0 0 0 0.316667 0 0 0 0.2 0"/><feBlend in2="BackgroundImageFix" result="effect1_dropShadow_7923_2246"/><feBlend in="SourceGraphic" in2="effect1_dropShadow_7923_2246" result="shape"/></filter></defs></svg>