<svg xmlns="http://www.w3.org/2000/svg" width="28" height="28" fill="none"><rect width="28" height="28" fill="#AEBED6" rx="14"/><mask id="b" width="28" height="28" x="0" y="0" maskUnits="userSpaceOnUse" style="mask-type:alpha"><path fill="url(#a)" d="M0 14a14 14 0 1 1 28 0 14 14 0 0 1-28 0Z"/></mask><g mask="url(#b)"><rect width="28" height="28" fill="#FF4F13" rx="14"/><circle cx="10.5" cy="7.5" r="14.5" fill="#FFA113"/><circle cx="5" cy="22" r="7" fill="#F7C410"/></g><g filter="url(#c)"><path fill="#fff" d="M10 19V7.8h4.6c1 0 1.8.2 2.6.5.7.3 1.2.8 1.6 1.4.4.6.6 1.3.6 2a3.7 3.7 0 0 1-2.2 3.5c-.8.4-1.6.6-2.6.6h-3.4l.9-1V19H10Zm2-4-.8-1h3.3c1 0 1.6-.2 2-.6.5-.4.8-1 .8-1.6a2 2 0 0 0-.7-1.7c-.5-.3-1.2-.5-2-.5h-3.4l.9-1V15Z"/></g><defs><linearGradient id="a" x1="-1.7" x2="34.1" y1="30.7" y2="10.9" gradientUnits="userSpaceOnUse"><stop stop-color="#F2003D"/><stop offset="1" stop-color="#06F"/></linearGradient><filter id="c" width="12.4" height="14.2" x="7" y="7.8" color-interpolation-filters="sRGB" filterUnits="userSpaceOnUse"><feFlood flood-opacity="0" result="BackgroundImageFix"/><feColorMatrix in="SourceAlpha" result="hardAlpha" values="0 0 0 0 0 0 0 0 0 0 0 0 0 0 0 0 0 0 127 0"/><feOffset dx="-2" dy="2"/><feGaussianBlur stdDeviation=".5"/><feColorMatrix values="0 0 0 0 0 0 0 0 0 0.164667 0 0 0 0 0.316667 0 0 0 0.2 0"/><feBlend in2="BackgroundImageFix" result="effect1_dropShadow_7923_2209"/><feBlend in="SourceGraphic" in2="effect1_dropShadow_7923_2209" result="shape"/></filter></defs></svg>