<svg xmlns="http://www.w3.org/2000/svg" width="28" height="28" fill="none"><mask id="a" width="28" height="28" x="0" y="0" maskUnits="userSpaceOnUse" style="mask-type:alpha"><path fill="#009FDA" d="M0 14a14 14 0 1 1 28 0 14 14 0 0 1-28 0Z"/></mask><g mask="url(#a)"><rect width="28" height="28" fill="#AEBED6" rx="14"/><rect width="28" height="28" fill="#E80061" rx="14"/><circle cx="12" cy="10" r="13.5" fill="#FF4593" stroke="url(#b)"/><circle cx="9" cy="7" r="11" fill="#BD004F"/><g filter="url(#c)"><circle r="2.8" fill="#fff" fill-opacity=".3" transform="matrix(-.98588 .16746 .20887 .97794 14.3 23.3)"/></g><circle r=".7" fill="#FFB3D3" transform="matrix(-.98588 .16746 .20887 .97794 14.3 23.5)"/><g filter="url(#d)"><path fill="#fff" d="M17.4 7.8h2V19h-2V7.8ZM11.6 19H9.5V7.8h2V19Zm6-4.8h-6.2v-1.8h6.1v1.8Z"/></g></g><defs><filter id="c" width="15.6" height="15.5" x="6.5" y="15.6" color-interpolation-filters="sRGB" filterUnits="userSpaceOnUse"><feFlood flood-opacity="0" result="BackgroundImageFix"/><feBlend in="SourceGraphic" in2="BackgroundImageFix" result="shape"/><feGaussianBlur result="effect1_foregroundBlur_7923_400" stdDeviation="2.5"/></filter><filter id="d" width="13" height="14.2" x="6.5" y="7.8" color-interpolation-filters="sRGB" filterUnits="userSpaceOnUse"><feFlood flood-opacity="0" result="BackgroundImageFix"/><feColorMatrix in="SourceAlpha" result="hardAlpha" values="0 0 0 0 0 0 0 0 0 0 0 0 0 0 0 0 0 0 127 0"/><feOffset dx="-2" dy="2"/><feGaussianBlur stdDeviation=".5"/><feColorMatrix values="0 0 0 0 0 0 0 0 0 0.164667 0 0 0 0 0.316667 0 0 0 0.2 0"/><feBlend in2="BackgroundImageFix" result="effect1_dropShadow_7923_400"/><feBlend in="SourceGraphic" in2="effect1_dropShadow_7923_400" result="shape"/></filter><linearGradient id="b" x1="19.5" x2="6.5" y1="21" y2="22" gradientUnits="userSpaceOnUse"><stop stop-color="#fff" stop-opacity=".3"/><stop offset="1" stop-color="#fff" stop-opacity="0"/></linearGradient></defs></svg>