<svg width="68" height="68" fill="none" xmlns="http://www.w3.org/2000/svg"><mask id="a" style="mask-type:alpha" maskUnits="userSpaceOnUse" x="0" y="0" width="68" height="68"><path fill="#787878" d="M0 0h68v68H0z"/></mask><g mask="url(#a)" stroke-width="2" stroke-linecap="round"><path d="M13.74 44.6c-5.8-11.37-1.45-25.15 9.74-30.78a22.81 22.81 0 0 1 23.94 2.28m6.84 8.14c5.81 11.38 1.45 25.16-9.74 30.78a22.77 22.77 0 0 1-22.8-1.48M53.28 21.88l-1.53 4.86M58.16 23.5l-4.86-1.66M14.7 47l-4.85-1.66M16.26 42.1l-1.53 4.86" stroke="#142269"/><circle cx="22.18" cy="39.09" r="2.18" stroke="#E80061"/><circle cx="37.45" cy="36.91" r="2.18" stroke="#E80061"/><circle cx="30.91" cy="30.36" r="2.18" stroke="#E80061"/><circle cx="46.18" cy="28.18" r="2.18" stroke="#E80061"/><path d="m24.36 36.9 4.91-4.9M39.64 34.73l4.9-4.91M32.54 32l3.28 3.27" stroke="#E80061"/></g></svg>