<svg width="15" height="14" fill="none" xmlns="http://www.w3.org/2000/svg"><path fill-rule="evenodd" clip-rule="evenodd" d="M7.5 1.516c-3.337 0-5.872 2.215-5.872 4.763 0 1.253.599 2.408 1.61 3.274a.728.728 0 0 1 .25.684c-.1.554-.345 1.2-.711 1.927 1.11-.344 1.874-.727 2.346-1.126a.862.862 0 0 1 .752-.181 7.146 7.146 0 0 0 1.624.185H7.5c3.337 0 5.872-2.215 5.872-4.763S10.837 1.516 7.5 1.516ZM5.89 12.413c-.937.663-2.293 1.168-3.98 1.558a1.127 1.127 0 0 1-.602-.026 1.052 1.052 0 0 1-.487-.329.924.924 0 0 1-.081-1.077c.548-.922.886-1.645 1.051-2.186C.684 9.266 0 7.846 0 6.28 0 2.729 3.452 0 7.5 0S15 2.728 15 6.279c0 3.55-3.452 6.279-7.5 6.279V11.8v.758a8.9 8.9 0 0 1-1.61-.145Z" fill="#BAD1E6"/></svg>