<svg width="20" height="20" viewBox="0 0 20 20" fill="none" xmlns="http://www.w3.org/2000/svg">
<path d="M0 6.08672C0.0662735 5.6121 0.116768 5.13478 0.201005 4.66362C0.678514 1.9949 2.5417 0.179166 5.20575 0.0861142C8.41334 -0.0256463 11.6306 -0.0315543 14.8377 0.0856218C17.7373 0.191474 19.8371 2.36859 19.9277 5.30981C20.0241 8.43295 20.0241 11.5637 19.9277 14.6869C19.8371 17.6281 17.738 19.8049 14.838 19.911C11.6309 20.0285 8.41285 20.0314 5.20599 19.9093C2.30598 19.7988 0.301265 17.6168 0.1073 14.6711C0.0905495 14.4163 0.0366568 14.1637 0 13.9102C0 11.3023 0 8.69438 0 6.08672ZM10.0027 18.1679C11.4704 18.1679 12.9396 18.2125 14.4054 18.1576C16.7036 18.0712 18.1172 16.6803 18.1708 14.3521C18.2374 11.451 18.2374 8.54594 18.1708 5.6446C18.1172 3.31683 16.7026 1.89348 14.4054 1.844C11.4896 1.78148 8.57065 1.78197 5.65485 1.844C3.37509 1.8925 1.95737 3.28704 1.89547 5.58921C1.81682 8.52698 1.81682 11.4699 1.89547 14.4077C1.95737 16.7096 3.37509 18.0719 5.6551 18.1576C7.10243 18.2122 8.55341 18.1679 10.0027 18.1679Z" fill="white"/>
<path d="M9.99885 4.83203C7.18429 4.83203 4.90234 7.14577 4.90234 9.99984C4.90234 12.8542 7.18429 15.1679 9.99885 15.1679C12.8137 15.1679 15.0954 12.8542 15.0954 9.99984C15.0954 7.14577 12.8137 4.83203 9.99885 4.83203ZM9.99885 13.3886C8.15314 13.3886 6.65701 11.8715 6.65701 9.99984C6.65701 8.12823 8.15314 6.61109 9.99885 6.61109C11.8446 6.61109 13.3407 8.12823 13.3407 9.99984C13.3407 11.8715 11.8446 13.3886 9.99885 13.3886Z" fill="white"/>
<path d="M16.6066 4.5968C16.6066 5.27573 16.0638 5.82616 15.3942 5.82616C14.7247 5.82616 14.1816 5.27573 14.1816 4.5968C14.1816 3.91762 14.7247 3.36719 15.3942 3.36719C16.0638 3.36719 16.6066 3.91762 16.6066 4.5968Z" fill="white"/>
</svg>
