<svg width="16" height="13" viewBox="0 0 16 13" fill="none" xmlns="http://www.w3.org/2000/svg">
<path d="M14.9732 0.0507485L0.339879 5.55035C-0.134095 5.7285 -0.105381 6.38446 0.382518 6.52339L4.10099 7.58238L5.48873 11.8292C5.63369 12.2728 6.21657 12.4073 6.55399 12.075L8.47653 10.1818L12.2487 12.8522C12.7104 13.179 13.3678 12.9362 13.485 12.3956L15.9834 0.875834C16.1057 0.31156 15.5301 -0.158568 14.9732 0.0507485ZM13.1385 2.60728L6.34146 8.40413C6.27371 8.46192 6.23059 8.5419 6.22051 8.62859L5.95882 10.8722C5.95027 10.9453 5.8441 10.955 5.82144 10.8847L4.74476 7.53876C4.69544 7.38557 4.75974 7.2196 4.90105 7.13508L12.9277 2.33396C13.1123 2.22347 13.3013 2.46854 13.1385 2.60728Z" fill="white"/>
</svg>
