<svg width="15" height="13" viewBox="0 0 15 13" fill="none" xmlns="http://www.w3.org/2000/svg">
<path d="M14.0083 1.08374L0.566274 5.8977C-0.169969 6.09781 -0.147659 6.78255 0.398948 6.95108L3.76783 7.94124L5.06186 11.6702C5.21799 12.081 5.35187 12.2285 5.61962 12.239C5.89848 12.239 6.01002 12.1442 6.30006 11.9019C6.64591 11.5964 7.15903 11.1224 7.98451 10.364L11.4872 12.8078C12.1343 13.1449 12.6028 12.9659 12.7589 12.239L14.9454 1.97911C15.1797 1.08374 14.6219 0.820395 14.0083 1.08374ZM4.29213 7.70947L11.9446 3.16943C12.3239 2.92715 12.4354 3.20103 12.2681 3.3801L5.92079 8.78392L5.59731 11.4806L4.29213 7.70947Z" fill="#BAD1E6"/>
</svg>
