<svg width="19" height="19" viewBox="0 0 19 19" fill="none" xmlns="http://www.w3.org/2000/svg">
<path d="M0 19L1.33066 14.2791C0.474966 12.827 0.0244395 11.1748 0.0244395 9.47752C0.0244395 4.2516 4.28065 0 9.51225 0C14.7438 0 19 4.2516 19 9.47752C19 14.7034 14.7438 18.955 9.51225 18.955C7.88212 18.955 6.2859 18.5382 4.87382 17.7468L0 19ZM5.12299 16.0225L5.41341 16.1997C6.64457 16.9505 8.06196 17.3473 9.51225 17.3473C13.8564 17.3473 17.3906 13.8169 17.3906 9.47752C17.3906 5.1381 13.8564 1.6077 9.51225 1.6077C5.16811 1.6077 1.63389 5.1381 1.63389 9.47752C1.63389 10.9895 2.06409 12.4578 2.87787 13.7237L3.07345 14.0279L2.30717 16.7466L5.12299 16.0225Z" fill="white"/>
<path d="M6.84848 5.06686L6.23284 5.03334C6.03947 5.0228 5.84979 5.08735 5.70363 5.21418C5.40516 5.47308 4.92793 5.97361 4.78135 6.62586C4.56277 7.5984 4.90057 8.78929 5.77486 9.98018C6.64915 11.1711 8.27845 13.0765 11.1595 13.8903C12.0879 14.1525 12.8183 13.9757 13.3818 13.6157C13.8281 13.3305 14.1357 12.8728 14.2466 12.3554L14.3449 11.8967C14.3761 11.751 14.302 11.6031 14.1665 11.5407L12.0858 10.5827C11.9507 10.5205 11.7906 10.5598 11.6997 10.6774L10.8829 11.7351C10.8212 11.815 10.7156 11.8467 10.6202 11.8133C10.0608 11.6169 8.18706 10.833 7.15893 8.85467C7.11434 8.76887 7.12543 8.66472 7.18867 8.59154L7.96931 7.68944C8.04907 7.59733 8.06922 7.46782 8.02129 7.35588L7.12441 5.25985C7.07667 5.14826 6.96967 5.07347 6.84848 5.06686Z" fill="white"/>
</svg>
