<svg width="19" height="19" viewBox="0 0 19 19" fill="none" xmlns="http://www.w3.org/2000/svg">
<path d="M2.15874 14.6812L0.863281 18.1358L4.74965 16.8403L6.0451 17.2722L8.20419 18.1358H10.3633L13.386 17.2722L15.9769 15.1131L17.7042 12.5222L18.136 9.49943L17.7042 6.90852L16.8406 4.74943L13.8178 2.15852L11.2269 1.29489L9.06783 0.863068L5.18146 1.7267L2.59055 4.31761L0.863281 7.77216V11.2267L2.15874 14.6812Z" fill="#55B642"/>
<path d="M0 19L1.33066 14.2791C0.474966 12.827 0.0244395 11.1748 0.0244395 9.47752C0.0244395 4.2516 4.28065 0 9.51225 0C14.7438 0 19 4.2516 19 9.47752C19 14.7034 14.7438 18.955 9.51225 18.955C7.88212 18.955 6.2859 18.5382 4.87382 17.7468L0 19ZM5.12299 16.0225L5.41341 16.1997C6.64457 16.9505 8.06196 17.3473 9.51225 17.3473C13.8564 17.3473 17.3906 13.8169 17.3906 9.47752C17.3906 5.1381 13.8564 1.6077 9.51225 1.6077C5.16811 1.6077 1.63389 5.1381 1.63389 9.47752C1.63389 10.9895 2.06409 12.4578 2.87787 13.7237L3.07345 14.0279L2.30717 16.7466L5.12299 16.0225Z" fill="#55B642"/>
<path d="M6.84653 5.06647L6.23089 5.03294C6.03751 5.0224 5.84784 5.08695 5.70167 5.21378C5.40321 5.47268 4.92598 5.97321 4.7794 6.62546C4.56081 7.598 4.89862 8.78889 5.77291 9.97978C6.6472 11.1707 8.27649 13.0761 11.1576 13.8899C12.086 14.1521 12.8163 13.9753 13.3798 13.6153C13.8261 13.3301 14.1337 12.8724 14.2446 12.355L14.3429 11.8963C14.3742 11.7506 14.3001 11.6027 14.1645 11.5403L12.0839 10.5823C11.9488 10.5201 11.7886 10.5594 11.6978 10.677L10.8809 11.7347C10.8192 11.8146 10.7136 11.8463 10.6182 11.8129C10.0589 11.6165 8.18511 10.8326 7.15697 8.85427C7.11239 8.76847 7.12347 8.66433 7.18672 8.59115L7.96736 7.68905C8.04712 7.59693 8.06726 7.46742 8.01934 7.35548L7.12246 5.25945C7.07471 5.14786 6.96771 5.07308 6.84653 5.06647Z" fill="white"/>
</svg>
