<svg width="14" height="14" viewBox="0 0 14 14" fill="none" xmlns="http://www.w3.org/2000/svg">
<path d="M1.59126 10.8048L0.636719 13.3471L3.50035 12.3937L4.4549 12.7115L6.04581 13.3471H7.63671L9.86399 12.7115L11.7731 11.1225L13.0458 9.2158L13.364 6.99125L13.0458 5.0845L12.4094 3.49555L10.1822 1.5888L8.27308 0.953213L6.68217 0.635422L3.81853 1.27101L1.90945 3.17775L0.636719 5.72009V8.26242L1.59126 10.8048Z" fill="#BAD1E6"/>
<path d="M0 13.9828L0.980483 10.5085C0.349975 9.43986 0.0180081 8.22395 0.0180081 6.97487C0.0180081 3.12892 3.15417 0 7.00903 0C10.8639 0 14 3.12892 14 6.97487C14 10.8208 10.8639 13.9497 7.00903 13.9497C5.80788 13.9497 4.63172 13.643 3.59124 13.0605L0 13.9828ZM3.77483 11.7916L3.98883 11.922C4.896 12.4745 5.94039 12.7666 7.00903 12.7666C10.21 12.7666 12.8141 10.1684 12.8141 6.97487C12.8141 3.78132 10.21 1.18317 7.00903 1.18317C3.80808 1.18317 1.20392 3.78132 1.20392 6.97487C1.20392 8.08762 1.52091 9.16821 2.12054 10.0998L2.26465 10.3237L1.70002 12.3245L3.77483 11.7916Z" fill="#BAD1E6"/>
<path d="M5.04533 3.72852L4.59169 3.70385C4.44921 3.6961 4.30945 3.7436 4.20175 3.83694C3.98183 4.02747 3.63018 4.39583 3.52218 4.87585C3.36111 5.59158 3.61002 6.468 4.25424 7.34443C4.89845 8.22085 6.09899 9.62313 8.2219 10.222C8.90599 10.415 9.44413 10.2849 9.85933 10.0199C10.1882 9.81007 10.4149 9.47321 10.4966 9.09241L10.569 8.7549C10.592 8.64762 10.5374 8.53877 10.4375 8.49285L8.90441 7.78781C8.80488 7.74206 8.68686 7.77098 8.61992 7.85753L8.01805 8.63597C7.97259 8.69477 7.89476 8.71809 7.82448 8.69346C7.41232 8.54894 6.03165 7.97203 5.27408 6.51612C5.24122 6.45297 5.24939 6.37633 5.29599 6.32247L5.8712 5.65858C5.92997 5.59079 5.94482 5.49548 5.9095 5.4131L5.24864 3.87055C5.21346 3.78843 5.13462 3.73339 5.04533 3.72852Z" fill="white"/>
</svg>
