<svg width="24" height="18" viewBox="0 0 24 18" fill="none" xmlns="http://www.w3.org/2000/svg">
<path d="M0.537084 15.2229C1.02675 17.0639 2.52471 17.4007 2.62464 17.4653C5.08994 18.1772 18.9084 18.1793 21.4107 17.4653C23.1245 16.9399 23.4393 15.3288 23.4982 15.2229C24.1508 11.543 24.1937 6.74558 23.4682 2.56995L23.4982 2.77757C23.0085 0.936569 21.5106 0.599722 21.4107 0.535107C18.9783 -0.165067 5.12391 -0.191548 2.62464 0.535107C0.910825 1.06156 0.596043 2.67164 0.537084 2.77757C-0.161433 6.64495 -0.196409 11.0822 0.537084 15.2229ZM9.61681 12.8681V5.14291L15.8785 9.01134L9.61681 12.8681Z" fill="#E53935"/>
</svg>
