<svg xmlns="http://www.w3.org/2000/svg" width="28" height="28" fill="none"><mask id="a" width="28" height="28" x="0" y="0" maskUnits="userSpaceOnUse" style="mask-type:alpha"><path fill="#009FDA" d="M0 14a14 14 0 1 1 28 0 14 14 0 0 1-28 0Z"/></mask><g mask="url(#a)"><rect width="28" height="28" fill="#0251C8" rx="4"/><path fill="#06F" d="M11.7 11.9C-9.4 5 1.5.7 2-2.4l10-5.3C18.5-2.2 35.8 2.7 35.8 3.1c0 .5-7.6 22.5-9.3 30.4a28.4 28.4 0 0 1-17.5 1c-7-2 .2-8.5 2-12.3 1.7-.8 5-9 .7-10.3Z"/><path fill="#142269" d="M28.3 21.9C24.8 2 5 5.9 1.3 4.7.7 3.5-1.5 1-3.2 7-6 16.6 8 5.3 11 16.9c.7 2.7-12 4.5-12 6.3 0 1.9 6.6 6.4 9.9 7.9 0 0-3.2 1.2-3.8 0v5c2.3.6 7 1.6 7 .8 0-1 18.5-1.7 16.2-15Z"/><path fill="#649AEB" d="M6.2-3C10-1.7 18 3.2 20.5 13.8c3 13.2-3.5 14.5-3.5 15.6 0 .6-1.1.3-3.6-.2-3 6.1-13.5 4.5-15.3 5.5-1.9 1 7-7 11.9-6.1l3.4.6.3-.6c2.7-6.9-5-6.6-5.9-11.4-.8-4.7 4-5 3-7.6C9.7 6.9-1.1 9-1.1 1.1c0-6.4 6.7-5.2 7.3-4Z"/><g filter="url(#b)"><path fill="#fff" d="m8.5 19 5-11.2h2L20.7 19h-2.1L14 8.9h.9L10.6 19H8.5Zm2.3-2.6.6-1.6h6l.6 1.6h-7.2Z"/></g></g><defs><filter id="b" width="15.1" height="14.2" x="5.5" y="7.8" color-interpolation-filters="sRGB" filterUnits="userSpaceOnUse"><feFlood flood-opacity="0" result="BackgroundImageFix"/><feColorMatrix in="SourceAlpha" result="hardAlpha" values="0 0 0 0 0 0 0 0 0 0 0 0 0 0 0 0 0 0 127 0"/><feOffset dx="-2" dy="2"/><feGaussianBlur stdDeviation=".5"/><feColorMatrix values="0 0 0 0 0 0 0 0 0 0.164667 0 0 0 0 0.316667 0 0 0 0.29 0"/><feBlend in2="BackgroundImageFix" result="effect1_dropShadow_7923_1375"/><feBlend in="SourceGraphic" in2="effect1_dropShadow_7923_1375" result="shape"/></filter></defs></svg>