<svg xmlns="http://www.w3.org/2000/svg" width="28" height="28" fill="none"><mask id="a" width="28" height="28" x="0" y="0" maskUnits="userSpaceOnUse" style="mask-type:alpha"><path fill="#009FDA" d="M0 14a14 14 0 1 1 28 0 14 14 0 0 1-28 0Z"/></mask><g mask="url(#a)"><rect width="28" height="28" fill="url(#b)" rx="14"/><rect width="28" height="28" fill="#F14D43" rx="14"/><path fill="#F7C410" d="M16.5 22c-1.6.4-2.4 0-4.8-1l8.7-10s4.6 2.5 4.1 3-6.7 7.7-8 8Z"/><path fill="#F17743" d="M22.5 12.5 7 28l-4.5-3.5L17 10.8l5.5 1.7Z"/><path fill="#CC2D23" d="M24.5 14c1.2-.6-8-13.4-8.9-14A10.8 10.8 0 0 0 2.5 2c-4.2 4.3-5 16.2-8.3 19.6L3 25c3.5-3.7 12.2-12 13-12.5 1-.6 7.3 2.1 8.5 1.5Z"/><path fill="#F7C410" d="M5.2 13C8 10 3.4 4 3 3l-9 18.4 2.4.4c2.7-2.6 6-5.7 8.8-8.7Z"/></g><g filter="url(#c)"><path fill="#fff" d="M12.4 14H18v1.7h-5.6V14Zm.2 6h-2.1V8.8h8.2v1.7h-6.1V20Z"/></g><defs><linearGradient id="b" x1="7" x2="27.1" y1="0" y2="3.8" gradientUnits="userSpaceOnUse"><stop stop-color="#67B3EA"/><stop offset="1" stop-color="#6C7FE7"/></linearGradient><filter id="c" width="11.2" height="14.2" x="7.5" y="8.8" color-interpolation-filters="sRGB" filterUnits="userSpaceOnUse"><feFlood flood-opacity="0" result="BackgroundImageFix"/><feColorMatrix in="SourceAlpha" result="hardAlpha" values="0 0 0 0 0 0 0 0 0 0 0 0 0 0 0 0 0 0 127 0"/><feOffset dx="-2" dy="2"/><feGaussianBlur stdDeviation=".5"/><feColorMatrix values="0 0 0 0 0 0 0 0 0 0.164667 0 0 0 0 0.316667 0 0 0 0.2 0"/><feBlend in2="BackgroundImageFix" result="effect1_dropShadow_7923_2270"/><feBlend in="SourceGraphic" in2="effect1_dropShadow_7923_2270" result="shape"/></filter></defs></svg>