<svg width="392" height="171" viewBox="0 0 392 171" fill="none" xmlns="http://www.w3.org/2000/svg">
<mask id="mask0_10375_31668" style="mask-type:alpha" maskUnits="userSpaceOnUse" x="0" y="0" width="392" height="171">
<rect width="392" height="171" fill="#D9D9D9"/>
</mask>
<g mask="url(#mask0_10375_31668)">
<g opacity="0.4" filter="url(#filter0_f_10375_31668)">
<path d="M201.188 29.8634C176.98 13.4248 149.821 19.2957 133.879 34.5602C117.937 49.8246 115.222 62.506 116.166 73.3085C117.347 86.8117 132.698 100.902 127.975 111.47C123.251 122.037 115.576 148.457 146.278 152.566C176.98 156.676 176.98 130.257 218.31 129.083C259.64 127.908 274.401 124.386 276.763 109.121C279.124 93.8569 263.773 89.1601 234.252 84.4633C204.73 79.7666 225.395 46.302 201.188 29.8634Z" fill="url(#paint0_linear_10375_31668)"/>
</g>
<path d="M201.188 27.8634C176.98 11.4248 149.821 17.2957 133.879 32.5602C117.937 47.8246 115.222 60.506 116.166 71.3085C117.347 84.8117 132.698 98.902 127.975 109.47C123.251 120.037 115.576 146.457 146.278 150.566C176.98 154.676 176.98 128.257 218.31 127.083C259.64 125.908 274.401 122.386 276.763 107.121C279.124 91.8569 263.773 87.1601 234.252 82.4633C204.73 77.7666 225.395 44.302 201.188 27.8634Z" fill="url(#paint1_linear_10375_31668)"/>
<mask id="mask1_10375_31668" style="mask-type:alpha" maskUnits="userSpaceOnUse" x="116" y="18" width="161" height="133">
<path d="M201.188 27.8634C176.98 11.4248 149.821 17.2957 133.879 32.5602C117.937 47.8246 115.222 60.506 116.166 71.3085C117.347 84.8117 132.698 98.902 127.975 109.47C123.251 120.037 115.576 146.457 146.278 150.566C176.98 154.676 176.98 128.257 218.31 127.083C259.64 125.908 274.401 122.386 276.763 107.121C279.124 91.8569 263.773 87.1601 234.252 82.4633C204.73 77.7666 225.395 44.302 201.188 27.8634Z" fill="#D9D9D9"/>
</mask>
<g mask="url(#mask1_10375_31668)">
<path d="M208.842 96.0781C217.475 123.228 144.156 150.448 129.815 155.485C128.34 156.003 126.727 155.579 125.661 154.436L68.1026 92.6824C66.1089 90.5433 65.5259 90.0468 68.3185 89.1798C82.1942 84.8716 123.511 63.5443 149.251 80.3372C150.949 81.4454 153.248 81.364 155.014 80.3679C166.76 73.7451 200.171 68.8075 208.842 96.0781Z" fill="url(#paint2_linear_10375_31668)"/>
<path opacity="0.3" d="M129.399 199.584C167.615 214.727 209.692 196.682 223.399 159.321C237.106 121.961 217.273 79.3837 179.057 64.2405C140.84 49.0973 98.7641 67.1428 85.0566 104.503C71.3491 141.863 91.1829 184.441 129.399 199.584Z" stroke="url(#paint3_linear_10375_31668)" stroke-opacity="0.8"/>
<path opacity="0.3" d="M87.3647 283.458C154.8 310.18 229.067 278.342 253.265 212.39C277.463 146.438 242.446 71.2967 175.011 44.5755C107.576 17.8543 33.3088 49.692 9.11103 115.644C-15.0868 181.596 19.9296 256.737 87.3647 283.458Z" stroke="url(#paint4_linear_10375_31668)" stroke-opacity="0.8"/>
<g opacity="0.3" filter="url(#filter1_f_10375_31668)">
<circle r="5.97071" transform="matrix(0.999169 0.0407506 -0.00140848 -0.999999 196.897 73.963)" fill="white" fill-opacity="0.3"/>
</g>
<g opacity="0.2" filter="url(#filter2_f_10375_31668)">
<circle r="5.42016" transform="matrix(0.999169 0.0407511 -0.00140895 -0.999999 153.83 37.5908)" fill="white" fill-opacity="0.3"/>
</g>
<ellipse rx="1.48084" ry="1.48084" transform="matrix(0.999169 0.0407496 -0.00140747 -0.999999 197.061 73.7201)" fill="#86AEE9"/>
<circle opacity="0.8" r="1.11587" transform="matrix(0.999169 0.0407506 -0.00140848 -0.999999 153.755 37.7695)" fill="#6E8EBC"/>
<path d="M154.936 125.144C192.938 101.489 176.861 125.316 179.103 129.203L173.808 145.249C158.739 149.212 128.321 169.183 127.904 168.756C127.488 168.33 101.856 122.154 96.5646 111.696C99.596 106.302 123.928 106.481 136.522 98.3391C149.116 90.1976 144.675 107.331 145.754 113.744C144.146 116.879 147.284 129.907 154.936 125.144Z" fill="url(#paint5_linear_10375_31668)"/>
<path d="M187.23 122.333C181.056 128.022 185.791 161.171 140.685 136.906C122.535 127.142 100.792 111.017 87.0908 100.87C82.5428 103.604 77.1842 106.552 70.7582 109.567C40.7457 123.647 77.8071 98.0124 73.8893 92.2527C72.3153 89.9387 77.8901 94.0567 87.0908 100.87C103.785 90.8377 109.558 83.7102 117.107 86.8977C126.713 90.9537 125.986 96.0802 131.638 100.973C151.49 118.157 157.159 77.8599 192.305 101.878C205.962 111.211 190.262 122.888 187.23 122.333Z" fill="url(#paint6_linear_10375_31668)"/>
<path d="M146.165 129.289C175.082 132.016 195.166 120.372 199.466 113.607C202.809 113.55 214.027 104.506 196.571 97.3934C174.751 88.5021 172.738 110.73 155.815 106.615C138.893 102.501 142.646 94.2799 126.085 98.0545C109.524 101.829 113.755 84.1488 90.7047 92.8332C67.6541 101.518 75.5143 63.315 73.179 58.1052C70.8436 52.8954 70.0226 74.6376 66.3645 84.0967C66.7615 87.4151 109.581 125.838 146.165 129.289Z" fill="url(#paint7_linear_10375_31668)"/>
</g>
<path d="M142 69.5171C142 65.6062 145.204 62.4539 149.115 62.518L244.348 64.0792C246.532 64.115 248.283 65.8951 248.283 68.0787V127.579C248.283 129.763 246.532 131.543 244.348 131.579L149.115 133.14C145.204 133.204 142 130.052 142 126.141V69.5171Z" fill="#9ABDEC"/>
<path d="M143.61 69.73C143.61 65.2596 147.274 61.6567 151.743 61.7311L244.349 63.2726C246.532 63.3089 248.283 65.0888 248.283 67.272V126.775C248.283 128.958 246.532 130.738 244.35 130.774L151.744 132.316C147.274 132.39 143.61 128.787 143.61 124.317V69.73Z" fill="#E0EDFF"/>
<path d="M150.052 70.4652C150.052 68.2415 151.865 66.4447 154.089 66.4654L241.471 67.2804C242.568 67.2907 243.452 68.183 243.452 69.2803V119.937C243.452 121.035 242.568 121.927 241.471 121.937L154.089 122.752C151.865 122.773 150.052 120.976 150.052 118.752V70.4652Z" fill="white"/>
<g filter="url(#filter3_i_10375_31668)">
<circle cx="199.972" cy="127.621" r="2.41552" fill="#BAD3F4"/>
</g>
<path d="M220.405 110.51C220.405 109.957 219.958 109.51 219.405 109.51H202.24C201.687 109.51 201.24 109.957 201.24 110.51V117.221C201.24 117.774 201.687 118.221 202.24 118.221H219.405C219.958 118.221 220.405 117.774 220.405 117.221V110.51Z" fill="#E1E3E5"/>
<path d="M223.019 117.221C223.019 117.774 223.467 118.221 224.019 118.221H240.314C240.866 118.221 241.314 117.774 241.314 117.221V110.51C241.314 109.957 240.866 109.51 240.314 109.51H224.019C223.467 109.51 223.019 109.957 223.019 110.51V117.221Z" fill="#E1E3E5"/>
<path d="M178.589 110.51C178.589 109.957 179.037 109.51 179.589 109.51H197.626C198.178 109.51 198.626 109.957 198.626 110.51V117.221C198.626 117.774 198.178 118.221 197.626 118.221H179.589C179.037 118.221 178.589 117.774 178.589 117.221V110.51Z" fill="#E1E3E5"/>
<path d="M175.976 110.51C175.976 109.957 175.528 109.51 174.976 109.51H154.325C153.773 109.51 153.325 109.957 153.325 110.51V117.221C153.325 117.774 153.773 118.221 154.325 118.221H174.976C175.528 118.221 175.976 117.774 175.976 117.221V110.51Z" fill="#E1E3E5"/>
<path d="M226.51 71.8771C226.513 71.3291 226.075 70.8803 225.527 70.8706L217.074 70.7213C216.518 70.7115 216.06 71.1579 216.056 71.7145L216.041 73.9973C216.037 74.5475 216.479 74.9973 217.029 75.004L225.483 75.107C226.037 75.1137 226.491 74.6681 226.495 74.1137L226.51 71.8771Z" fill="#E1E3E5"/>
<path d="M229.108 74.1565C229.104 74.7067 229.546 75.1565 230.096 75.1632L239.856 75.2821C240.41 75.2888 240.864 74.8433 240.868 74.2889L240.883 72.1309C240.886 71.5829 240.448 71.134 239.9 71.1244L230.14 70.952C229.584 70.9422 229.127 71.3886 229.123 71.9452L229.108 74.1565Z" fill="#E1E3E5"/>
<path d="M199.506 71.4222C199.51 70.8657 199.967 70.4193 200.523 70.4291L212.461 70.6399C213.009 70.6495 213.447 71.0984 213.443 71.6464L213.428 73.9546C213.424 74.509 212.97 74.9545 212.416 74.9478L200.478 74.8023C199.928 74.7956 199.486 74.3458 199.49 73.7957L199.506 71.4222Z" fill="#E1E3E5"/>
<path d="M196.893 71.3542C196.896 70.8062 196.458 70.3573 195.91 70.3477L183.537 70.1292C182.981 70.1194 182.523 70.5658 182.52 71.1223L182.503 73.5887C182.499 74.1389 182.941 74.5887 183.491 74.5954L195.864 74.7461C196.419 74.7529 196.873 74.3073 196.877 73.7529L196.893 71.3542Z" fill="#E1E3E5"/>
<path d="M161.449 70.633C161.453 70.0879 161.019 69.6403 160.474 69.6266L153.924 69.4621C153.365 69.448 152.903 69.8956 152.899 70.4551L152.883 72.9176C152.879 73.4663 153.318 73.9155 153.867 73.9242L160.417 74.0284C160.973 74.0373 161.429 73.5911 161.433 73.0353L161.449 70.633Z" fill="#E1E3E5"/>
<mask id="mask2_10375_31668" style="mask-type:alpha" maskUnits="userSpaceOnUse" x="150" y="66" width="94" height="57">
<path d="M150.052 70.4652C150.052 68.2415 151.865 66.4447 154.089 66.4654L241.471 67.2804C242.568 67.2907 243.452 68.183 243.452 69.2803V119.937C243.452 121.035 242.568 121.927 241.471 121.937L154.089 122.752C151.865 122.773 150.052 120.976 150.052 118.752V70.4652Z" fill="white"/>
</mask>
<g mask="url(#mask2_10375_31668)">
<path d="M148.098 77.2773L243.927 78.1485V104.284H148.098V77.2773Z" fill="#E1E3E5"/>
</g>
<ellipse cx="233.218" cy="76.8427" rx="19.782" ry="21.3437" fill="#E80061"/>
<path fill-rule="evenodd" clip-rule="evenodd" d="M243.995 69.3502L233.442 87.0142L223.734 77.3483L226.955 73.8008L232.515 79.3367L240.032 66.7539L243.995 69.3502Z" fill="white"/>
<path d="M144 48L145.35 51.6495L149 53L145.35 54.3505L144 58L142.65 54.3505L139 53L142.65 51.6495L144 48Z" fill="#E0EDFF"/>
<path d="M134.5 57L135.445 59.5547L138 60.5L135.445 61.4453L134.5 64L133.555 61.4453L131 60.5L133.555 59.5547L134.5 57Z" fill="#E0EDFF"/>
</g>
<defs>
<filter id="filter0_f_10375_31668" x="104" y="8" width="185" height="157" filterUnits="userSpaceOnUse" color-interpolation-filters="sRGB">
<feFlood flood-opacity="0" result="BackgroundImageFix"/>
<feBlend mode="normal" in="SourceGraphic" in2="BackgroundImageFix" result="shape"/>
<feGaussianBlur stdDeviation="6" result="effect1_foregroundBlur_10375_31668"/>
</filter>
<filter id="filter1_f_10375_31668" x="184.931" y="61.9873" width="23.9316" height="23.9512" filterUnits="userSpaceOnUse" color-interpolation-filters="sRGB">
<feFlood flood-opacity="0" result="BackgroundImageFix"/>
<feBlend mode="normal" in="SourceGraphic" in2="BackgroundImageFix" result="shape"/>
<feGaussianBlur stdDeviation="3" result="effect1_foregroundBlur_10375_31668"/>
</filter>
<filter id="filter2_f_10375_31668" x="142.414" y="26.166" width="22.8311" height="22.8496" filterUnits="userSpaceOnUse" color-interpolation-filters="sRGB">
<feFlood flood-opacity="0" result="BackgroundImageFix"/>
<feBlend mode="normal" in="SourceGraphic" in2="BackgroundImageFix" result="shape"/>
<feGaussianBlur stdDeviation="3" result="effect1_foregroundBlur_10375_31668"/>
</filter>
<filter id="filter3_i_10375_31668" x="197.557" y="125.205" width="4.83105" height="4.83105" filterUnits="userSpaceOnUse" color-interpolation-filters="sRGB">
<feFlood flood-opacity="0" result="BackgroundImageFix"/>
<feBlend mode="normal" in="SourceGraphic" in2="BackgroundImageFix" result="shape"/>
<feColorMatrix in="SourceAlpha" type="matrix" values="0 0 0 0 0 0 0 0 0 0 0 0 0 0 0 0 0 0 127 0" result="hardAlpha"/>
<feOffset dx="-1"/>
<feComposite in2="hardAlpha" operator="arithmetic" k2="-1" k3="1"/>
<feColorMatrix type="matrix" values="0 0 0 0 0.662917 0 0 0 0 0.775884 0 0 0 0 0.925 0 0 0 1 0"/>
<feBlend mode="normal" in2="shape" result="effect1_innerShadow_10375_31668"/>
</filter>
<linearGradient id="paint0_linear_10375_31668" x1="121.73" y1="141.722" x2="241.903" y2="125.372" gradientUnits="userSpaceOnUse">
<stop stop-color="#112AAD"/>
<stop offset="1" stop-color="#142269"/>
</linearGradient>
<linearGradient id="paint1_linear_10375_31668" x1="121.695" y1="139.729" x2="241.159" y2="123.565" gradientUnits="userSpaceOnUse">
<stop stop-color="#142269"/>
<stop offset="1" stop-color="#112AAD"/>
</linearGradient>
<linearGradient id="paint2_linear_10375_31668" x1="184.124" y1="90.4855" x2="74.6426" y2="78.6772" gradientUnits="userSpaceOnUse">
<stop stop-color="#0251C8"/>
<stop offset="1" stop-color="#0251C8" stop-opacity="0"/>
</linearGradient>
<linearGradient id="paint3_linear_10375_31668" x1="196.562" y1="35.8332" x2="91.9931" y2="121.163" gradientUnits="userSpaceOnUse">
<stop stop-color="white"/>
<stop offset="1" stop-color="white" stop-opacity="0"/>
</linearGradient>
<linearGradient id="paint4_linear_10375_31668" x1="186.494" y1="61.0759" x2="149.88" y2="22.3764" gradientUnits="userSpaceOnUse">
<stop stop-color="white"/>
<stop offset="1" stop-color="white" stop-opacity="0"/>
</linearGradient>
<linearGradient id="paint5_linear_10375_31668" x1="134.228" y1="133.754" x2="101.031" y2="103.279" gradientUnits="userSpaceOnUse">
<stop stop-color="#0066FF"/>
<stop offset="1" stop-color="#0066FF" stop-opacity="0"/>
</linearGradient>
<linearGradient id="paint6_linear_10375_31668" x1="159.202" y1="129.056" x2="64.5748" y2="100.94" gradientUnits="userSpaceOnUse">
<stop stop-color="#142269"/>
<stop offset="1" stop-color="#142269" stop-opacity="0"/>
</linearGradient>
<linearGradient id="paint7_linear_10375_31668" x1="164.002" y1="114.95" x2="73.48" y2="112.446" gradientUnits="userSpaceOnUse">
<stop stop-color="#649AEB"/>
<stop offset="1" stop-color="#649AEB" stop-opacity="0"/>
</linearGradient>
</defs>
</svg>
